<?xml version="1.0" standalone="no"?>
<!DOCTYPE svg PUBLIC "-//W3C//DTD SVG 1.1//EN" "http://www.w3.org/Graphics/SVG/1.1/DTD/svg11.dtd" >
<svg xmlns="http://www.w3.org/2000/svg">
<metadata></metadata>
<defs>
<font id="segoe_uibold_italic" horiz-adv-x="1225" >
<font-face units-per-em="2048" ascent="1638" descent="-410" />
<missing-glyph horiz-adv-x="563" />
<glyph horiz-adv-x="2048" />
<glyph horiz-adv-x="2048" />
<glyph horiz-adv-x="682" />
<glyph unicode="&#xd;" horiz-adv-x="100" />
<glyph unicode=" "  horiz-adv-x="563" />
<glyph unicode="&#x09;" horiz-adv-x="563" />
<glyph unicode="&#xa0;" horiz-adv-x="563" />
<glyph unicode="!" horiz-adv-x="709" d="M96 133q0 39 15 71.5t41 55t61 35t76 12.5q38 0 70 -12t55.5 -33t37 -49.5t13.5 -62.5q0 -39 -15 -70.5t-40.5 -54.5t-60.5 -35.5t-75 -12.5q-38 0 -70.5 12t-56.5 33t-37.5 49.5t-13.5 61.5zM207 446l172 988h332l-248 -988h-256z" />
<glyph unicode="&#x22;" horiz-adv-x="1010" d="M303 1452h262l-30 -444h-203zM698 1452h263l-31 -444h-201z" />
<glyph unicode="#" horiz-adv-x="1171" d="M63 461l37 180h189l53 248h-203l35 180h205l74 356h204l-73 -356h229l76 356h203l-74 -356h184l-39 -180h-184l-55 -248h206l-45 -180h-198l-78 -346h-201l74 346h-229l-74 -346h-201l72 346h-187zM489 641h232l55 248h-231z" />
<glyph unicode="$" horiz-adv-x="1180" d="M63 82l54 252q34 -21 75.5 -39.5t86 -33.5t89.5 -26t87 -16l82 383q-72 35 -133 75t-104.5 89.5t-68 111t-24.5 138.5q0 87 31 163.5t94 134t158.5 92.5t224.5 38l37 176h145l-39 -182q38 -3 77.5 -10t77.5 -17t71.5 -21t58.5 -22l-51 -244q-57 29 -127 53.5t-154 36.5 l-84 -395q158 -71 240 -170t82 -217q0 -85 -25.5 -163.5t-84 -139t-153.5 -99t-235 -42.5l-43 -197h-143l41 201q-52 4 -102 14.5t-95 23.5t-82.5 26.5t-63.5 25.5zM479 1042q0 -58 30.5 -94.5t84.5 -70.5l72 335q-47 -1 -82 -15.5t-58.5 -38t-35 -53.5t-11.5 -63zM598 217 q47 2 81 18.5t56 41.5t32.5 56t10.5 62q0 22 -5.5 41t-18 36.5t-33 35t-51.5 35.5z" />
<glyph unicode="%" horiz-adv-x="1778" d="M170 1018q0 43 9.5 92t29.5 97.5t52 93t77 78.5t105 54.5t135 20.5t133.5 -22t99 -61.5t61.5 -96t21 -125.5t-22 -146.5t-70.5 -143.5t-124.5 -109t-184 -43q-90 0 -151.5 29t-99.5 74t-54.5 100t-16.5 108zM182 0l1239 1434h246l-1239 -1434h-246zM385 1018q0 -28 7 -53 t21.5 -44t36 -29.5t50.5 -10.5q44 0 77 24.5t55.5 62.5t34 84.5t11.5 90.5q0 25 -5.5 50t-18 44.5t-33.5 32t-52 12.5q-48 0 -82.5 -26.5t-57 -66t-33.5 -85.5t-11 -86zM963 289q0 43 9 92t29.5 98t52 93.5t77 79t105 55t134.5 20.5t134 -22t99.5 -62t61.5 -96.5t21 -126.5 q0 -45 -9.5 -95.5t-30 -99.5t-52 -93.5t-76 -78t-102.5 -53.5t-130 -20q-90 0 -151.5 28.5t-99.5 73t-55 99.5t-17 108zM1178 289q0 -28 7 -52.5t21 -43t35.5 -29t50.5 -10.5q44 0 77 24t55.5 62t34 84.5t11.5 91.5q0 24 -5.5 48.5t-18 44t-33 32t-51.5 12.5 q-48 0 -82.5 -26.5t-57 -66t-33.5 -85.5t-11 -86z" />
<glyph unicode="&#x26;" horiz-adv-x="1641" d="M-1 385q0 99 38 174t100.5 131.5t143 96t165.5 68.5q-21 18 -42 43.5t-38 57.5t-27.5 70t-10.5 80q0 84 33 149.5t94 110.5t147.5 68.5t192.5 23.5q90 0 164 -21t126 -60t80.5 -94t28.5 -123q0 -72 -28 -125.5t-73.5 -92.5t-103.5 -66.5t-119 -49.5q32 -16 68 -48.5 t70.5 -74t64.5 -88t51 -91.5q61 56 111 121t85 136.5t54.5 148t19.5 155.5q0 10 -0.5 19t-1.5 17h269q3 -22 3 -45q0 -74 -19 -147.5t-51 -144.5t-74.5 -137.5t-89.5 -126t-96 -110.5t-95 -91q39 -55 82 -78t95 -23q47 0 88.5 9t85.5 24l-42 -244q-41 -14 -90.5 -22 t-110.5 -8q-56 0 -101.5 15t-83.5 41.5t-69.5 62t-60.5 75.5q-38 -30 -91.5 -64t-121.5 -63t-150 -48t-177 -19q-115 0 -206.5 29t-155 82.5t-97.5 128.5t-34 168zM323 412q0 -42 15.5 -77t43.5 -60.5t67 -39.5t85 -14q101 0 201.5 40.5t187.5 109.5q-54 128 -134.5 216.5 t-167.5 132.5q-48 -18 -101 -44.5t-96.5 -63.5t-72 -86t-28.5 -114zM605 1097q0 -48 25 -83.5t60 -58.5q33 11 71 25t70 35t53.5 50.5t21.5 71.5q0 49 -35 79.5t-88 30.5q-34 0 -66.5 -9t-57 -28t-39.5 -47t-15 -66z" />
<glyph unicode="'" horiz-adv-x="600" d="M299 1452h262l-33 -442h-200z" />
<glyph unicode="(" horiz-adv-x="758" d="M156 315q0 168 36 322t104 294.5t166 266t222 236.5h272q-118 -123 -215.5 -253t-167 -271.5t-107.5 -297t-38 -329.5q0 -75 8.5 -153t25.5 -155.5t43.5 -151t63.5 -138.5h-245q-42 65 -73.5 143.5t-52.5 161t-31.5 166t-10.5 159.5z" />
<glyph unicode=")" horiz-adv-x="758" d="M-199 -315q118 122 215.5 251.5t167.5 271t108 297t38 329.5q0 75 -8.5 153t-25.5 155.5t-44 151.5t-64 140h246q42 -65 73.5 -143.5t52.5 -161.5t31.5 -166.5t10.5 -159.5q0 -168 -36 -322t-104.5 -294t-166.5 -265.5t-221 -236.5h-273z" />
<glyph unicode="*" horiz-adv-x="932" d="M164 1053l72 202l249 -108l-43 287h234l-43 -287l252 108l71 -202l-274 -37l199 -211l-185 -125l-137 254l-137 -254l-182 125l198 211z" />
<glyph unicode="+" horiz-adv-x="1450" d="M258 485v203h385v385h203v-385h385v-203h-385v-385h-203v385h-385z" />
<glyph unicode="," horiz-adv-x="555" d="M-109 -254l232 506h297l-270 -506h-259z" />
<glyph unicode="-" horiz-adv-x="827" d="M119 436l47 221h547l-47 -221h-547z" />
<glyph unicode="." horiz-adv-x="555" d="M14 131q0 38 15 70t41 54.5t61 35t76 12.5q38 0 70.5 -12t56 -33t36.5 -50t13 -63q0 -38 -15 -69.5t-40.5 -54t-60 -34.5t-74.5 -12q-39 0 -71.5 11.5t-56.5 32.5t-37.5 49.5t-13.5 62.5z" />
<glyph unicode="/" horiz-adv-x="909" d="M-225 -238l1052 1672h318l-1053 -1672h-317z" />
<glyph unicode="0" horiz-adv-x="1180" d="M80 465q0 106 18 221t53.5 225t89 208t124.5 171q81 85 177.5 126.5t221.5 41.5q105 0 183 -35.5t129 -97t76.5 -144t25.5 -177.5q0 -115 -18 -237.5t-54 -239t-90.5 -218.5t-128.5 -176q-78 -78 -170 -118t-213 -40q-90 0 -167.5 30.5t-134.5 91.5t-89.5 153t-32.5 215z M389 432q0 -106 38.5 -159.5t98.5 -53.5q34 0 66.5 15t60.5 47q28 30 54.5 80t50.5 112t44 132t35 141.5t23 141t8 128.5q0 103 -34 152t-91 49q-72 0 -135 -66q-32 -33 -60.5 -86t-53 -116.5t-44 -134t-33 -139t-21 -131.5t-7.5 -112z" />
<glyph unicode="1" horiz-adv-x="1180" d="M39 0l55 250h295l191 893l-320 -66l55 256l648 125l-256 -1208h292l-55 -250h-905z" />
<glyph unicode="2" horiz-adv-x="1180" d="M-14 0l55 256l514 406q76 59 131.5 107.5t92 93t54 87t17.5 90.5q0 33 -11 63t-35.5 53t-62.5 36.5t-92 13.5q-50 0 -100 -10.5t-97.5 -28t-91 -40.5t-81.5 -48l63 289q27 14 67.5 29.5t91 29t110 22.5t124.5 9q108 0 189 -26.5t135 -74.5t81 -114.5t27 -146.5 q0 -86 -27.5 -160t-79 -142t-125 -133t-165.5 -133l-354 -262v-4h571l-57 -262h-944z" />
<glyph unicode="3" horiz-adv-x="1180" d="M35 57l55 256q24 -15 58.5 -32t76.5 -31.5t90 -23.5t99 -9q84 0 139.5 19t88.5 49t46.5 68t13.5 75q0 42 -15.5 76.5t-49.5 59t-86.5 37.5t-126.5 13h-123l51 242h152q71 0 127.5 14t96.5 40.5t61.5 65.5t21.5 89q0 32 -11 59.5t-35 48t-62 32.5t-93 12q-94 0 -171.5 -23 t-133.5 -49l55 256q25 8 58.5 17.5t77.5 18.5t98 15t119 6q107 0 185 -26.5t129 -72t76 -107.5t25 -134q0 -67 -23 -130t-69.5 -114.5t-116 -88.5t-163.5 -52v-4q63 -12 112 -39t82 -66.5t50.5 -91t17.5 -112.5q0 -84 -32 -164t-102.5 -142.5t-184 -100.5t-277.5 -38 q-61 0 -117.5 7t-106 18.5t-90.5 26.5t-73 30z" />
<glyph unicode="4" horiz-adv-x="1180" d="M-18 305l41 199l788 930h326l-193 -904h172l-47 -225h-172l-63 -305h-293l65 305h-624zM315 530h338l97 441q8 35 16 71.5t16 65.5h-6q-14 -23 -32.5 -51.5t-43.5 -59.5z" />
<glyph unicode="5" horiz-adv-x="1180" d="M49 47l55 256q25 -16 61 -31.5t78 -27.5t86 -19.5t85 -7.5q87 0 146 24t95 60t52 78.5t16 79.5q0 45 -13.5 81t-45 60.5t-81.5 37.5t-124 13q-31 0 -66 -1.5t-68.5 -3.5t-64 -5t-51.5 -6l172 799h797l-56 -258h-526l-61 -287q18 2 32.5 3t34.5 1q113 0 195 -31 t135.5 -84.5t79.5 -126t26 -155.5q0 -54 -14 -114t-44.5 -117.5t-78.5 -110t-117 -92.5t-160 -63.5t-206 -23.5q-57 0 -112 6t-104 15.5t-88 22.5t-65 28z" />
<glyph unicode="6" horiz-adv-x="1180" d="M100 514q0 122 23.5 237t67.5 217.5t108.5 188.5t146.5 150q97 74 214.5 112.5t244.5 38.5q99 0 170 -14.5t111 -30.5l-56 -258q-43 26 -104.5 44t-136.5 18q-72 0 -137.5 -25t-114.5 -64q-37 -30 -69.5 -72t-59 -89.5t-45.5 -98.5t-31 -100h4q26 34 60 62t74 48.5t85 32 t93 11.5q83 0 147.5 -28t109 -79.5t68 -125t23.5 -165.5q0 -98 -33.5 -196t-100 -176t-164.5 -126.5t-227 -48.5q-106 0 -192.5 34.5t-148.5 102.5t-96 168.5t-34 231.5zM408 432q0 -100 47.5 -154.5t126.5 -54.5q51 0 90 24t66 63t41 88t14 98q0 38 -9 73t-29 61.5 t-52.5 42t-79.5 15.5q-50 0 -90 -21t-67.5 -56.5t-42.5 -81.5t-15 -97z" />
<glyph unicode="7" horiz-adv-x="1180" d="M121 0l753 1176h-657l55 258h1002l-35 -162l-764 -1272h-354z" />
<glyph unicode="8" horiz-adv-x="1180" d="M39 352q0 155 96.5 254.5t274.5 151.5q-42 27 -74 62t-53.5 74t-32 81t-10.5 84q0 86 34 159t99.5 126.5t160.5 83.5t216 30q110 0 192 -29t137.5 -78t83 -112.5t27.5 -132.5q0 -143 -90.5 -238.5t-253.5 -136.5q106 -51 167.5 -135.5t61.5 -200.5q0 -92 -40 -169.5 t-113 -134t-176.5 -88.5t-231.5 -32q-111 0 -199.5 27.5t-149.5 77.5t-93.5 120t-32.5 156zM334 369q0 -27 11 -57t35 -55t63 -41.5t94 -16.5q56 0 100.5 15t76 41.5t48 62.5t16.5 79q0 35 -12.5 68.5t-36 63.5t-56 56t-71.5 44q-136 -34 -202 -104t-66 -156zM539 1049 q0 -59 29.5 -108t86.5 -89q112 31 174 86.5t62 144.5q0 32 -11 59t-32 46.5t-50.5 31t-66.5 11.5q-93 0 -142.5 -50.5t-49.5 -131.5z" />
<glyph unicode="9" horiz-adv-x="1180" d="M70 23l45 256q19 -11 45.5 -21.5t58 -19t67.5 -14t74 -5.5q78 0 142 22t116 62q75 59 126 153t79 210h-4q-60 -76 -134.5 -116t-168.5 -40q-91 0 -158.5 33t-112.5 88.5t-67 128t-22 151.5q0 58 12.5 121t40 124t69.5 116t101.5 97t136.5 66.5t174 24.5 q114 0 200.5 -40.5t145.5 -112.5t89 -170.5t30 -214.5q0 -103 -19 -212t-59.5 -212.5t-103.5 -196.5t-150 -164q-50 -41 -102.5 -71.5t-110.5 -50t-123.5 -29t-140.5 -9.5q-94 0 -166 14.5t-110 31.5zM465 940q0 -35 8.5 -70.5t28 -64t51.5 -46.5t78 -18q52 0 93 21t69.5 56 t43.5 82t15 99q0 39 -11.5 77.5t-33 68.5t-53.5 48.5t-74 18.5q-54 0 -94 -24.5t-67 -63.5t-40.5 -87.5t-13.5 -96.5z" />
<glyph unicode=":" horiz-adv-x="555" d="M14 131q0 38 15 70t41 54.5t61 35t76 12.5q38 0 70.5 -12t56 -33t36.5 -50t13 -63q0 -38 -15 -69.5t-40.5 -54t-60 -34.5t-74.5 -12q-39 0 -71.5 11.5t-56.5 32.5t-37.5 49.5t-13.5 62.5zM168 862q0 39 14.5 71.5t40 55t61 35t76.5 12.5q38 0 70.5 -12t56 -33t37 -49.5 t13.5 -62.5q0 -39 -15 -70.5t-41.5 -54t-61.5 -35t-75 -12.5q-38 0 -70.5 12t-56 32.5t-36.5 49t-13 61.5z" />
<glyph unicode=";" horiz-adv-x="555" d="M-137 -254l229 506h299l-272 -506h-256zM168 862q0 39 14.5 71.5t40 55t61 35t76.5 12.5q38 0 70.5 -12t56 -33t37 -49.5t13.5 -62.5q0 -39 -15 -70.5t-41.5 -54t-61.5 -35t-75 -12.5q-38 0 -70.5 12t-56 32.5t-36.5 49t-13 61.5z" />
<glyph unicode="&#x3c;" horiz-adv-x="1450" d="M229 504v164l934 445v-238l-665 -287v-4l665 -268v-235z" />
<glyph unicode="=" horiz-adv-x="1450" d="M258 266v203h973v-203h-973zM258 700v205h973v-205h-973z" />
<glyph unicode="&#x3e;" horiz-adv-x="1450" d="M307 81v237l668 267v4l-668 286v238l936 -444v-162z" />
<glyph unicode="?" horiz-adv-x="920" d="M147 133q0 39 14.5 71.5t40.5 55t61 35t77 12.5q38 0 70 -12t55.5 -33t37 -49.5t13.5 -62.5q0 -39 -15 -70.5t-40.5 -54.5t-60.5 -35.5t-76 -12.5q-38 0 -70.5 12t-56 33t-37 49.5t-13.5 61.5zM203 1124l57 277q31 14 69.5 26.5t81.5 22t88.5 15t90.5 5.5 q113 0 190.5 -29.5t125 -77t68.5 -108t21 -122.5q0 -58 -16 -112t-50.5 -105.5t-89.5 -101t-132 -97.5q-51 -31 -85.5 -61t-57 -63.5t-36 -72t-22.5 -86.5h-260q13 65 29 121t41.5 104.5t62.5 90.5t92 79q54 38 93.5 69.5t65 60t38 57t12.5 59.5q0 29 -11 54t-32.5 44 t-54 30t-74.5 11q-82 0 -161 -24.5t-144 -65.5z" />
<glyph unicode="@" horiz-adv-x="1954" d="M154 532q0 129 31 247.5t90 221t143.5 185.5t191.5 142.5t234.5 91.5t271.5 32q191 0 331.5 -50.5t232 -138t136 -204t44.5 -248.5q0 -79 -15.5 -156t-45.5 -147.5t-75 -130.5t-104 -103.5t-132.5 -68.5t-160.5 -25q-61 0 -104 15t-69 38t-38 50t-12 51q0 11 0.5 16.5 t3.5 18.5h-6q-53 -90 -121.5 -139.5t-159.5 -49.5q-62 0 -110 25.5t-80.5 70t-49 104.5t-16.5 130q0 67 15 135t44 130.5t70.5 116.5t95.5 94.5t118.5 63.5t138.5 23q41 0 72.5 -9.5t53.5 -25t36 -35t20 -38.5h4l24 90h226q-11 -37 -27 -92.5t-33.5 -119t-35 -128.5 t-31.5 -122t-22.5 -100t-8.5 -61q0 -42 17 -58t51 -16q48 0 94 35t82 94t58 138.5t22 167.5q0 90 -28.5 176.5t-93 153.5t-170 108t-259.5 41q-152 0 -283.5 -53t-228 -150t-152 -232.5t-55.5 -299.5q0 -115 32.5 -215t103 -174t182.5 -116t270 -42q84 0 160.5 9t139 22.5 t108.5 29t71 27.5l-35 -193q-22 -10 -66.5 -22.5t-106 -24t-137 -19t-159.5 -7.5q-191 0 -338 51.5t-247 146t-151.5 227t-51.5 295.5zM801 518q0 -77 30 -118.5t82 -41.5q42 0 80.5 27.5t70.5 74t57 109.5t40 133q5 22 7.5 43t2.5 39q0 57 -30.5 87t-79.5 30 q-58 0 -106 -35t-82.5 -90t-53 -123t-18.5 -135z" />
<glyph unicode="A" horiz-adv-x="1440" d="M-102 0l827 1434h385l205 -1434h-330l-41 319h-514l-168 -319h-364zM551 567h369l-52 484q-1 16 -1.5 35.5t0 37.5t1.5 32.5t2 21.5h-6q-2 -9 -7 -23t-11.5 -30.5t-15 -34.5t-17.5 -35z" />
<glyph unicode="B" horiz-adv-x="1327" d="M49 0l305 1434h508q117 0 199.5 -24.5t134.5 -68t76 -103t24 -128.5q0 -67 -22 -125t-65.5 -104.5t-107.5 -79.5t-149 -49v-4q68 -10 119 -36.5t85.5 -65.5t51.5 -88t17 -105q0 -97 -38 -179.5t-114 -143.5t-189.5 -95.5t-265.5 -34.5h-569zM424 238h180q74 0 127 16.5 t86.5 45.5t49.5 67.5t16 83.5q0 75 -52 120t-155 45h-170zM555 856h152q58 0 104 13.5t78.5 38.5t49.5 60.5t17 78.5q0 35 -10.5 62.5t-33.5 46.5t-60 29.5t-90 10.5h-133z" />
<glyph unicode="C" horiz-adv-x="1300" d="M104 598q0 113 24 220.5t72.5 203t122 175.5t173 138t226 90.5t279.5 32.5q58 0 112 -6t103 -15.5t90.5 -21t73.5 -22.5l-67 -306q-30 16 -64.5 32t-75.5 28.5t-88.5 20.5t-103.5 8q-130 0 -229.5 -44.5t-167.5 -119.5t-103 -174t-35 -209q0 -91 27 -161t77 -117.5 t120 -72t157 -24.5q55 0 103 7.5t91 20t81.5 28.5t73.5 34l-68 -305q-74 -31 -163.5 -47.5t-201.5 -16.5q-150 0 -269 44.5t-201 126.5t-125.5 196.5t-43.5 255.5z" />
<glyph unicode="D" horiz-adv-x="1542" d="M49 0l305 1434h504q158 0 277.5 -43t200.5 -119.5t122 -183t41 -234.5q0 -113 -23 -220.5t-69.5 -202.5t-117.5 -174t-167.5 -136t-219.5 -89t-273 -32h-580zM430 262h197q122 0 220 40.5t167 115t106 179t37 232.5q0 80 -22.5 143.5t-69 107.5t-117.5 67.5t-168 23.5 h-157z" />
<glyph unicode="E" horiz-adv-x="1085" d="M49 0l305 1434h826l-56 -263h-501l-68 -323h467l-57 -264h-465l-70 -322h535l-56 -262h-860z" />
<glyph unicode="F" horiz-adv-x="1067" d="M49 0l305 1434h830l-56 -267h-505l-74 -346h465l-58 -266h-464l-117 -555h-326z" />
<glyph unicode="G" horiz-adv-x="1452" d="M111 612q0 112 25 218.5t74.5 200.5t124 172.5t174 135t224.5 88t275 31.5q68 0 129.5 -7.5t115.5 -19.5t99.5 -26.5t81.5 -28.5l-64 -295q-31 21 -72 40.5t-89.5 34t-103 23.5t-112.5 9q-125 0 -225.5 -40.5t-171 -114t-108 -177t-37.5 -229.5q0 -91 25 -163t71.5 -121 t112.5 -75t147 -26q54 0 89.5 6.5t64.5 15.5l61 291h-291l55 258h613l-154 -727q-43 -21 -94 -40.5t-111 -35.5t-129 -25.5t-149 -9.5q-154 0 -275.5 46t-204.5 130t-127 201.5t-44 259.5z" />
<glyph unicode="H" horiz-adv-x="1565" d="M49 0l305 1434h326l-123 -572h590l123 572h325l-305 -1434h-325l122 580h-589l-123 -580h-326z" />
<glyph unicode="I" horiz-adv-x="649" d="M49 0l303 1434h326l-303 -1434h-326z" />
<glyph unicode="J" horiz-adv-x="907" d="M-86 18l59 299q15 -12 36 -23.5t44.5 -20t47.5 -14t46 -5.5q113 0 184.5 79.5t106.5 248.5l183 852h325l-184 -861q-29 -138 -80 -248.5t-128 -188.5t-181.5 -119.5t-241.5 -41.5q-24 0 -55 4t-61.5 10t-57.5 14t-43 15z" />
<glyph unicode="K" horiz-adv-x="1333" d="M49 0l305 1434h326l-141 -666h4q11 15 25.5 33t23.5 30q20 25 61.5 72.5t93 106t108.5 122.5t108.5 122.5t92 106t58.5 73.5h395q-24 -30 -75 -85.5t-115.5 -123t-136 -141t-136 -141t-115.5 -123t-75 -85.5q13 -33 43 -91.5t68.5 -129t82 -147t82 -147t68.5 -129 t43 -91.5h-393q-9 26 -32 75t-53.5 109t-64.5 125.5t-64.5 125.5t-54 108.5t-32.5 74.5q-8 17 -15 38.5t-10 33.5h-4l-145 -690h-326z" />
<glyph unicode="L" horiz-adv-x="1049" d="M49 0l305 1434h326l-248 -1168h529l-56 -266h-856z" />
<glyph unicode="M" horiz-adv-x="1781" d="M48 0l305 1434h384l147 -498q7 -24 13 -51.5t10 -55t6 -53t2 -45.5h5q11 22 23.5 49.5t26 56t28.5 55t30 46.5l366 496h416l-305 -1434h-290l182 858q30 137 78 307h-8q-14 -32 -29.5 -64t-30.5 -60.5t-28 -51t-23 -36.5l-384 -523h-226l-149 513q-5 15 -9.5 47.5 t-4.5 67.5v107h-9q-14 -94 -27.5 -173t-24.5 -133l-183 -859h-291z" />
<glyph unicode="N" horiz-adv-x="1636" d="M49 0l303 1434h320l430 -877q5 -11 12.5 -26.5t15 -32t14 -32.5t9.5 -28h4q1 15 3 33.5t5 37.5t6.5 37t6.5 32l182 856h305l-303 -1434h-295l-449 911q-6 12 -13 28t-14 32.5t-13 31.5t-9 27h-6q-5 -37 -11 -83t-17 -91l-183 -856h-303z" />
<glyph unicode="O" horiz-adv-x="1554" d="M111 592q0 93 16 183.5t48.5 174t81 159t112.5 138.5q50 48 108 86.5t125 66.5t144 43t165 15q133 0 243.5 -42t189.5 -121.5t123 -194t44 -258.5q0 -86 -15 -173t-44.5 -168.5t-74 -156.5t-103.5 -137q-50 -53 -109 -96t-128.5 -73t-150.5 -46.5t-175 -16.5 q-142 0 -253.5 47t-188.5 129.5t-117.5 195.5t-40.5 245zM453 596q0 -81 20.5 -145t58.5 -107.5t91.5 -66.5t119.5 -23q82 0 156.5 36t130.5 107q35 42 61 94.5t43 109.5t26 116t9 114q0 81 -20.5 145t-58.5 108.5t-92.5 68t-123.5 23.5q-80 0 -152 -37t-128 -103 q-34 -40 -60 -92t-44 -110t-27.5 -118.5t-9.5 -119.5z" />
<glyph unicode="P" horiz-adv-x="1290" d="M49 0l305 1434h492q122 0 211 -31.5t146.5 -86t85.5 -129t28 -161.5q0 -106 -37 -202.5t-115 -169.5t-198 -116.5t-287 -43.5h-201l-104 -494h-326zM532 739h148q77 0 132.5 21.5t91.5 58t53.5 84.5t17.5 101q0 83 -56 132.5t-165 49.5h-127z" />
<glyph unicode="Q" horiz-adv-x="1554" d="M111 590q0 93 16 183.5t48 174.5t80.5 159.5t113.5 139.5q48 45 104 84t123 67t145.5 44t171.5 16q134 0 244 -42.5t189 -122.5t122 -195t43 -260q0 -128 -33.5 -256t-99.5 -239t-163.5 -196.5t-225.5 -128.5q40 -53 78 -87t80 -54t90 -28t107 -8q32 0 74.5 6.5 t74.5 18.5l-58 -272q-34 -9 -92 -18t-139 -9q-98 0 -173.5 32t-138.5 87.5t-119 130t-114 160.5q-133 9 -235 60.5t-171.5 133.5t-105.5 189.5t-36 229.5zM453 596q0 -81 20.5 -145t58.5 -107.5t91.5 -66.5t119.5 -23q85 0 160 37.5t127 103.5q34 42 60 94t43.5 108 t26.5 115.5t9 116.5q0 81 -19.5 145t-57 109t-91.5 69t-122 24q-81 0 -154 -35.5t-127 -100.5q-36 -43 -63 -95t-45.5 -109.5t-27.5 -118.5t-9 -121z" />
<glyph unicode="R" horiz-adv-x="1311" d="M49 0l305 1434h490q125 0 213 -29.5t143 -80t80 -116.5t25 -139q0 -91 -33 -164.5t-90 -127.5t-133.5 -88t-163.5 -46v-4q62 -20 106 -76t66 -149l100 -414h-346l-78 369q-18 89 -63 134.5t-123 45.5h-55l-117 -549h-326zM543 793h131q74 0 128 18.5t89 49t52.5 71 t17.5 84.5q0 83 -49 129.5t-148 46.5h-135z" />
<glyph unicode="S" horiz-adv-x="1100" d="M29 76l55 284q37 -27 80.5 -51t91 -42t98.5 -28t103 -10q57 0 97 12.5t65 34.5t36 51t11 62t-10.5 59.5t-34.5 51t-63.5 51t-96.5 59.5q-61 34 -111 73.5t-86 88t-56 108t-20 132.5q0 83 31 163t97 143t168.5 101.5t244.5 38.5q59 0 114 -6.5t105 -17.5t94 -25t80 -29 l-55 -278q-31 19 -68.5 37.5t-80 32.5t-89.5 23t-98 9q-57 0 -96 -15.5t-62 -38.5t-33 -49.5t-10 -49.5q0 -33 10.5 -60.5t33 -53t59 -52t88.5 -58.5q68 -42 120.5 -84.5t89.5 -91t56 -105.5t19 -128q0 -41 -9.5 -90t-32.5 -98.5t-63.5 -95.5t-101.5 -81t-146.5 -56.5 t-199.5 -21.5q-64 0 -124.5 8.5t-115 23t-101.5 32.5t-83 37z" />
<glyph unicode="T" horiz-adv-x="1202" d="M164 1171l57 263h1139l-57 -263h-404l-248 -1171h-325l247 1171h-409z" />
<glyph unicode="U" horiz-adv-x="1481" d="M150 459q0 52 8 114.5t20 116.5l160 744h326l-162 -746q-11 -53 -20 -106t-9 -90q0 -58 17.5 -102.5t49 -74.5t74 -45.5t91.5 -15.5q57 0 106 17t88 56t69 103.5t50 159.5l182 844h326l-183 -850q-30 -141 -77 -254t-124.5 -192t-192.5 -121t-281 -42q-120 0 -216 33 t-163 95.5t-103 152t-36 203.5z" />
<glyph unicode="V" horiz-adv-x="1366" d="M199 1434h331l97 -992q3 -36 3 -72q0 -3 1 -5q0 -33 -6 -62h8q9 29 23.5 65t35.5 78l498 988h356l-807 -1434h-356z" />
<glyph unicode="W" horiz-adv-x="2064" d="M201 1434h340l10 -951q1 -17 -0.5 -39t-4.5 -44t-6 -41.5l-5 -32.5h6q4 15 11 35.5t15.5 43t18 44t16.5 36.5l461 949h342l47 -961q1 -14 0.5 -32.5t-1.5 -38.5t-3 -39.5t-4 -34.5h4q4 14 10.5 34t14 41t15 41t13.5 35l397 955h338l-686 -1434h-344l-61 930q-1 15 0.5 36 t4 43t5.5 42.5t6 35.5h-4q-5 -16 -12.5 -37t-15.5 -43t-16 -42t-15 -35l-455 -930h-369z" />
<glyph unicode="X" horiz-adv-x="1341" d="M-111 0l615 739l-277 695h377l127 -441q3 -12 5.5 -27.5t4 -31.5t2 -30t0.5 -23h5q3 8 8 20.5t12 27.5t14.5 29.5t16.5 26.5l342 449h377l-590 -725l284 -709h-366l-144 455q-4 11 -6.5 26t-4 30.5t-2.5 30t-1 23.5h-4q-8 -17 -20.5 -48t-30.5 -56l-344 -461h-400z" />
<glyph unicode="Y" horiz-adv-x="1245" d="M193 1434h350l114 -545q8 -34 9.5 -63t3.5 -52h2q11 28 24.5 57t28.5 54l350 549h363l-662 -914l-108 -520h-326l109 514z" />
<glyph unicode="Z" horiz-adv-x="1243" d="M-70 0l39 186l922 985h-660l56 263h1102l-39 -181l-910 -991h701l-56 -262h-1155z" />
<glyph unicode="[" horiz-adv-x="758" d="M53 -326l373 1760h473l-41 -201h-219l-289 -1358h219l-43 -201h-473z" />
<glyph unicode="\" horiz-adv-x="895" d="M170 1434h274l342 -1672h-270z" />
<glyph unicode="]" horiz-adv-x="758" d="M-139 -326l43 201h215l289 1358h-218l41 201h474l-373 -1760h-471z" />
<glyph unicode="^" horiz-adv-x="1450" d="M250 610l430 848h162l452 -848h-241l-287 586h-6l-268 -586h-242z" />
<glyph unicode="_" horiz-adv-x="850" d="M-176 -297l24 119h850l-24 -119h-850z" />
<glyph unicode="`" horiz-adv-x="899" d="M291 1511h264l209 -325h-213z" />
<glyph unicode="a" horiz-adv-x="1214" d="M61 371q0 47 10.5 115.5t38 144t76.5 150t125.5 134.5t185 97t255.5 37q57 0 114.5 -4.5t113 -12t107.5 -17.5t97 -20l-140 -657q-7 -31 -13.5 -75t-12 -91.5t-9 -93t-3.5 -78.5h-320q0 15 1.5 38.5t3.5 48t4.5 48t4.5 39.5h-4q-29 -39 -60 -75t-69 -63.5t-84.5 -44 t-107.5 -16.5q-75 0 -133.5 27t-98.5 78t-61 124.5t-21 166.5zM379 389q0 -37 7.5 -68.5t23.5 -54.5t39.5 -36t54.5 -13q57 0 101.5 33t78 84.5t56 116t36.5 127.5l53 239q-23 5 -51 7.5t-53 2.5q-69 0 -121 -23t-90.5 -60t-64.5 -84t-41.5 -95.5t-22 -94.5t-6.5 -81z" />
<glyph unicode="b" horiz-adv-x="1214" d="M37 86l303 1430h319l-96 -451q-4 -21 -10.5 -48l-13 -54t-12.5 -51.5t-11 -41.5h8q29 39 62 72t72.5 57t85.5 37t100 13q68 0 124.5 -24t97.5 -72t64 -120t23 -167q0 -60 -12 -134.5t-41.5 -151.5t-79.5 -149.5t-125.5 -129.5t-179.5 -91.5t-242 -34.5q-58 0 -117.5 7.5 t-116 22t-108.5 35t-94 46.5zM385 223q22 -11 57.5 -18.5t75.5 -7.5q51 0 94 18.5t78.5 51t62.5 75t45.5 91t28 99.5t9.5 99q0 81 -32 128.5t-104 47.5q-48 0 -89.5 -28t-75 -74.5t-58.5 -106.5t-39 -125z" />
<glyph unicode="c" horiz-adv-x="946" d="M61 397q0 86 19.5 167.5t56.5 153.5t91.5 133t125 105t156 68.5t184.5 24.5q46 0 87 -5.5t75 -14t60 -19t42 -19.5l-57 -248q-34 26 -88 45t-117 19q-73 0 -132 -34t-100 -88t-63 -121t-22 -132q0 -103 48 -159t144 -56q30 0 62.5 6t64.5 16.5t61.5 23.5t53.5 28 l-49 -242q-68 -35 -145 -54.5t-154 -19.5q-100 0 -175.5 31t-126.5 87t-76.5 133.5t-25.5 170.5z" />
<glyph unicode="d" horiz-adv-x="1214" d="M61 367q0 135 45 258.5t130.5 217.5t208.5 150t280 56q40 0 81.5 -4t67.5 -9l103 480h315l-248 -1178q-7 -31 -13.5 -75t-12 -91.5t-9 -93t-3.5 -78.5h-320q0 14 1.5 37.5t4 48.5t5 48.5t3.5 37.5h-4q-31 -44 -64.5 -80t-72 -62t-83.5 -40.5t-99 -14.5q-74 0 -132.5 26 t-99.5 75.5t-62.5 123t-21.5 167.5zM379 389q0 -37 8 -68.5t23.5 -54.5t40 -36t57.5 -13q55 0 98.5 32.5t77 85t56.5 118t38 131.5l51 231q-23 6 -50.5 9t-53.5 3q-69 0 -121 -23t-90.5 -60.5t-64.5 -85t-41.5 -96t-22 -94t-6.5 -79.5z" />
<glyph unicode="e" horiz-adv-x="1065" d="M61 399q0 131 43.5 249t124 207t194 141.5t253.5 52.5q101 0 172 -24t116 -64.5t66 -92.5t21 -108q0 -79 -33.5 -145t-112 -114t-208.5 -75.5t-324 -30.5q-2 -6 -2 -10.5v-9.5q0 -31 10 -62t34.5 -56t64.5 -40.5t100 -15.5q36 0 78.5 6.5t86.5 19t87.5 30t80.5 38.5 l-49 -236q-31 -16 -71 -31t-86.5 -27t-99 -19t-107.5 -7q-116 0 -199 34t-136.5 91.5t-78.5 134.5t-25 164zM393 590h16q169 0 253 41q88 43 88 125q0 37 -27.5 61.5t-77.5 24.5q-44 0 -84.5 -19t-74 -52.5t-57.5 -80t-36 -100.5z" />
<glyph unicode="f" horiz-adv-x="768" d="M10 -340l242 1131h-174l51 233h172l33 147q42 187 156.5 278t310.5 91q51 0 102.5 -8t85.5 -19l-49 -243q-28 11 -61.5 19.5t-65.5 8.5q-71 0 -109 -39t-57 -122l-24 -113h233l-49 -233h-238l-243 -1131h-316z" />
<glyph unicode="g" horiz-adv-x="1214" d="M-33 -406l56 254q63 -42 138 -69t158 -27q78 0 136.5 21t101 62t70.5 101.5t45 139.5l18 90h-4q-26 -39 -57 -73.5t-68.5 -60.5t-83 -41.5t-102.5 -15.5q-78 0 -136.5 28.5t-98 79.5t-59.5 122t-20 157t18.5 170.5t55.5 161t93 141.5t130.5 112.5t167.5 74.5t205 27 q62 0 123.5 -4.5t120 -12t111.5 -17t98 -18.5l-185 -874q-28 -134 -75 -245t-127 -190.5t-201 -124t-297 -44.5q-97 0 -179 20.5t-153 54.5zM379 389q0 -37 7.5 -68.5t23.5 -54.5t39.5 -36t54.5 -13q40 0 73.5 16t61 43.5t49 63.5t38.5 76t29.5 81t20.5 78l53 242 q-23 5 -53.5 7.5t-64.5 2.5q-69 0 -129.5 -34t-105.5 -93t-71 -139t-26 -172z" />
<glyph unicode="h" d="M16 0l322 1516h319l-147 -689h4q37 48 81.5 88.5t94 70t102 46.5t103.5 17q125 0 190.5 -69.5t65.5 -199.5q0 -15 -3 -40t-7.5 -52t-9.5 -52.5t-9 -43.5l-125 -592h-317l123 584q6 32 12 66t6 52q0 50 -25.5 77.5t-74.5 27.5q-39 0 -82.5 -24.5t-82.5 -65.5t-70 -96 t-44 -117l-106 -504h-320z" />
<glyph unicode="i" horiz-adv-x="650" d="M79 217q0 22 2.5 49t6.5 56.5t9.5 60t11.5 58.5q4 17 13.5 62.5t22 104.5t26.5 124.5t26.5 124.5t22 104.5t13.5 62.5h320l-122 -576q-8 -35 -17 -78.5t-9 -75.5q0 -38 24 -53t55 -15q26 0 52.5 5.5t48.5 14.5q-13 -60 -25 -118.5t-25 -118.5q-18 -5 -41.5 -10t-50 -9.5 t-55 -7t-56.5 -2.5q-67 0 -114.5 17.5t-78.5 49t-45.5 75t-14.5 95.5zM272 1337q0 39 14.5 70t40 53.5t60.5 34.5t76 12q38 0 70 -11.5t55.5 -32t37 -48.5t13.5 -61q0 -39 -15 -70t-40.5 -53.5t-60 -34.5t-74.5 -12q-38 0 -70.5 11.5t-56 32t-37 48.5t-13.5 61z" />
<glyph unicode="j" horiz-adv-x="538" d="M-344 -449l51 242q9 -6 21.5 -12t27 -10.5t29.5 -7.5t27 -3q75 0 127 61t81 199l213 1004h320l-207 -971q-23 -108 -61.5 -205t-101 -170t-152.5 -116t-215 -43q-44 0 -88 9t-72 23zM272 1337q0 39 14.5 70t40 53.5t60.5 34.5t76 12q38 0 70 -11.5t55.5 -32t37 -48.5 t13.5 -61q0 -39 -15 -70t-40.5 -53.5t-60 -34.5t-74.5 -12q-38 0 -70.5 11.5t-56 32t-37 48.5t-13.5 61z" />
<glyph unicode="k" horiz-adv-x="1151" d="M16 0l322 1516h319l-200 -936h4l407 444h375l-479 -483l264 -541h-352l-225 532h-5l-112 -532h-318z" />
<glyph unicode="l" horiz-adv-x="650" d="M79 217q0 22 2.5 49t6.5 56.5t9.5 60t11.5 58.5q3 13 13.5 63.5t26.5 124.5t35 164.5t39.5 185t39.5 185t35 164.5t26.5 124.5t13.5 63.5h320l-227 -1068q-8 -35 -17 -78.5t-9 -75.5q0 -38 24 -53t55 -15q26 0 52.5 5.5t48.5 14.5q-13 -60 -25 -118.5t-25 -118.5 q-18 -5 -41.5 -10t-50 -9.5t-55 -7t-56.5 -2.5q-67 0 -114.5 17.5t-78.5 49t-45.5 75t-14.5 95.5z" />
<glyph unicode="m" horiz-adv-x="1866" d="M16 0l152 702q9 46 18 92.5t16 89t12.5 79t8.5 61.5h312q-3 -28 -6.5 -58.5t-7 -58.5t-6.5 -49.5t-5 -30.5h4q37 48 80.5 88.5t91.5 70t99 46.5t102 17q120 0 181 -62t71 -172q38 52 83 95t96 74t106 48t112 17q127 0 191.5 -69.5t64.5 -199.5q0 -15 -3 -40t-7.5 -52 t-9.5 -52.5t-9 -43.5l-125 -592h-317l125 584q6 32 12 66t6 52q0 50 -24 77.5t-74 27.5q-38 0 -81 -26t-81.5 -68t-68 -96t-41.5 -111l-105 -506h-319l125 584q6 32 12 66t6 52q0 50 -24.5 77.5t-73.5 27.5q-39 0 -82 -26t-81 -68.5t-67 -96.5t-41 -110l-108 -506h-320z" />
<glyph unicode="n" d="M16 0l152 702q9 46 18 92.5t16 89t12.5 79t8.5 61.5h312q-3 -28 -6.5 -58.5t-7 -58.5t-6.5 -49.5t-5 -30.5h4q35 46 79 86.5t93.5 70.5t102.5 47.5t106 17.5q127 0 191.5 -70.5t64.5 -198.5q0 -15 -3 -40t-7.5 -52t-9.5 -52.5t-9 -43.5l-125 -592h-317l123 584 q6 32 12 66t6 52q0 48 -24.5 76.5t-73.5 28.5q-41 0 -85.5 -25.5t-83.5 -67.5t-68.5 -96.5t-41.5 -111.5l-106 -506h-322z" />
<glyph unicode="o" horiz-adv-x="1178" d="M61 408q0 74 15 150.5t46.5 147.5t80.5 133.5t117 109t155.5 73.5t196.5 27q107 0 189.5 -30.5t139 -87t86 -136t29.5 -177.5q0 -71 -14 -146t-44 -146.5t-77.5 -135.5t-115 -111.5t-156 -75.5t-201.5 -28q-114 0 -198.5 33t-139.5 91t-82 137.5t-27 171.5zM379 408 q0 -91 42.5 -141t110.5 -50q65 0 114.5 35t83 91.5t50.5 127.5t17 143q0 42 -10 77.5t-29.5 61t-47.5 40t-65 14.5q-63 0 -112.5 -36t-83.5 -93t-52 -128t-18 -142z" />
<glyph unicode="p" horiz-adv-x="1214" d="M-86 -471l246 1157q6 31 14 76.5t15 93.5t13 93t7 75h311q-1 -15 -3 -38.5t-5 -48.5t-6.5 -48.5t-5.5 -38.5h4q28 42 63 78t77.5 63t93 42.5t108.5 15.5q68 0 124.5 -25t97 -73.5t63 -119t22.5 -161.5q0 -84 -18 -168.5t-53.5 -162t-89.5 -144t-126 -115.5t-162.5 -77 t-199.5 -28q-40 0 -88 6t-82 15l-101 -467h-319zM375 215q12 -4 28.5 -7t34 -5.5t34.5 -4t30 -1.5q74 0 135.5 36.5t105.5 97t68.5 139.5t24.5 163q0 35 -6.5 66.5t-22.5 55.5t-41.5 38t-63.5 14q-56 0 -101 -32.5t-79 -84t-57.5 -115t-36.5 -126.5z" />
<glyph unicode="q" horiz-adv-x="1214" d="M61 369q0 63 13.5 138t44.5 150.5t82.5 146t127.5 125t178.5 87.5t235.5 33q74 0 139.5 -6t121.5 -15.5t101 -20.5t77 -20l-310 -1458h-317l90 430q5 21 11.5 48.5t13 55.5t13.5 53t11 42h-4q-28 -39 -61.5 -72.5t-72 -58t-83.5 -38.5t-96 -14q-75 0 -133.5 26.5 t-99 77.5t-62 124t-21.5 166zM379 393q0 -38 7 -70.5t22.5 -56t39.5 -36.5t58 -13q40 0 73 15.5t60 42t48.5 61.5t38 73t28.5 77.5t20 74.5l53 252q-23 6 -50 10t-58 4q-63 0 -113 -21.5t-88 -57.5t-64.5 -82t-43 -94t-24 -94.5t-7.5 -84.5z" />
<glyph unicode="r" horiz-adv-x="819" d="M16 0l140 653q10 47 19.5 97t18 98.5t15 93.5t10.5 82h313q-3 -29 -6.5 -60t-7 -59.5t-7 -51.5t-5.5 -36h4q62 115 130.5 173.5t158.5 58.5q26 0 51 -5t45 -8l-64 -303h-2q-21 11 -53.5 20t-60.5 9q-59 0 -106 -26.5t-83 -71.5t-60.5 -105.5t-39.5 -128.5l-90 -430h-320z " />
<glyph unicode="s" horiz-adv-x="899" d="M4 29l47 241q26 -14 60 -28t72.5 -25.5t79.5 -19t81 -7.5q75 0 111.5 26t36.5 71q0 38 -28 66.5t-97 60.5q-57 27 -100.5 56t-73.5 64t-45 78t-15 97q0 57 22.5 117.5t74.5 110t137.5 81t210.5 31.5q38 0 78 -3.5t78 -9.5t72 -14t60 -16l-49 -238q-21 11 -49 22t-59.5 20 t-64.5 15t-64 6q-73 0 -104.5 -28t-31.5 -68q0 -41 31 -67t82 -52q60 -29 105 -58t75 -64t45 -78.5t15 -100.5q0 -61 -25 -122t-81 -109.5t-147.5 -78.5t-224.5 -30q-38 0 -81 4t-85 11t-80.5 17t-68.5 22z" />
<glyph unicode="t" horiz-adv-x="768" d="M63 791l56 233h151l52 240l333 82l-67 -322h243l-55 -233h-239l-82 -383q-2 -13 -5 -28t-5.5 -30t-4.5 -28.5t-2 -22.5q0 -40 20 -59t66 -19q12 0 30.5 3t38 8t37.5 10.5t29 9.5l-49 -234q-18 -7 -44 -14t-57 -13t-64.5 -10t-65.5 -4q-76 0 -127 19.5t-81.5 54t-43 80.5 t-12.5 100q0 16 2 37t5.5 43t8 44.5t8.5 41.5l82 394h-158z" />
<glyph unicode="u" d="M66 244q0 15 3 40t7.5 52t9 52.5t8.5 43.5l125 592h318l-123 -578q-4 -16 -7.5 -34t-6 -35t-4 -31t-1.5 -22q0 -44 24 -70.5t70 -26.5q50 0 97 28t85 73t65.5 101t39.5 112l103 483h319l-147 -684q-9 -45 -17 -93.5t-14 -93.5t-10 -84.5t-6 -68.5h-320q3 29 6.5 59 t7.5 56.5t7 47.5t4 30h-4q-39 -49 -83.5 -89t-93 -68.5t-100 -44.5t-104.5 -16q-127 0 -192.5 70.5t-65.5 198.5z" />
<glyph unicode="v" horiz-adv-x="1092" d="M115 1024h315l41 -567q2 -19 3.5 -46t2.5 -56t1.5 -57.5t-1.5 -49.5h4q8 21 19 46.5t23 53t24.5 55t23.5 52.5l275 569h348l-592 -1024h-352z" />
<glyph unicode="w" horiz-adv-x="1628" d="M117 1024h303v-666q0 -23 -2.5 -58t-7.5 -58h6q4 10 9.5 26t11.5 33.5t12 34.5t12 29l311 659h305l19 -664q0 -11 -0.5 -28t-2 -34.5t-3.5 -33t-3 -24.5h7q3 10 8 26t11 34t12 34t10 26l268 664h307l-510 -1024h-328l-24 606q0 31 2.5 69t5.5 62h-4q-4 -15 -9.5 -32 t-12 -35t-13 -34.5t-12.5 -29.5l-285 -606h-334z" />
<glyph unicode="x" horiz-adv-x="1122" d="M-104 0l456 518l-219 506h352l84 -270q10 -26 17 -56.5t10 -50.5h4q12 22 32 51.5t36 51.5l200 274h359l-447 -510l228 -514h-351l-92 268q-8 23 -15 49.5t-13 51.5h-5q-15 -25 -30 -51t-31 -46l-203 -272h-372z" />
<glyph unicode="y" horiz-adv-x="1102" d="M-160 -453l54 244q21 -15 52 -23t62 -8q59 0 110 27.5t89 89.5l82 129l-199 1018h332l72 -623q3 -34 4 -73v-19q0 -26 -2 -45h4q9 25 23 62t34 75l313 623h332l-651 -1114q-51 -89 -105.5 -161.5t-118.5 -123.5t-141.5 -78.5t-175.5 -27.5q-34 0 -81.5 6.5t-88.5 21.5z " />
<glyph unicode="z" horiz-adv-x="995" d="M-84 0l27 133l645 658h-453l49 233h877l-35 -160l-606 -631h475l-49 -233h-930z" />
<glyph unicode="{" horiz-adv-x="758" d="M82 446l41 187q78 0 123.5 39.5t62.5 126.5l53 252q19 87 47.5 149t65 105t80.5 68t93 39t102.5 18t109.5 4l-39 -189q-43 0 -75 -9.5t-56 -31t-40 -56t-27 -85.5l-54 -248q-24 -112 -76.5 -189t-134.5 -102v-4q41 -23 69 -70.5t28 -121.5q0 -53 -13 -115l-47 -215 q-5 -19 -6.5 -36.5t-1.5 -31.5q0 -114 129 -114l-39 -187q-99 0 -165.5 21.5t-106.5 59t-57 87.5t-17 107q0 26 4 54.5t10 59.5l52 238q5 19 6.5 35.5t1.5 32.5q0 62 -33 92t-90 30z" />
<glyph unicode="|" horiz-adv-x="668" d="M229 -481v2048h252v-2048h-252z" />
<glyph unicode="}" horiz-adv-x="758" d="M-106 -369l40 189q42 0 74.5 10t56.5 31.5t40.5 56.5t27.5 86l51 248q25 111 77.5 188.5t133.5 102.5v4q-40 23 -68 70t-28 122q0 25 3 53t11 62l45 213q5 19 7 36.5t2 31.5q0 114 -129 114l38 187q99 0 166 -21t107 -57.5t57 -86t17 -106.5q0 -26 -3.5 -57t-11.5 -61 l-51 -236q-5 -19 -6.5 -35.5t-1.5 -32.5q0 -63 33 -94t90 -31l-39 -184q-81 0 -125.5 -40.5t-63.5 -125.5l-53 -252q-18 -87 -47 -150t-65.5 -105.5t-80 -68t-93 -39.5t-102.5 -18t-109 -4z" />
<glyph unicode="~" horiz-adv-x="1450" d="M207 399q3 75 23 141t58.5 116t97 79t138.5 29q38 0 70 -6t60.5 -16.5t55 -24.5t52.5 -29q30 -18 54 -32.5t45 -24.5t40.5 -15.5t40.5 -5.5q28 0 50 12.5t37.5 34t24 51.5t9.5 64h205q-2 -81 -24 -148t-62 -115t-97 -74.5t-129 -26.5q-39 0 -71.5 6.5t-63 18t-60.5 28 t-65 35.5q-37 21 -76 42t-79 21q-33 0 -56.5 -13t-39 -35.5t-23 -51t-8.5 -60.5h-207z" />
<glyph unicode="&#xa2;" horiz-adv-x="1180" d="M174 571q0 174 68.5 307.5t185.5 221.5q74 54 168 85t195 36l43 200h161l-45 -207q57 -8 101 -20.5t67 -28.5l-53 -254q-28 23 -71.5 39.5t-94.5 24.5l-123 -576q54 8 104 25.5t97 46.5l-53 -246q-38 -23 -88 -40t-109 -25l-43 -197h-162l41 189q-95 7 -168 40.5 t-122 88.5t-74 129t-25 161zM481 612q0 -42 10.5 -75t28.5 -58t43 -42t55 -27l119 559q-94 -23 -157 -86q-47 -48 -73 -117t-26 -154z" />
<glyph unicode="&#xa3;" horiz-adv-x="1180" d="M12 0l49 229q110 26 168.5 91t81.5 172l27 120h-174l45 217h174l39 183q21 100 67 182t114.5 140.5t158.5 91t199 32.5q72 0 133 -15t96 -34l-55 -266q-16 13 -38 25t-48 21t-54 14t-57 5q-91 0 -149 -57t-82 -178l-29 -144h262l-47 -217h-262l-23 -102 q-18 -88 -69.5 -155.5t-128.5 -110.5h626l-51 -244h-973z" />
<glyph unicode="&#xa5;" horiz-adv-x="1180" d="M72 262l39 189h313l35 153h-316l41 189h256l-207 641h314l106 -490q8 -29 13 -48t8 -38h4q11 20 24.5 41t30.5 49l307 486h310l-490 -641h250l-39 -189h-305l-33 -153h305l-39 -189h-305l-57 -262h-307l55 262h-313z" />
<glyph unicode="&#xa8;" horiz-adv-x="899" d="M223 1325q0 30 12 55t33 42.5t49.5 27.5t61.5 10q34 0 62 -10t48.5 -28t31.5 -43t11 -54t-11 -54.5t-31 -44t-48 -29.5t-63 -11q-34 0 -63 11t-49.5 30t-32 44.5t-11.5 53.5zM682 1325q0 30 11.5 55t32.5 42.5t49 27.5t61 10q34 0 62 -10t48.5 -28t31.5 -43t11 -54 t-10.5 -54.5t-30.5 -44t-48.5 -29.5t-63.5 -11t-63.5 11t-48.5 30t-31 44.5t-11 53.5z" />
<glyph unicode="&#xa9;" horiz-adv-x="1792" d="M168 713q0 104 26 200t75 178.5t117.5 150t154.5 116t186 74.5t211 26q159 0 297.5 -53t241.5 -150t162 -233t59 -303q0 -106 -27 -202.5t-76 -179t-119 -149.5t-155 -114.5t-184 -73t-207 -25.5q-166 0 -306 54.5t-241 152.5t-158 233.5t-57 297.5zM301 715 q0 -139 49.5 -254.5t135 -199t201 -129.5t247.5 -46q129 0 243.5 47t201 130.5t136.5 199t50 252.5t-48 252t-133 198.5t-200.5 130.5t-249.5 47q-141 0 -258 -49t-200 -134t-129 -199.5t-46 -245.5zM483 696q0 119 39.5 213.5t109 160.5t164 101t203.5 35q73 0 134 -16.5 t106 -38.5v-236q-42 35 -107 55.5t-137 20.5q-50 0 -98.5 -17t-86.5 -52t-61.5 -88t-23.5 -125q0 -64 22 -115t60 -86t88 -53.5t106 -18.5q32 0 65 5.5t64.5 15.5t60 24t50.5 31v-217q-53 -28 -122 -48t-152 -20q-105 0 -194 36t-153.5 99t-100.5 148.5t-36 185.5z" />
<glyph unicode="&#xab;" horiz-adv-x="1200" d="M55 537l375 340h283l-387 -357l247 -323h-260zM551 537l373 340h284l-387 -357l248 -323h-262z" />
<glyph unicode="&#xad;" horiz-adv-x="827" d="M119 436l47 221h547l-47 -221h-547z" />
<glyph unicode="&#xae;" horiz-adv-x="1792" d="M168 713q0 104 26 200t75 178.5t117.5 150t154.5 116t186 74.5t211 26q159 0 297.5 -53.5t241.5 -150.5t162 -233.5t59 -303.5q0 -106 -27 -202t-76 -178.5t-119 -149.5t-155 -114t-184 -72.5t-207 -25.5q-166 0 -306 54.5t-241 152.5t-158 233.5t-57 297.5zM301 715 q0 -139 49.5 -254.5t135 -199t201 -129.5t247.5 -46q129 0 243.5 47t201 130.5t136.5 198.5t50 251q0 137 -48 252.5t-133 199.5t-200.5 131t-249.5 47q-141 0 -258 -49t-200 -134t-129 -199.5t-46 -245.5zM600 264v922h320q110 0 181.5 -23t113.5 -60t58.5 -84t16.5 -95 t-16 -87t-44.5 -70t-68.5 -53t-88 -34v-4q41 -9 77 -42t64 -104l111 -266h-254l-76 232q-8 25 -19.5 47.5t-25.5 39t-30.5 26t-34.5 9.5h-74v-354h-211zM811 780h111q36 0 62 10t42.5 26.5t24.5 38t8 44.5h2q0 26 -7.5 47t-26 35t-49.5 21.5t-77 7.5h-90v-230z" />
<glyph unicode="&#xb4;" horiz-adv-x="899" d="M375 1186l315 325h289l-369 -325h-235z" />
<glyph unicode="&#xb8;" horiz-adv-x="899" d="M80 -451l31 138q42 -9 75 -9q66 0 103 21.5t37 56.5q0 64 -111 64h-22t-25 -2l43 182h154l-19 -82q40 -2 73.5 -11.5t57.5 -27.5t37.5 -45t13.5 -63q0 -45 -20 -86t-62 -72.5t-105.5 -50.5t-150.5 -19q-30 0 -57.5 2t-52.5 4z" />
<glyph unicode="&#xbb;" horiz-adv-x="1200" d="M-8 201l387 356l-248 324h262l256 -340l-373 -340h-284zM487 201l387 356l-247 324h260l258 -340l-375 -340h-283z" />
<glyph unicode="&#xc0;" horiz-adv-x="1440" d="M-102 0l827 1434h385l205 -1434h-330l-41 319h-514l-168 -319h-364zM551 567h369l-52 484q-1 16 -1.5 35.5t0 37.5t1.5 32.5t2 21.5h-6q-2 -9 -7 -23t-11.5 -30.5t-15 -34.5t-17.5 -35zM663 1891h264l209 -325h-213z" />
<glyph unicode="&#xc2;" horiz-adv-x="1440" d="M-102 0l827 1434h385l205 -1434h-330l-41 319h-514l-168 -319h-364zM551 567h369l-52 484q-1 16 -1.5 35.5t0 37.5t1.5 32.5t2 21.5h-6q-2 -9 -7 -23t-11.5 -30.5t-15 -34.5t-17.5 -35zM560 1564l303 327h250l168 -327h-197l-116 190l-197 -190h-211z" />
<glyph unicode="&#xc6;" horiz-adv-x="1933" d="M-143 0l1083 1434h1065l-55 -263h-504l-68 -323h467l-55 -264h-467l-70 -322h535l-55 -262h-859l68 319h-477l-229 -319h-379zM653 586h344l125 588h-51z" />
<glyph unicode="&#xc7;" horiz-adv-x="1300" d="M104 598q0 113 24 220.5t72.5 203t122 175.5t173 138t226 90.5t279.5 32.5q58 0 112 -6t103 -15.5t90.5 -21t73.5 -22.5l-67 -306q-30 16 -64.5 32t-75.5 28.5t-88.5 20.5t-103.5 8q-130 0 -229.5 -44.5t-167.5 -119.5t-103 -174t-35 -209q0 -91 27 -161t77 -117.5 t120 -72t157 -24.5q55 0 103 7.5t91 20t81.5 28.5t73.5 34l-68 -305q-74 -31 -163.5 -47.5t-201.5 -16.5q-150 0 -269 44.5t-201 126.5t-125.5 196.5t-43.5 255.5zM481 -451l31 138q42 -9 75 -9q66 0 103 21.5t37 56.5q0 64 -111 64h-22t-25 -2l43 182h154l-19 -82 q40 -2 73.5 -11.5t57.5 -27.5t37.5 -45t13.5 -63q0 -45 -20 -86t-62 -72.5t-105.5 -50.5t-150.5 -19q-30 0 -57.5 2t-52.5 4z" />
<glyph unicode="&#xc8;" horiz-adv-x="1085" d="M49 0l305 1434h826l-56 -263h-501l-68 -323h467l-57 -264h-465l-70 -322h535l-56 -262h-860zM536 1890h264l209 -325h-213z" />
<glyph unicode="&#xc9;" horiz-adv-x="1085" d="M49 0l305 1434h826l-56 -263h-501l-68 -323h467l-57 -264h-465l-70 -322h535l-56 -262h-860zM607 1565l315 325h289l-369 -325h-235z" />
<glyph unicode="&#xca;" horiz-adv-x="1085" d="M49 0l305 1434h826l-56 -263h-501l-68 -323h467l-57 -264h-465l-70 -322h535l-56 -262h-860zM423 1565l303 327h250l168 -327h-197l-116 190l-197 -190h-211z" />
<glyph unicode="&#xcb;" horiz-adv-x="1085" d="M49 0l305 1434h826l-56 -263h-501l-68 -323h467l-57 -264h-465l-70 -322h535l-56 -262h-860zM410 1706q0 30 12 55t33 42.5t49.5 27.5t61.5 10q34 0 62 -10t48.5 -28t31.5 -43t11 -54t-11 -54.5t-31 -44t-48 -29.5t-63 -11q-34 0 -63 11t-49.5 30t-32 44.5t-11.5 53.5z M869 1706q0 30 11.5 55t32.5 42.5t49 27.5t61 10q34 0 62 -10t48.5 -28t31.5 -43t11 -54t-10.5 -54.5t-30.5 -44t-48.5 -29.5t-63.5 -11t-63.5 11t-48.5 30t-31 44.5t-11 53.5z" />
<glyph unicode="&#xce;" horiz-adv-x="649" d="M49 0l303 1434h326l-303 -1434h-326zM165 1565l303 327h250l168 -327h-197l-116 190l-197 -190h-211z" />
<glyph unicode="&#xcf;" horiz-adv-x="649" d="M49 0l303 1434h326l-303 -1434h-326zM156 1706q0 30 12 55t33 42.5t49.5 27.5t61.5 10q34 0 62 -10t48.5 -28t31.5 -43t11 -54t-11 -54.5t-31 -44t-48 -29.5t-63 -11q-34 0 -63 11t-49.5 30t-32 44.5t-11.5 53.5zM615 1706q0 30 11.5 55t32.5 42.5t49 27.5t61 10 q34 0 62 -10t48.5 -28t31.5 -43t11 -54t-10.5 -54.5t-30.5 -44t-48.5 -29.5t-63.5 -11t-63.5 11t-48.5 30t-31 44.5t-11 53.5z" />
<glyph unicode="&#xd4;" horiz-adv-x="1554" d="M111 592q0 93 16 183.5t48.5 174t81 159t112.5 138.5q50 48 108 86.5t125 66.5t144 43t165 15q133 0 243.5 -42t189.5 -121.5t123 -194t44 -258.5q0 -86 -15 -173t-44.5 -168.5t-74 -156.5t-103.5 -137q-50 -53 -109 -96t-128.5 -73t-150.5 -46.5t-175 -16.5 q-142 0 -253.5 47t-188.5 129.5t-117.5 195.5t-40.5 245zM453 596q0 -81 20.5 -145t58.5 -107.5t91.5 -66.5t119.5 -23q82 0 156.5 36t130.5 107q35 42 61 94.5t43 109.5t26 116t9 114q0 81 -20.5 145t-58.5 108.5t-92.5 68t-123.5 23.5q-80 0 -152 -37t-128 -103 q-34 -40 -60 -92t-44 -110t-27.5 -118.5t-9.5 -119.5zM540 1567l303 327h250l168 -327h-197l-116 190l-197 -190h-211z" />
<glyph unicode="&#xd6;" horiz-adv-x="1554" d="M111 592q0 93 16 183.5t48.5 174t81 159t112.5 138.5q50 48 108 86.5t125 66.5t144 43t165 15q133 0 243.5 -42t189.5 -121.5t123 -194t44 -258.5q0 -86 -15 -173t-44.5 -168.5t-74 -156.5t-103.5 -137q-50 -53 -109 -96t-128.5 -73t-150.5 -46.5t-175 -16.5 q-142 0 -253.5 47t-188.5 129.5t-117.5 195.5t-40.5 245zM453 596q0 -81 20.5 -145t58.5 -107.5t91.5 -66.5t119.5 -23q82 0 156.5 36t130.5 107q35 42 61 94.5t43 109.5t26 116t9 114q0 81 -20.5 145t-58.5 108.5t-92.5 68t-123.5 23.5q-80 0 -152 -37t-128 -103 q-34 -40 -60 -92t-44 -110t-27.5 -118.5t-9.5 -119.5zM559 1706q0 30 12 55t33 42.5t49.5 27.5t61.5 10q34 0 62 -10t48.5 -28t31.5 -43t11 -54t-11 -54.5t-31 -44t-48 -29.5t-63 -11q-34 0 -63 11t-49.5 30t-32 44.5t-11.5 53.5zM1018 1706q0 30 11.5 55t32.5 42.5t49 27.5 t61 10q34 0 62 -10t48.5 -28t31.5 -43t11 -54t-10.5 -54.5t-30.5 -44t-48.5 -29.5t-63.5 -11t-63.5 11t-48.5 30t-31 44.5t-11 53.5z" />
<glyph unicode="&#xd9;" horiz-adv-x="1481" d="M150 459q0 52 8 114.5t20 116.5l160 744h326l-162 -746q-11 -53 -20 -106t-9 -90q0 -58 17.5 -102.5t49 -74.5t74 -45.5t91.5 -15.5q57 0 106 17t88 56t69 103.5t50 159.5l182 844h326l-183 -850q-30 -141 -77 -254t-124.5 -192t-192.5 -121t-281 -42q-120 0 -216 33 t-163 95.5t-103 152t-36 203.5zM677 1890h264l209 -325h-213z" />
<glyph unicode="&#xdb;" horiz-adv-x="1481" d="M150 459q0 52 8 114.5t20 116.5l160 744h326l-162 -746q-11 -53 -20 -106t-9 -90q0 -58 17.5 -102.5t49 -74.5t74 -45.5t91.5 -15.5q57 0 106 17t88 56t69 103.5t50 159.5l182 844h326l-183 -850q-30 -141 -77 -254t-124.5 -192t-192.5 -121t-281 -42q-120 0 -216 33 t-163 95.5t-103 152t-36 203.5zM584 1565l303 327h250l168 -327h-197l-116 190l-197 -190h-211z" />
<glyph unicode="&#xdc;" horiz-adv-x="1481" d="M150 459q0 52 8 114.5t20 116.5l160 744h326l-162 -746q-11 -53 -20 -106t-9 -90q0 -58 17.5 -102.5t49 -74.5t74 -45.5t91.5 -15.5q57 0 106 17t88 56t69 103.5t50 159.5l182 844h326l-183 -850q-30 -141 -77 -254t-124.5 -192t-192.5 -121t-281 -42q-120 0 -216 33 t-163 95.5t-103 152t-36 203.5zM573 1705q0 30 12 55t33 42.5t49.5 27.5t61.5 10q34 0 62 -10t48.5 -28t31.5 -43t11 -54t-11 -54.5t-31 -44t-48 -29.5t-63 -11q-34 0 -63 11t-49.5 30t-32 44.5t-11.5 53.5zM1032 1705q0 30 11.5 55t32.5 42.5t49 27.5t61 10q34 0 62 -10 t48.5 -28t31.5 -43t11 -54t-10.5 -54.5t-30.5 -44t-48.5 -29.5t-63.5 -11t-63.5 11t-48.5 30t-31 44.5t-11 53.5z" />
<glyph unicode="&#xe0;" horiz-adv-x="1214" d="M61 371q0 47 10.5 115.5t38 144t76.5 150t125.5 134.5t185 97t255.5 37q57 0 114.5 -4.5t113 -12t107.5 -17.5t97 -20l-140 -657q-7 -31 -13.5 -75t-12 -91.5t-9 -93t-3.5 -78.5h-320q0 15 1.5 38.5t3.5 48t4.5 48t4.5 39.5h-4q-29 -39 -60 -75t-69 -63.5t-84.5 -44 t-107.5 -16.5q-75 0 -133.5 27t-98.5 78t-61 124.5t-21 166.5zM379 389q0 -37 7.5 -68.5t23.5 -54.5t39.5 -36t54.5 -13q57 0 101.5 33t78 84.5t56 116t36.5 127.5l53 239q-23 5 -51 7.5t-53 2.5q-69 0 -121 -23t-90.5 -60t-64.5 -84t-41.5 -95.5t-22 -94.5t-6.5 -81z M508 1511h264l209 -325h-213z" />
<glyph unicode="&#xe2;" horiz-adv-x="1214" d="M61 371q0 47 10.5 115.5t38 144t76.5 150t125.5 134.5t185 97t255.5 37q57 0 114.5 -4.5t113 -12t107.5 -17.5t97 -20l-140 -657q-7 -31 -13.5 -75t-12 -91.5t-9 -93t-3.5 -78.5h-320q0 15 1.5 38.5t3.5 48t4.5 48t4.5 39.5h-4q-29 -39 -60 -75t-69 -63.5t-84.5 -44 t-107.5 -16.5q-75 0 -133.5 27t-98.5 78t-61 124.5t-21 166.5zM371 1186l303 327h250l168 -327h-197l-116 190l-197 -190h-211zM379 389q0 -37 7.5 -68.5t23.5 -54.5t39.5 -36t54.5 -13q57 0 101.5 33t78 84.5t56 116t36.5 127.5l53 239q-23 5 -51 7.5t-53 2.5 q-69 0 -121 -23t-90.5 -60t-64.5 -84t-41.5 -95.5t-22 -94.5t-6.5 -81z" />
<glyph unicode="&#xe6;" horiz-adv-x="1761" d="M61 360q0 52 12.5 123.5t43.5 148t82 151.5t128.5 134t183 95.5t245.5 36.5q108 0 196.5 -21t147.5 -43q60 32 130.5 48t147.5 16q91 0 160 -22t115.5 -61t70 -91.5t23.5 -114.5q0 -79 -33.5 -145t-112.5 -114t-209.5 -75.5t-324.5 -30.5v-18q0 -31 10 -62.5t34 -57 t64 -41t101 -15.5q36 0 78.5 6.5t86.5 19t87.5 30t81.5 38.5l-49 -236q-31 -16 -71.5 -31t-87.5 -27t-99 -19t-107 -7q-145 0 -247 60.5t-144 179.5h-4q-33 -45 -74 -88.5t-91 -77t-111 -54t-134 -20.5q-74 0 -135 26.5t-104.5 76t-67 121t-23.5 161.5zM379 381 q0 -75 28 -119.5t80 -44.5q40 0 77.5 24t72 67t66.5 102t61 129q4 11 15.5 46t26.5 77t32 82.5t32 62.5q-20 8 -51.5 14t-60.5 6q-72 0 -128.5 -23t-98.5 -61t-71 -86t-47 -97.5t-26 -96.5t-8 -82zM1090 590q180 -2 267 41.5t87 124.5q0 37 -27.5 61.5t-75.5 24.5 q-43 0 -82.5 -18t-73 -51t-58 -79.5t-37.5 -103.5z" />
<glyph unicode="&#xe7;" horiz-adv-x="946" d="M61 397q0 86 19.5 167.5t56.5 153.5t91.5 133t125 105t156 68.5t184.5 24.5q46 0 87 -5.5t75 -14t60 -19t42 -19.5l-57 -248q-34 26 -88 45t-117 19q-73 0 -132 -34t-100 -88t-63 -121t-22 -132q0 -103 48 -159t144 -56q30 0 62.5 6t64.5 16.5t61.5 23.5t53.5 28 l-49 -242q-68 -35 -145 -54.5t-154 -19.5q-100 0 -175.5 31t-126.5 87t-76.5 133.5t-25.5 170.5zM209 -451l31 138q42 -9 75 -9q66 0 103 21.5t37 56.5q0 64 -111 64h-22t-25 -2l43 182h154l-19 -82q40 -2 73.5 -11.5t57.5 -27.5t37.5 -45t13.5 -63q0 -45 -20 -86t-62 -72.5 t-105.5 -50.5t-150.5 -19q-30 0 -57.5 2t-52.5 4z" />
<glyph unicode="&#xe8;" horiz-adv-x="1065" d="M61 399q0 131 43.5 249t124 207t194 141.5t253.5 52.5q101 0 172 -24t116 -64.5t66 -92.5t21 -108q0 -79 -33.5 -145t-112 -114t-208.5 -75.5t-324 -30.5q-2 -6 -2 -10.5v-9.5q0 -31 10 -62t34.5 -56t64.5 -40.5t100 -15.5q36 0 78.5 6.5t86.5 19t87.5 30t80.5 38.5 l-49 -236q-31 -16 -71 -31t-86.5 -27t-99 -19t-107.5 -7q-116 0 -199 34t-136.5 91.5t-78.5 134.5t-25 164zM393 590q180 -2 268.5 41t88.5 125q0 37 -27.5 61.5t-77.5 24.5q-44 0 -84.5 -19t-74 -52.5t-57.5 -80t-36 -100.5zM401 1511h264l209 -325h-213z" />
<glyph unicode="&#xe9;" horiz-adv-x="1065" d="M61 399q0 131 43.5 249t124 207t194 141.5t253.5 52.5q101 0 172 -24t116 -64.5t66 -92.5t21 -108q0 -79 -33.5 -145t-112 -114t-208.5 -75.5t-324 -30.5q-2 -6 -2 -10.5v-9.5q0 -31 10 -62t34.5 -56t64.5 -40.5t100 -15.5q36 0 78.5 6.5t86.5 19t87.5 30t80.5 38.5 l-49 -236q-31 -16 -71 -31t-86.5 -27t-99 -19t-107.5 -7q-116 0 -199 34t-136.5 91.5t-78.5 134.5t-25 164zM393 590q180 -2 268.5 41t88.5 125q0 37 -27.5 61.5t-77.5 24.5q-44 0 -84.5 -19t-74 -52.5t-57.5 -80t-36 -100.5zM470 1186l315 325h289l-369 -325h-235z" />
<glyph unicode="&#xea;" horiz-adv-x="1065" d="M61 399q0 131 43.5 249t124 207t194 141.5t253.5 52.5q101 0 172 -24t116 -64.5t66 -92.5t21 -108q0 -79 -33.5 -145t-112 -114t-208.5 -75.5t-324 -30.5q-2 -6 -2 -10.5v-9.5q0 -31 10 -62t34.5 -56t64.5 -40.5t100 -15.5q36 0 78.5 6.5t86.5 19t87.5 30t80.5 38.5 l-49 -236q-31 -16 -71 -31t-86.5 -27t-99 -19t-107.5 -7q-116 0 -199 34t-136.5 91.5t-78.5 134.5t-25 164zM319 1186l303 327h250l168 -327h-197l-116 190l-197 -190h-211zM393 590q180 -2 268.5 41t88.5 125q0 37 -27.5 61.5t-77.5 24.5q-44 0 -84.5 -19t-74 -52.5 t-57.5 -80t-36 -100.5z" />
<glyph unicode="&#xeb;" horiz-adv-x="1065" d="M61 399q0 131 43.5 249t124 207t194 141.5t253.5 52.5q101 0 172 -24t116 -64.5t66 -92.5t21 -108q0 -79 -33.5 -145t-112 -114t-208.5 -75.5t-324 -30.5q-2 -6 -2 -10.5v-9.5q0 -31 10 -62t34.5 -56t64.5 -40.5t100 -15.5q36 0 78.5 6.5t86.5 19t87.5 30t80.5 38.5 l-49 -236q-31 -16 -71 -31t-86.5 -27t-99 -19t-107.5 -7q-116 0 -199 34t-136.5 91.5t-78.5 134.5t-25 164zM297 1325q0 30 12 55t33 42.5t49.5 27.5t61.5 10q34 0 62 -10t48.5 -28t31.5 -43t11 -54t-11 -54.5t-31 -44t-48 -29.5t-63 -11q-34 0 -63 11t-49.5 30t-32 44.5 t-11.5 53.5zM393 590q180 -2 268.5 41t88.5 125q0 37 -27.5 61.5t-77.5 24.5q-44 0 -84.5 -19t-74 -52.5t-57.5 -80t-36 -100.5zM756 1325q0 30 11.5 55t32.5 42.5t49 27.5t61 10q34 0 62 -10t48.5 -28t31.5 -43t11 -54t-10.5 -54.5t-30.5 -44t-48.5 -29.5t-63.5 -11 t-63.5 11t-48.5 30t-31 44.5t-11 53.5z" />
<glyph unicode="&#xee;" horiz-adv-x="650" d="M51 1186l303 327h250l168 -327h-197l-116 190l-197 -190h-211zM79 217q0 22 2.5 49t6.5 56.5t9.5 60t11.5 58.5q4 17 13.5 62.5t22 104.5t26.5 124.5t26.5 124.5t22 104.5t13.5 62.5h320l-122 -576q-8 -35 -17 -78.5t-9 -75.5q0 -38 24 -53t55 -15q26 0 52.5 5.5 t48.5 14.5q-13 -60 -25 -118.5t-25 -118.5q-18 -5 -41.5 -10t-50 -9.5t-55 -7t-56.5 -2.5q-67 0 -114.5 17.5t-78.5 49t-45.5 75t-14.5 95.5z" />
<glyph unicode="&#xef;" horiz-adv-x="650" d="M36 1325q0 30 12 55t33 42.5t49.5 27.5t61.5 10q34 0 62 -10t48.5 -28t31.5 -43t11 -54t-11 -54.5t-31 -44t-48 -29.5t-63 -11q-34 0 -63 11t-49.5 30t-32 44.5t-11.5 53.5zM79 217q0 22 2.5 49t6.5 56.5t9.5 60t11.5 58.5q4 17 13.5 62.5t22 104.5t26.5 124.5 t26.5 124.5t22 104.5t13.5 62.5h320l-122 -576q-8 -35 -17 -78.5t-9 -75.5q0 -38 24 -53t55 -15q26 0 52.5 5.5t48.5 14.5q-13 -60 -25 -118.5t-25 -118.5q-18 -5 -41.5 -10t-50 -9.5t-55 -7t-56.5 -2.5q-67 0 -114.5 17.5t-78.5 49t-45.5 75t-14.5 95.5zM495 1325 q0 30 11.5 55t32.5 42.5t49 27.5t61 10q34 0 62 -10t48.5 -28t31.5 -43t11 -54t-10.5 -54.5t-30.5 -44t-48.5 -29.5t-63.5 -11t-63.5 11t-48.5 30t-31 44.5t-11 53.5z" />
<glyph unicode="&#xf4;" horiz-adv-x="1178" d="M61 408q0 74 15 150.5t46.5 147.5t80.5 133.5t117 109t155.5 73.5t196.5 27q107 0 189.5 -30.5t139 -87t86 -136t29.5 -177.5q0 -71 -14 -146t-44 -146.5t-77.5 -135.5t-115 -111.5t-156 -75.5t-201.5 -28q-114 0 -198.5 33t-139.5 91t-82 137.5t-27 171.5zM320 1186 l303 327h250l168 -327h-197l-116 190l-197 -190h-211zM379 408q0 -91 42.5 -141t110.5 -50q65 0 114.5 35t83 91.5t50.5 127.5t17 143q0 42 -10 77.5t-29.5 61t-47.5 40t-65 14.5q-63 0 -112.5 -36t-83.5 -93t-52 -128t-18 -142z" />
<glyph unicode="&#xf6;" horiz-adv-x="1178" d="M61 408q0 74 15 150.5t46.5 147.5t80.5 133.5t117 109t155.5 73.5t196.5 27q107 0 189.5 -30.5t139 -87t86 -136t29.5 -177.5q0 -71 -14 -146t-44 -146.5t-77.5 -135.5t-115 -111.5t-156 -75.5t-201.5 -28q-114 0 -198.5 33t-139.5 91t-82 137.5t-27 171.5zM320 1325 q0 30 12 55t33 42.5t49.5 27.5t61.5 10q34 0 62 -10t48.5 -28t31.5 -43t11 -54t-11 -54.5t-31 -44t-48 -29.5t-63 -11q-34 0 -63 11t-49.5 30t-32 44.5t-11.5 53.5zM379 408q0 -91 42.5 -141t110.5 -50q65 0 114.5 35t83 91.5t50.5 127.5t17 143q0 42 -10 77.5t-29.5 61 t-47.5 40t-65 14.5q-63 0 -112.5 -36t-83.5 -93t-52 -128t-18 -142zM779 1325q0 30 11.5 55t32.5 42.5t49 27.5t61 10q34 0 62 -10t48.5 -28t31.5 -43t11 -54t-10.5 -54.5t-30.5 -44t-48.5 -29.5t-63.5 -11t-63.5 11t-48.5 30t-31 44.5t-11 53.5z" />
<glyph unicode="&#xf9;" d="M66 244q0 15 3 40t7.5 52t9 52.5t8.5 43.5l125 592h318l-123 -578q-4 -16 -7.5 -34t-6 -35t-4 -31t-1.5 -22q0 -44 24 -70.5t70 -26.5q50 0 97 28t85 73t65.5 101t39.5 112l103 483h319l-147 -684q-9 -45 -17 -93.5t-14 -93.5t-10 -84.5t-6 -68.5h-320q3 29 6.5 59 t7.5 56.5t7 47.5t4 30h-4q-39 -49 -83.5 -89t-93 -68.5t-100 -44.5t-104.5 -16q-127 0 -192.5 70.5t-65.5 198.5zM458 1511h264l209 -325h-213z" />
<glyph unicode="&#xfb;" d="M66 244q0 15 3 40t7.5 52t9 52.5t8.5 43.5l125 592h318l-123 -578q-4 -16 -7.5 -34t-6 -35t-4 -31t-1.5 -22q0 -44 24 -70.5t70 -26.5q50 0 97 28t85 73t65.5 101t39.5 112l103 483h319l-147 -684q-9 -45 -17 -93.5t-14 -93.5t-10 -84.5t-6 -68.5h-320q3 29 6.5 59 t7.5 56.5t7 47.5t4 30h-4q-39 -49 -83.5 -89t-93 -68.5t-100 -44.5t-104.5 -16q-127 0 -192.5 70.5t-65.5 198.5zM360 1186l303 327h250l168 -327h-197l-116 190l-197 -190h-211z" />
<glyph unicode="&#xfc;" d="M66 244q0 15 3 40t7.5 52t9 52.5t8.5 43.5l125 592h318l-123 -578q-4 -16 -7.5 -34t-6 -35t-4 -31t-1.5 -22q0 -44 24 -70.5t70 -26.5q50 0 97 28t85 73t65.5 101t39.5 112l103 483h319l-147 -684q-9 -45 -17 -93.5t-14 -93.5t-10 -84.5t-6 -68.5h-320q3 29 6.5 59 t7.5 56.5t7 47.5t4 30h-4q-39 -49 -83.5 -89t-93 -68.5t-100 -44.5t-104.5 -16q-127 0 -192.5 70.5t-65.5 198.5zM361 1325q0 30 12 55t33 42.5t49.5 27.5t61.5 10q34 0 62 -10t48.5 -28t31.5 -43t11 -54t-11 -54.5t-31 -44t-48 -29.5t-63 -11q-34 0 -63 11t-49.5 30 t-32 44.5t-11.5 53.5zM820 1325q0 30 11.5 55t32.5 42.5t49 27.5t61 10q34 0 62 -10t48.5 -28t31.5 -43t11 -54t-10.5 -54.5t-30.5 -44t-48.5 -29.5t-63.5 -11t-63.5 11t-48.5 30t-31 44.5t-11 53.5z" />
<glyph unicode="&#xff;" horiz-adv-x="1102" d="M-160 -453l54 244q21 -15 52 -23t62 -8q59 0 110 27.5t89 89.5l82 129l-199 1018h332l72 -623q3 -34 4 -73t-2 -64h4q9 25 23 62t34 75l313 623h332l-651 -1114q-51 -89 -105.5 -161.5t-118.5 -123.5t-141.5 -78.5t-175.5 -27.5q-34 0 -81.5 6.5t-88.5 21.5zM285 1325 q0 30 12 55t33 42.5t49.5 27.5t61.5 10q34 0 62 -10t48.5 -28t31.5 -43t11 -54t-11 -54.5t-31 -44t-48 -29.5t-63 -11q-34 0 -63 11t-49.5 30t-32 44.5t-11.5 53.5zM744 1325q0 30 11.5 55t32.5 42.5t49 27.5t61 10q34 0 62 -10t48.5 -28t31.5 -43t11 -54t-10.5 -54.5 t-30.5 -44t-48.5 -29.5t-63.5 -11t-63.5 11t-48.5 30t-31 44.5t-11 53.5z" />
<glyph unicode="&#x11e;" horiz-adv-x="1452" d="M111 612q0 112 25 218.5t74.5 200.5t124 172.5t174 135t224.5 88t275 31.5q68 0 129.5 -7.5t115.5 -19.5t99.5 -26.5t81.5 -28.5l-64 -295q-31 21 -72 40.5t-89.5 34t-103 23.5t-112.5 9q-125 0 -225.5 -40.5t-171 -114t-108 -177t-37.5 -229.5q0 -91 25 -163t71.5 -121 t112.5 -75t147 -26q54 0 89.5 6.5t64.5 15.5l61 291h-291l55 258h613l-154 -727q-43 -21 -94 -40.5t-111 -35.5t-129 -25.5t-149 -9.5q-154 0 -275.5 46t-204.5 130t-127 201.5t-44 259.5zM743 1806q0 17 2.5 33t7.5 35h162q-2 -8 -3 -17.5t-1 -17.5q0 -51 32 -77.5 t78 -26.5q130 0 178 139h170q-20 -68 -53 -124.5t-79.5 -97t-106 -63t-131.5 -22.5q-53 0 -100 15.5t-81.5 45.5t-54.5 74.5t-20 103.5z" />
<glyph unicode="&#x11f;" horiz-adv-x="1214" d="M-33 -406l56 254q63 -42 138 -69t158 -27q78 0 136.5 21t101 62t70.5 101.5t45 139.5l18 90h-4q-26 -39 -57 -73.5t-68.5 -60.5t-83 -41.5t-102.5 -15.5q-78 0 -136.5 28.5t-98 79.5t-59.5 122t-20 157t18.5 170.5t55.5 161t93 141.5t130.5 112.5t167.5 74.5t205 27 q62 0 123.5 -4.5t120 -12t111.5 -17t98 -18.5l-185 -874q-28 -134 -75 -245t-127 -190.5t-201 -124t-297 -44.5q-97 0 -179 20.5t-153 54.5zM379 389q0 -37 7.5 -68.5t23.5 -54.5t39.5 -36t54.5 -13q40 0 73.5 16t61 43.5t49 63.5t38.5 76t29.5 81t20.5 78l53 242 q-23 5 -53.5 7.5t-64.5 2.5q-69 0 -129.5 -34t-105.5 -93t-71 -139t-26 -172zM526 1425q0 17 2.5 33t7.5 35h162q-2 -8 -3 -17.5t-1 -17.5q0 -51 32 -77.5t78 -26.5q130 0 178 139h170q-20 -68 -53 -124.5t-79.5 -97t-106 -63t-131.5 -22.5q-53 0 -100 15.5t-81.5 45.5 t-54.5 74.5t-20 103.5z" />
<glyph unicode="&#x130;" horiz-adv-x="649" d="M49 0l303 1434h326l-303 -1434h-326zM401 1706q0 30 11.5 54.5t32 42t48.5 27t61 9.5q68 0 110 -37t42 -96q0 -28 -11 -53.5t-30.5 -44.5t-47.5 -30t-63 -11q-34 0 -62.5 11t-48.5 30t-31 44.5t-11 53.5z" />
<glyph unicode="&#x131;" horiz-adv-x="650" d="M79 217q0 22 2.5 49t6.5 56.5t9.5 60t11.5 58.5q4 17 13.5 62.5t22 104.5t26.5 124.5t26.5 124.5t22 104.5t13.5 62.5h320l-122 -576q-8 -35 -17 -78.5t-9 -75.5q0 -38 24 -53t55 -15q26 0 52.5 5.5t48.5 14.5q-13 -60 -25 -118.5t-25 -118.5q-18 -5 -41.5 -10t-50 -9.5 t-55 -7t-56.5 -2.5q-67 0 -114.5 17.5t-78.5 49t-45.5 75t-14.5 95.5z" />
<glyph unicode="&#x152;" horiz-adv-x="1876" d="M111 600q0 93 15 182.5t45.5 173t78 158t112.5 137.5q51 49 108 87.5t123 65t141.5 40.5t162.5 14q45 0 88.5 -3.5t82.5 -8t73 -8.5t61 -4h768l-57 -263h-502l-68 -323h467l-55 -264h-467l-69 -322h534l-55 -262h-723q-29 0 -63.5 -4t-71.5 -8.5t-75 -8.5t-75 -4 q-115 0 -220 40t-184.5 119t-127 195.5t-47.5 270.5zM453 592q0 -77 20 -139.5t57.5 -106.5t91.5 -68t123 -24q47 0 85 7t69 15l182 867q-28 14 -77.5 23.5t-124.5 9.5q-84 0 -156 -36.5t-125 -99.5q-33 -40 -60 -91.5t-45.5 -110t-29 -121.5t-10.5 -125z" />
<glyph unicode="&#x153;" horiz-adv-x="1778" d="M61 408q0 134 40.5 251t114.5 203.5t179 136.5t234 50q67 0 121 -14t97 -39t75.5 -59.5t56.5 -74.5h4q35 40 77.5 74.5t93 59.5t108.5 39t122 14q105 0 177.5 -26t117.5 -67.5t64.5 -93t19.5 -102.5q0 -79 -33 -145t-112 -114t-209 -75.5t-324 -30.5q-2 -6 -2 -11.5 v-10.5q0 -29 10 -59.5t34 -55.5t64 -41t101 -16q36 0 79 6.5t87 19t87.5 30t80.5 38.5l-49 -236q-59 -34 -143.5 -59t-190.5 -25q-73 0 -130.5 15t-101.5 40t-75 57.5t-49 66.5h-4q-65 -84 -165.5 -131.5t-217.5 -47.5q-115 0 -198 36.5t-136.5 97.5t-79 139t-25.5 160z M379 408q0 -91 42.5 -141t110.5 -50q65 0 114 35t82 91.5t50 127.5t17 143q0 43 -9.5 78.5t-28 61t-46.5 39.5t-66 14q-63 0 -112.5 -36t-83.5 -93t-52 -128t-18 -142zM1106 590q98 -1 166 11.5t110 34.5t61 52t19 66q0 38 -27.5 63t-76.5 25q-42 0 -81.5 -17.5t-73.5 -50.5 t-59.5 -79.5t-37.5 -104.5z" />
<glyph unicode="&#x15e;" horiz-adv-x="1100" d="M29 76l55 284q37 -27 80.5 -51t91 -42t98.5 -28t103 -10q57 0 97 12.5t65 34.5t36 51t11 62t-10.5 59.5t-34.5 51t-63.5 51t-96.5 59.5q-61 34 -111 73.5t-86 88t-56 108t-20 132.5q0 83 31 163t97 143t168.5 101.5t244.5 38.5q59 0 114 -6.5t105 -17.5t94 -25t80 -29 l-55 -278q-31 19 -68.5 37.5t-80 32.5t-89.5 23t-98 9q-57 0 -96 -15.5t-62 -38.5t-33 -49.5t-10 -49.5q0 -33 10.5 -60.5t33 -53t59 -52t88.5 -58.5q68 -42 120.5 -84.5t89.5 -91t56 -105.5t19 -128q0 -39 -8 -84t-28 -91t-53.5 -90t-85 -79.5t-122 -61t-165.5 -33.5 l-14 -61q40 -2 73.5 -11.5t57.5 -27.5t37.5 -45t13.5 -63q0 -45 -20 -86t-62 -72.5t-105.5 -50.5t-150.5 -19q-30 0 -57.5 2t-52.5 4l31 138q42 -9 75 -9q66 0 103 21.5t37 56.5q0 64 -111 64h-22t-25 -2l37 159q-54 4 -105.5 13.5t-97.5 23t-85.5 29.5t-71.5 33z" />
<glyph unicode="&#x15f;" horiz-adv-x="899" d="M4 29l47 241q26 -14 60 -28t72.5 -25.5t79.5 -19t81 -7.5q75 0 111.5 26t36.5 71q0 38 -28 66.5t-97 60.5q-57 27 -100.5 56t-73.5 64t-45 78t-15 97q0 57 22.5 117.5t74.5 110t137.5 81t210.5 31.5q38 0 78 -3.5t78 -9.5t72 -14t60 -16l-49 -238q-21 11 -49 22t-59.5 20 t-64.5 15t-64 6q-73 0 -104.5 -28t-31.5 -68q0 -41 31 -67t82 -52q60 -29 105 -58t75 -64t45 -78.5t15 -100.5q0 -55 -20 -110t-64.5 -101t-116.5 -79t-176 -44l-14 -63q40 -2 73.5 -11.5t57.5 -27.5t37.5 -45t13.5 -63q0 -45 -20 -86t-62 -72.5t-105.5 -50.5t-150.5 -19 q-30 0 -57.5 2t-52.5 4l31 138q42 -9 75 -9q66 0 103 21.5t37 56.5q0 64 -111 64h-22t-25 -2l37 159q-34 2 -70 6.5t-70 11t-65 15.5t-56 19z" />
<glyph unicode="&#x178;" horiz-adv-x="1245" d="M193 1434h350l114 -545q8 -34 9.5 -63t3.5 -52h2q11 28 24.5 57t28.5 54l350 549h363l-662 -914l-108 -520h-326l109 514zM437 1707q0 30 12 55t33 42.5t49.5 27.5t61.5 10q34 0 62 -10t48.5 -28t31.5 -43t11 -54t-11 -54.5t-31 -44t-48 -29.5t-63 -11q-34 0 -63 11 t-49.5 30t-32 44.5t-11.5 53.5zM896 1707q0 30 11.5 55t32.5 42.5t49 27.5t61 10q34 0 62 -10t48.5 -28t31.5 -43t11 -54t-10.5 -54.5t-30.5 -44t-48.5 -29.5t-63.5 -11t-63.5 11t-48.5 30t-31 44.5t-11 53.5z" />
<glyph unicode="&#x18f;" horiz-adv-x="1586" d="M85 535q0 30 3 68t8 77t12 75.5t15 62.5l10 32h1061q14 344 -374 344q-108 0 -224.5 -31.5t-248.5 -101.5l65 294q109 58 224 80.5t245 22.5q155 0 277.5 -40.5t208 -118t131 -190.5t45.5 -258q0 -189 -55.5 -349.5t-163 -277.5t-266.5 -183t-366 -66q-131 0 -242 37 t-192 108t-127 175.5t-46 239.5zM430 542q0 -73 22 -129.5t61.5 -95t94.5 -58.5t121 -20q83 0 153 24t125 70t95 111.5t64 149.5h-84h-648q-2 -15 -3 -25.5t-1 -26.5z" />
<glyph unicode="&#x1dd;" horiz-adv-x="1065" d="M14 264q0 79 33.5 145t112 114t209 75.5t323.5 30.5q2 6 2 10.5v9.5q0 31 -10 62t-34.5 56t-64.5 40.5t-100 15.5q-36 0 -78.5 -6.5t-86.5 -19t-87 -30t-81 -38.5l49 236q31 16 71 31t86.5 27t99 19t107.5 7q116 0 199.5 -34t136.5 -91.5t78 -134.5t25 -164 q0 -131 -43.5 -249t-124 -207t-194 -141.5t-253.5 -52.5q-100 0 -171.5 24t-116.5 64.5t-66 92.5t-21 108zM315 268q0 -37 27.5 -61.5t77.5 -24.5q44 0 84.5 19t74 52.5t57.5 80t36 100.5q-357 -1 -357 -166z" />
<glyph unicode="&#x2c6;" horiz-adv-x="899" d="M215 1186l303 327h250l168 -327h-197l-116 190l-197 -190h-211z" />
<glyph unicode="&#x2da;" horiz-adv-x="899" d="M383 1372q0 56 21 97.5t55 69t77 41t87 13.5q54 0 98.5 -16t75.5 -44.5t48 -68t17 -86.5q0 -54 -21 -95t-55 -69t-78 -42.5t-90 -14.5q-49 0 -92 15t-74.5 43t-50 68t-18.5 89zM522 1376q0 -40 25 -67t71 -27q44 0 73.5 26t29.5 68q0 38 -27.5 66t-75.5 28 q-23 0 -41 -8.5t-30 -22t-18.5 -30t-6.5 -33.5z" />
<glyph unicode="&#x2dc;" horiz-adv-x="899" d="M217 1186q7 61 28.5 112.5t55 89t79 59t101.5 21.5q50 0 83 -13t60 -28t53 -28t60 -13q41 0 68.5 26.5t34.5 74.5h155q-10 -72 -34 -125t-58.5 -88t-77 -52.5t-90.5 -17.5q-51 0 -86.5 13t-63 28t-52 28t-54.5 13q-25 0 -44 -8.5t-32 -22.5t-21 -32t-11 -37h-154z" />
<glyph unicode="&#x400;" horiz-adv-x="1085" d="M49 0l305 1434h826l-56 -263h-501l-68 -323h467l-57 -264h-465l-70 -322h535l-56 -262h-860zM547 1892h264l209 -325h-213z" />
<glyph unicode="&#x401;" horiz-adv-x="1085" d="M49 0l305 1434h826l-56 -263h-501l-68 -323h467l-57 -264h-465l-70 -322h535l-56 -262h-860zM408 1704q0 30 12 55t33 42.5t49.5 27.5t61.5 10q34 0 62 -10t48.5 -28t31.5 -43t11 -54t-11 -54.5t-31 -44t-48 -29.5t-63 -11q-34 0 -63 11t-49.5 30t-32 44.5t-11.5 53.5z M867 1704q0 30 11.5 55t32.5 42.5t49 27.5t61 10q34 0 62 -10t48.5 -28t31.5 -43t11 -54t-10.5 -54.5t-30.5 -44t-48.5 -29.5t-63.5 -11t-63.5 11t-48.5 30t-31 44.5t-11 53.5z" />
<glyph unicode="&#x402;" horiz-adv-x="1509" d="M166 1171l55 263h1145l-55 -263h-466l-65 -308h246q87 0 163.5 -24.5t134.5 -73t91.5 -121.5t33.5 -170q0 -106 -30 -196t-93 -155t-159 -102t-228 -37q-23 0 -52.5 2.5t-58.5 6.5t-54.5 9.5t-40.5 12.5l48 229q21 -10 56.5 -17.5t71.5 -7.5q94 0 149.5 54t55.5 163 q0 89 -53 140t-166 51h-166l-133 -627h-327l249 1171h-352z" />
<glyph unicode="&#x403;" horiz-adv-x="1085" d="M49 0l305 1434h855l-57 -266h-532l-248 -1168h-323zM625 1576l315 325h289l-369 -325h-235z" />
<glyph unicode="&#x404;" horiz-adv-x="1283" d="M105 598q0 109 21.5 214.5t67 201t116.5 177t169.5 141t226.5 93t287 33.5q113 0 207.5 -20t162.5 -44l-61 -305q-61 36 -149 60.5t-191 24.5q-105 0 -186.5 -24t-140.5 -66.5t-96.5 -102t-55.5 -130.5h575l-54 -256h-551q-2 -6 -2 -15v-20q0 -31 7 -66t23 -69t43.5 -65 t68 -55t96.5 -38t129 -14q92 0 176.5 24t153.5 59l-62 -301q-33 -13 -69.5 -24t-79.5 -19t-93 -12.5t-110 -4.5q-160 0 -278 46.5t-196 129.5t-116.5 197t-38.5 250z" />
<glyph unicode="&#x405;" horiz-adv-x="1100" d="M29 76l55 284q37 -27 80.5 -51t91 -42t98.5 -28t103 -10q57 0 97 12.5t65 34.5t36 51t11 62t-10.5 59.5t-34.5 51t-63.5 51t-96.5 59.5q-61 34 -111 73.5t-86 88t-56 108t-20 132.5q0 83 31 163t97 143t168.5 101.5t244.5 38.5q59 0 114 -6.5t105 -17.5t94 -25t80 -29 l-55 -278q-31 19 -68.5 37.5t-80 32.5t-89.5 23t-98 9q-57 0 -96 -15.5t-62 -38.5t-33 -49.5t-10 -49.5q0 -33 10.5 -60.5t33 -53t59 -52t88.5 -58.5q68 -42 120.5 -84.5t89.5 -91t56 -105.5t19 -128q0 -41 -9.5 -90t-32.5 -98.5t-63.5 -95.5t-101.5 -81t-146.5 -56.5 t-199.5 -21.5q-64 0 -124.5 8.5t-115 23t-101.5 32.5t-83 37z" />
<glyph unicode="&#x406;" horiz-adv-x="649" d="M49 0l303 1434h326l-303 -1434h-326z" />
<glyph unicode="&#x407;" horiz-adv-x="649" d="M49 0l303 1434h326l-303 -1434h-326zM157 1707q0 30 12 55t33 42.5t49.5 27.5t61.5 10q34 0 62 -10t48.5 -28t31.5 -43t11 -54t-11 -54.5t-31 -44t-48 -29.5t-63 -11q-34 0 -63 11t-49.5 30t-32 44.5t-11.5 53.5zM616 1707q0 30 11.5 55t32.5 42.5t49 27.5t61 10 q34 0 62 -10t48.5 -28t31.5 -43t11 -54t-10.5 -54.5t-30.5 -44t-48.5 -29.5t-63.5 -11t-63.5 11t-48.5 30t-31 44.5t-11 53.5z" />
<glyph unicode="&#x408;" horiz-adv-x="907" d="M-86 18l59 299q15 -12 36 -23.5t44.5 -20t47.5 -14t46 -5.5q113 0 184.5 79.5t106.5 248.5l183 852h325l-184 -861q-29 -138 -80 -248.5t-128 -188.5t-181.5 -119.5t-241.5 -41.5q-24 0 -55 4t-61.5 10t-57.5 14t-43 15z" />
<glyph unicode="&#x409;" horiz-adv-x="2086" d="M-86 2l56 263q15 -7 36 -11t45 -4q66 0 118.5 53t103.5 155q26 51 55 120t60.5 149.5t64.5 170t65 181t62.5 182t57.5 173.5h888l-123 -581h166q119 0 206 -30t144 -82.5t85 -125t28 -158.5q0 -87 -29 -169t-99.5 -146t-188.5 -103t-295 -39h-522l246 1163h-300 q-33 -101 -71.5 -212.5t-78 -220.5t-78.5 -207t-75 -172q-42 -90 -89 -159t-102.5 -115.5t-122 -70.5t-147.5 -24q-46 0 -88.5 4.5t-77.5 15.5zM1271 238h134q75 0 128.5 15.5t87.5 43t50 65.5t16 83q0 83 -53 127t-159 44h-124z" />
<glyph unicode="&#x40a;" horiz-adv-x="2131" d="M47 0l305 1434h326l-118 -551h547l117 551h324l-123 -581h166q119 0 206 -30t144 -82.5t85 -125t28 -158.5q0 -87 -29 -169t-99.5 -146t-188.5 -103t-295 -39h-522l128 604h-546l-128 -604h-327zM1293 238h134q75 0 128.5 15.5t87.5 43t50 65.5t16 83q0 83 -53 127 t-159 44h-124z" />
<glyph unicode="&#x40b;" horiz-adv-x="1638" d="M166 1171l55 263h1145l-55 -263h-466l-66 -309h294q199 0 304.5 -80.5t105.5 -229.5q0 -24 -2 -49.5t-5 -49t-6.5 -43.5t-6.5 -34l-79 -376h-326l73 349q4 16 7.5 43.5t3.5 50.5q0 69 -48 107t-155 38h-218l-125 -588h-327l249 1171h-352z" />
<glyph unicode="&#x40c;" horiz-adv-x="1333" d="M49 0l305 1434h326l-141 -666h4q11 15 25.5 33t23.5 30q20 25 61.5 72.5t93 106t108.5 122.5t108.5 122.5t92 106t58.5 73.5h395q-24 -30 -75 -85.5t-115.5 -123t-136 -141t-136 -141t-115.5 -123t-75 -85.5q13 -33 43 -91.5t68.5 -129t82 -147t82 -147t68.5 -129 t43 -91.5h-393q-9 26 -32 75t-53.5 109t-64.5 125.5t-64.5 125.5t-54 108.5t-32.5 74.5q-8 17 -15 38.5t-10 33.5h-4l-145 -690h-326zM733 1566l315 325h289l-369 -325h-235z" />
<glyph unicode="&#x40d;" horiz-adv-x="1607" d="M48 0l303 1434h302q-42 -201 -83.5 -398.5t-83.5 -397.5q-6 -30 -15.5 -69t-20.5 -73h4q9 12 22.5 28t28.5 33t30 33t26 28q29 31 57.5 61.5t57.5 60.5q161 174 321 347t321 347h318l-303 -1434h-302l162 768q12 56 24.5 108t24.5 97h-4q-21 -26 -52.5 -61.5t-63.5 -70.5 q-29 -31 -58 -61.5t-58 -62.5q-330 -358 -663 -717h-295zM738 1891h264l209 -325h-213z" />
<glyph unicode="&#x40e;" horiz-adv-x="1255" d="M-6 17l57 272q29 -17 68 -27.5t79 -10.5q67 0 130.5 45.5t133.5 150.5l-263 987h353l113 -555q7 -39 11 -80t6 -67h4q17 39 33.5 75t32.5 62l334 565h361l-653 -1014q-70 -109 -134.5 -192t-134 -139.5t-149 -85t-180.5 -28.5q-28 0 -57.5 3.5t-56.5 9t-50 13t-38 16.5z M438 1909h240q1 -34 11.5 -66t31 -56.5t51.5 -39t73 -14.5q41 0 77.5 13.5t66 37.5t51.5 56t35 69h241q-22 -75 -67 -139t-108.5 -110t-144.5 -72t-174 -26q-81 0 -150.5 25.5t-121 71.5t-81 110t-31.5 140z" />
<glyph unicode="&#x40f;" horiz-adv-x="1569" d="M47 0l304 1434h326l-245 -1152h599l245 1152h326l-305 -1434h-464l-81 -393h-296l83 393h-492z" />
<glyph unicode="&#x410;" horiz-adv-x="1440" d="M-102 0l827 1434h385l205 -1434h-330l-41 319h-514l-168 -319h-364zM551 567h369l-52 484q-1 16 -1.5 35.5t0 37.5t1.5 32.5t2 21.5h-6q-2 -9 -7 -23t-11.5 -30.5t-15 -34.5t-17.5 -35z" />
<glyph unicode="&#x411;" horiz-adv-x="1318" d="M49 0l304 1434h924l-58 -266h-599l-66 -315h226q119 0 206 -30t144 -82.5t85 -125t28 -158.5q0 -87 -29 -169t-99.5 -146t-188.5 -103t-295 -39h-582zM422 238h194q75 0 128.5 15.5t87.5 43t50 65.5t16 83q0 83 -53 127t-159 44h-184z" />
<glyph unicode="&#x412;" horiz-adv-x="1327" d="M49 0l305 1434h508q117 0 199.5 -24.5t134.5 -68t76 -103t24 -128.5q0 -67 -22 -125t-65.5 -104.5t-107.5 -79.5t-149 -49v-4q68 -10 119 -36.5t85.5 -65.5t51.5 -88t17 -105q0 -97 -38 -179.5t-114 -143.5t-189.5 -95.5t-265.5 -34.5h-569zM424 238h180q74 0 127 16.5 t86.5 45.5t49.5 67.5t16 83.5q0 75 -52 120t-155 45h-170zM555 856h152q58 0 104 13.5t78.5 38.5t49.5 60.5t17 78.5q0 35 -10.5 62.5t-33.5 46.5t-60 29.5t-90 10.5h-133z" />
<glyph unicode="&#x413;" horiz-adv-x="1085" d="M49 0l305 1434h855l-57 -266h-532l-248 -1168h-323z" />
<glyph unicode="&#x414;" horiz-adv-x="1573" d="M-149 -393l144 675h122q99 108 179 229.5t147 262.5t121.5 304.5t102.5 355.5h846l-244 -1152h218l-144 -675h-295l83 393h-903l-82 -393h-295zM473 282h470l185 870h-249q-26 -97 -62.5 -209.5t-86 -227.5t-113 -226.5t-144.5 -206.5z" />
<glyph unicode="&#x415;" horiz-adv-x="1085" d="M49 0l305 1434h826l-56 -263h-501l-68 -323h467l-57 -264h-465l-70 -322h535l-56 -262h-860z" />
<glyph unicode="&#x416;" horiz-adv-x="1884" d="M-121 0l666 744l-335 690h350l250 -619q3 -10 10 -29t9 -33h4l143 681h299l-144 -675h4q3 7 9.5 17t14 20t14.5 19t11 14l500 605h363l-632 -699l351 -735h-358l-266 640q-7 19 -11 37.5t-5 28.5h-4l-151 -706h-299l148 693h-5q-7 -11 -19 -30t-27 -36l-518 -627h-372z " />
<glyph unicode="&#x417;" horiz-adv-x="1176" d="M-6 68l57 283q36 -24 80.5 -44.5t94.5 -36.5t105.5 -25t114.5 -9q85 0 140 17.5t87 45.5t44.5 63t12.5 69q0 83 -59 128t-190 45h-186l51 264h194q142 0 219.5 47t77.5 144q0 30 -11.5 55.5t-36 44t-62.5 29t-92 10.5q-40 0 -88 -7.5t-96 -20t-91.5 -28t-76.5 -31.5 l50 278q33 12 77 24.5t94.5 22.5t106.5 16t113 6q113 0 196.5 -26t138 -72.5t81 -110.5t26.5 -139q0 -63 -20.5 -123t-65.5 -110.5t-115.5 -86.5t-170.5 -50v-4q63 -13 112 -41.5t83 -70t51.5 -94.5t17.5 -115q0 -48 -13 -99.5t-42 -100t-76.5 -92.5t-116 -76.5t-160 -52 t-209.5 -19.5q-134 0 -245.5 23.5t-201.5 69.5z" />
<glyph unicode="&#x418;" horiz-adv-x="1607" d="M48 0l303 1434h302q-42 -201 -83.5 -398.5t-83.5 -397.5q-6 -30 -15.5 -69t-20.5 -73h4q9 12 22.5 28t28.5 33t30 33t26 28q29 31 57.5 61.5t57.5 60.5q161 174 321 347t321 347h318l-303 -1434h-302l162 768q12 56 24.5 108t24.5 97h-4q-21 -26 -52.5 -61.5t-63.5 -70.5 q-29 -31 -58 -61.5t-58 -62.5q-330 -358 -663 -717h-295z" />
<glyph unicode="&#x419;" horiz-adv-x="1607" d="M48 0l303 1434h302q-42 -201 -83.5 -398.5t-83.5 -397.5q-6 -30 -15.5 -69t-20.5 -73h4q9 12 22.5 28t28.5 33t30 33t26 28q29 31 57.5 61.5t57.5 60.5q161 174 321 347t321 347h318l-303 -1434h-302l162 768q12 56 24.5 108t24.5 97h-4q-21 -26 -52.5 -61.5t-63.5 -70.5 q-29 -31 -58 -61.5t-58 -62.5q-330 -358 -663 -717h-295zM611 1909h240q1 -34 11.5 -66t31 -56.5t51.5 -39t73 -14.5q41 0 77.5 13.5t66 37.5t51.5 56t35 69h241q-22 -75 -67 -139t-108.5 -110t-144.5 -72t-174 -26q-81 0 -150.5 25.5t-121 71.5t-81 110t-31.5 140z" />
<glyph unicode="&#x41a;" horiz-adv-x="1333" d="M49 0l305 1434h326l-141 -666h4q11 15 25.5 33t23.5 30q20 25 61.5 72.5t93 106t108.5 122.5t108.5 122.5t92 106t58.5 73.5h395q-24 -30 -75 -85.5t-115.5 -123t-136 -141t-136 -141t-115.5 -123t-75 -85.5q13 -33 43 -91.5t68.5 -129t82 -147t82 -147t68.5 -129 t43 -91.5h-393q-9 26 -32 75t-53.5 109t-64.5 125.5t-64.5 125.5t-54 108.5t-32.5 74.5q-8 17 -15 38.5t-10 33.5h-4l-145 -690h-326z" />
<glyph unicode="&#x41b;" horiz-adv-x="1530" d="M-86 2l56 263q15 -7 36 -11t45 -4q66 0 118.5 53t103.5 155q25 51 54.5 120t61 149.5t64.5 170t65 181t62.5 182t57.5 173.5h890l-305 -1434h-326l247 1163h-300q-33 -101 -71.5 -212.5t-78 -220.5t-78.5 -207t-75 -172q-42 -90 -89 -159t-102.5 -115.5t-122 -70.5 t-147.5 -24q-46 0 -88.5 4.5t-77.5 15.5z" />
<glyph unicode="&#x41c;" horiz-adv-x="1781" d="M48 0l305 1434h384l147 -498q7 -24 13 -51.5t10 -55t6 -53t2 -45.5h5q11 22 23.5 49.5t26 56t28.5 55t30 46.5l366 496h416l-305 -1434h-290l182 858q30 137 78 307h-8q-14 -32 -29.5 -64t-30.5 -60.5t-28 -51t-23 -36.5l-384 -523h-226l-149 513q-5 15 -9.5 47.5 t-4.5 67.5v107h-9q-14 -94 -27.5 -173t-24.5 -133l-183 -859h-291z" />
<glyph unicode="&#x41d;" horiz-adv-x="1565" d="M49 0l305 1434h326l-123 -572h590l123 572h325l-305 -1434h-325l122 580h-589l-123 -580h-326z" />
<glyph unicode="&#x41e;" horiz-adv-x="1554" d="M111 592q0 93 16 183.5t48.5 174t81 159t112.5 138.5q50 48 108 86.5t125 66.5t144 43t165 15q133 0 243.5 -42t189.5 -121.5t123 -194t44 -258.5q0 -86 -15 -173t-44.5 -168.5t-74 -156.5t-103.5 -137q-50 -53 -109 -96t-128.5 -73t-150.5 -46.5t-175 -16.5 q-142 0 -253.5 47t-188.5 129.5t-117.5 195.5t-40.5 245zM453 596q0 -81 20.5 -145t58.5 -107.5t91.5 -66.5t119.5 -23q82 0 156.5 36t130.5 107q35 42 61 94.5t43 109.5t26 116t9 114q0 81 -20.5 145t-58.5 108.5t-92.5 68t-123.5 23.5q-80 0 -152 -37t-128 -103 q-34 -40 -60 -92t-44 -110t-27.5 -118.5t-9.5 -119.5z" />
<glyph unicode="&#x41f;" horiz-adv-x="1539" d="M49 0l303 1434h1220l-303 -1434h-326l244 1152h-570l-243 -1152h-325z" />
<glyph unicode="&#x420;" horiz-adv-x="1290" d="M49 0l305 1434h492q122 0 211 -31.5t146.5 -86t85.5 -129t28 -161.5q0 -106 -37 -202.5t-115 -169.5t-198 -116.5t-287 -43.5h-201l-104 -494h-326zM532 739h148q77 0 132.5 21.5t91.5 58t53.5 84.5t17.5 101q0 83 -56 132.5t-165 49.5h-127z" />
<glyph unicode="&#x421;" horiz-adv-x="1300" d="M104 598q0 113 24 220.5t72.5 203t122 175.5t173 138t226 90.5t279.5 32.5q58 0 112 -6t103 -15.5t90.5 -21t73.5 -22.5l-67 -306q-30 16 -64.5 32t-75.5 28.5t-88.5 20.5t-103.5 8q-130 0 -229.5 -44.5t-167.5 -119.5t-103 -174t-35 -209q0 -91 27 -161t77 -117.5 t120 -72t157 -24.5q55 0 103 7.5t91 20t81.5 28.5t73.5 34l-68 -305q-74 -31 -163.5 -47.5t-201.5 -16.5q-150 0 -269 44.5t-201 126.5t-125.5 196.5t-43.5 255.5z" />
<glyph unicode="&#x422;" horiz-adv-x="1202" d="M164 1171l57 263h1139l-57 -263h-404l-248 -1171h-325l247 1171h-409z" />
<glyph unicode="&#x423;" horiz-adv-x="1255" d="M-6 17l57 272q29 -17 68 -27.5t79 -10.5q67 0 130.5 45.5t133.5 150.5l-263 987h353l113 -555q7 -39 11 -80t6 -67h4q17 39 33.5 75t32.5 62l334 565h361l-653 -1014q-70 -109 -134.5 -192t-134 -139.5t-149 -85t-180.5 -28.5q-28 0 -57.5 3.5t-56.5 9t-50 13t-38 16.5z " />
<glyph unicode="&#x424;" horiz-adv-x="1722" d="M101 654q0 74 16 151t50 148.5t86.5 134.5t126 109.5t169 73.5t214.5 27h115l32 158h299l-31 -158h52q107 0 195 -31t151 -92.5t97.5 -153t34.5 -211.5q0 -70 -15.5 -144t-49 -144t-85 -132t-124 -108.5t-166.5 -73.5t-212 -27h-115l-41 -203h-309l43 203h-53 q-107 0 -195.5 31.5t-151.5 91.5t-98 148t-35 202zM425 674q0 -63 17 -110t47.5 -77.5t72.5 -46t92 -15.5h32l133 628h-51q-88 0 -152.5 -33.5t-107 -87t-63 -121.5t-20.5 -137zM993 425h50q88 0 153 33.5t107.5 87.5t63 122t20.5 137q0 63 -17 109.5t-47.5 77t-72.5 46 t-93 15.5h-31z" />
<glyph unicode="&#x425;" horiz-adv-x="1341" d="M-111 0l615 739l-277 695h377l127 -441q3 -12 5.5 -27.5t4 -31.5t2 -30t0.5 -23h5q3 8 8 20.5t12 27.5t14.5 29.5t16.5 26.5l342 449h377l-590 -725l284 -709h-366l-144 455q-4 11 -6.5 26t-4 30.5t-2.5 30t-1 23.5h-4q-8 -17 -20.5 -48t-30.5 -56l-344 -461h-400z" />
<glyph unicode="&#x426;" horiz-adv-x="1665" d="M47 0l305 1434h325l-245 -1153h599l246 1153h325l-245 -1153h208l-142 -674h-295l84 393h-1165z" />
<glyph unicode="&#x427;" horiz-adv-x="1476" d="M200 779q0 32 6 74.5t16 87.5l103 493h325l-105 -492q-5 -25 -8.5 -50t-3.5 -42q0 -28 9.5 -51.5t29.5 -41t52.5 -27t77.5 -9.5q81 0 173 22t177 68l131 623h326l-303 -1434h-326l113 541q-85 -40 -191 -66t-228 -26q-102 0 -173.5 27t-116 73t-64.5 105.5t-20 124.5z " />
<glyph unicode="&#x428;" horiz-adv-x="2009" d="M47 0l303 1434h326l-244 -1153h361l243 1153h326l-243 -1153h361l244 1153h326l-303 -1434h-1700z" />
<glyph unicode="&#x429;" horiz-adv-x="2115" d="M47 0l305 1434h325l-245 -1153h361l245 1153h325l-244 -1153h360l246 1153h326l-246 -1153h210l-143 -674h-295l83 393h-1613z" />
<glyph unicode="&#x42a;" horiz-adv-x="1554" d="M178 1168l57 266h708l-123 -581h226q119 0 206 -30t144 -82.5t85 -125t28 -158.5q0 -87 -29 -169t-99.5 -146t-188.5 -103t-295 -39h-582l247 1168h-384zM688 238h194q75 0 128.5 15.5t87.5 43t50 65.5t16 83q0 83 -53 127t-159 44h-184z" />
<glyph unicode="&#x42b;" horiz-adv-x="1839" d="M49 0l304 1434h324l-123 -581h166q119 0 206 -30t144 -82.5t85 -125t28 -158.5q0 -87 -29 -169t-99.5 -146t-188.5 -103t-295 -39h-522zM422 238h134q75 0 128.5 15.5t87.5 43t50 65.5t16 83q0 83 -53 127t-159 44h-124zM1239 0l303 1434h326l-303 -1434h-326z" />
<glyph unicode="&#x42c;" horiz-adv-x="1318" d="M49 0l304 1434h324l-123 -581h226q119 0 206 -30t144 -82.5t85 -125t28 -158.5q0 -87 -29 -169t-99.5 -146t-188.5 -103t-295 -39h-582zM422 238h194q75 0 128.5 15.5t87.5 43t50 65.5t16 83q0 83 -53 127t-159 44h-184z" />
<glyph unicode="&#x42d;" horiz-adv-x="1315" d="M11 40q15 70 30 145.5t31 146.5q30 -15 67 -29.5t79.5 -25.5t89.5 -18t96 -7q104 0 186 24t143 68.5t101 108t59 142.5h-577q14 64 27 128t27 128h552q2 10 2 16.5v17.5q0 57 -19.5 109.5t-62 92.5t-110.5 64t-166 24q-94 0 -180 -18.5t-146 -46.5q14 69 28.5 147.5 t28.5 147.5q65 22 150.5 37.5t189.5 15.5q159 0 278 -45t198.5 -126t119 -192.5t39.5 -244.5q0 -94 -17.5 -195t-58 -198.5t-106.5 -185t-163.5 -153t-228.5 -104.5t-302 -39q-57 0 -112.5 5.5t-106 15t-93 21t-73.5 23.5z" />
<glyph unicode="&#x42e;" horiz-adv-x="2116" d="M47 0l305 1434h326l-118 -551h225q37 125 100.5 230t153.5 182t207 120t261 43q141 0 247.5 -47.5t177 -131.5t106 -198t35.5 -247q0 -110 -22 -216t-65.5 -201.5t-108 -176.5t-149.5 -140t-190 -92t-229 -33q-120 0 -208.5 32t-151 83.5t-102 115.5t-62 128t-31 121 t-8.5 95v54h-244l-128 -604h-327zM1088 607q0 -78 15.5 -143t47.5 -111.5t80.5 -72.5t114.5 -26q69 0 124.5 26t98.5 70.5t73.5 102t50 121t29 127.5t9.5 121q0 84 -18 150t-51.5 111t-81.5 69t-108 24q-70 0 -125.5 -26.5t-98 -71.5t-73 -103.5t-50 -121.5t-28.5 -126.5 t-9 -119.5z" />
<glyph unicode="&#x42f;" horiz-adv-x="1335" d="M-80 0q63 100 126 200.5t126 201.5q29 45 64 87t75 76.5t84.5 60t92.5 39.5v4q-60 14 -107.5 43t-80.5 70t-50.5 92.5t-17.5 109.5q0 96 35 178.5t107.5 142.5t185 94.5t266.5 34.5h538q-76 -361 -152 -717t-152 -717h-325q29 140 58.5 274.5t58.5 274.5h-66 q-89 0 -161 -47.5t-126 -140.5q-53 -91 -106 -180.5t-107 -180.5h-366zM577 970q0 -39 14.5 -71.5t42 -56t67.5 -36.5t91 -13h111q22 100 42.5 200t43.5 199h-139q-75 0 -127 -18t-84.5 -48.5t-47 -71t-14.5 -84.5z" />
<glyph unicode="&#x430;" horiz-adv-x="1214" d="M61 371q0 47 10.5 115.5t38 144t76.5 150t125.5 134.5t185 97t255.5 37q57 0 114.5 -4.5t113 -12t107.5 -17.5t97 -20l-140 -657q-7 -31 -13.5 -75t-12 -91.5t-9 -93t-3.5 -78.5h-320q0 15 1.5 38.5t3.5 48t4.5 48t4.5 39.5h-4q-29 -39 -60 -75t-69 -63.5t-84.5 -44 t-107.5 -16.5q-75 0 -133.5 27t-98.5 78t-61 124.5t-21 166.5zM379 389q0 -37 7.5 -68.5t23.5 -54.5t39.5 -36t54.5 -13q57 0 101.5 33t78 84.5t56 116t36.5 127.5l53 239q-23 5 -51 7.5t-53 2.5q-69 0 -121 -23t-90.5 -60t-64.5 -84t-41.5 -95.5t-22 -94.5t-6.5 -81z" />
<glyph unicode="&#x431;" horiz-adv-x="1189" d="M71 473q0 68 7.5 144t23 154t39.5 155t57.5 148.5t76.5 134.5t97 112q88 79 180.5 121.5t196 62.5t221 24.5t253.5 7.5l-58 -269q-110 -2 -206 -4t-175 -12.5t-140.5 -32.5t-103.5 -64q-23 -22 -39 -56t-28 -73t-20 -81t-15 -81h4q73 78 156 119t192 41q80 0 142 -32 t104.5 -87.5t64.5 -131t22 -162.5q0 -76 -14.5 -152.5t-45 -147.5t-77.5 -132t-112.5 -106.5t-150.5 -71.5t-190 -26q-111 0 -197 34t-145 98.5t-89.5 157t-30.5 208.5zM383 452q0 -115 45 -174.5t121 -59.5q62 0 109.5 34t80 88t49 120.5t16.5 131.5q0 84 -42 137t-125 53 q-34 0 -67.5 -11t-64.5 -30t-57 -44.5t-45 -54.5q-4 -16 -7.5 -39.5t-6.5 -49.5t-4.5 -52t-1.5 -49z" />
<glyph unicode="&#x432;" horiz-adv-x="1118" d="M61 359q0 64 9 135.5t31 142t59 136.5t94 119q76 74 191.5 115.5t264.5 41.5q106 0 176.5 -22.5t113 -58.5t60 -79.5t17.5 -85.5q0 -38 -12.5 -79t-42.5 -77.5t-80.5 -66t-127.5 -44.5q106 -8 161.5 -62t55.5 -144q0 -31 -10.5 -70t-35 -78t-65 -76.5t-101 -66.5 t-142.5 -46.5t-190 -17.5q-102 0 -181.5 18.5t-134 62.5t-82.5 118t-28 185zM357 346q0 -85 38 -123.5t124 -38.5q53 0 92.5 13t66 34.5t39.5 48.5t13 55q0 48 -37 78t-122 30q-56 0 -112.5 -6t-94.5 -12q-5 -20 -6 -40.5t-1 -38.5zM403 612q86 2 155 8t117.5 22t74.5 43.5 t26 72.5q0 40 -28.5 67t-83.5 27q-47 0 -88.5 -18t-75 -50t-58.5 -76t-39 -96z" />
<glyph unicode="&#x433;" horiz-adv-x="931" d="M23 261q0 90 37 150.5t94.5 101.5t126 67.5t131.5 48.5q41 14 73 27.5t55 29t35 33.5t12 42q0 71 -118 71q-35 0 -74 -5.5t-76.5 -14.5t-71 -20t-56.5 -22q13 58 25 118t24 119q29 9 66.5 16.5t78.5 13t83.5 9t80.5 3.5q90 0 155 -20t107.5 -56t63 -86t20.5 -110 q0 -76 -27.5 -130.5t-73 -93.5t-104.5 -66t-122 -49q-53 -18 -98.5 -34.5t-78.5 -34.5t-52 -40.5t-19 -54.5q0 -37 32.5 -60.5t105.5 -23.5q39 0 81 6.5t84 18t83.5 27.5t79.5 35q-13 -61 -25.5 -124.5t-25.5 -124.5q-71 -25 -159 -39t-185 -14q-102 0 -172.5 23t-114 62 t-62.5 91t-19 110z" />
<glyph unicode="&#x434;" horiz-adv-x="1201" d="M61 387q0 117 34.5 231t102.5 204.5t168 146t231 55.5q93 0 160.5 -43t99.5 -118h4q1 6 3 23t4 37t3.5 40t1.5 30q0 57 -11 108t-38 88.5t-71.5 59.5t-112.5 22q-35 0 -76 -6t-80.5 -15.5t-75 -22t-59.5 -25.5q14 66 28.5 135t29.5 136q20 9 50.5 17t66 13.5t73.5 9 t74 3.5q123 0 217.5 -30.5t158.5 -93t97 -158.5t33 -227q0 -112 -14 -232t-46.5 -234.5t-85.5 -217t-131 -180t-183 -123t-241 -45.5q-115 0 -194 33.5t-128 90t-71 131t-22 157.5zM377 397q0 -88 36.5 -133t105.5 -45q62 0 111.5 39t87 102t62.5 141t37 156 q-18 69 -63 106.5t-103 37.5q-45 0 -82.5 -20t-68 -52.5t-53.5 -75t-38.5 -87.5t-23.5 -89t-8 -80z" />
<glyph unicode="&#x435;" horiz-adv-x="1065" d="M61 399q0 131 43.5 249t124 207t194 141.5t253.5 52.5q101 0 172 -24t116 -64.5t66 -92.5t21 -108q0 -79 -33.5 -145t-112 -114t-208.5 -75.5t-324 -30.5q-2 -6 -2 -10.5v-9.5q0 -31 10 -62t34.5 -56t64.5 -40.5t100 -15.5q36 0 78.5 6.5t86.5 19t87.5 30t80.5 38.5 l-49 -236q-31 -16 -71 -31t-86.5 -27t-99 -19t-107.5 -7q-116 0 -199 34t-136.5 91.5t-78.5 134.5t-25 164zM393 590q180 -2 268.5 41t88.5 125q0 37 -27.5 61.5t-77.5 24.5q-44 0 -84.5 -19t-74 -52.5t-57.5 -80t-36 -100.5z" />
<glyph unicode="&#x436;" horiz-adv-x="1660" d="M-123 0l510 539l-247 485h326l215 -480h4l102 480h299l-103 -483h4l417 483h351l-480 -511l260 -513h-333l-223 505h-4l-107 -505h-299l109 508h-4l-438 -508h-359z" />
<glyph unicode="&#x437;" horiz-adv-x="982" d="M-36 37l44 234q66 -32 145.5 -53t159.5 -21q133 0 195 32t62 89q0 55 -62 84t-174 29h-179l39 190h182q126 0 196 33.5t70 88.5q0 49 -51 75t-138 26q-37 0 -78 -5t-81.5 -14t-79.5 -21t-73 -27l47 221q38 11 81 20.5t89.5 16.5t95 10.5t96.5 3.5q187 0 291 -63t104 -191 q0 -46 -15.5 -89t-51 -79t-94.5 -62t-146 -38v-3q61 -6 105.5 -26.5t73 -51t42 -68t13.5 -75.5q0 -37 -9 -75.5t-32 -75t-61.5 -69t-97.5 -56.5t-140 -38t-189 -14q-125 0 -223.5 19.5t-155.5 42.5z" />
<glyph unicode="&#x438;" d="M66 244q0 15 3 40t7.5 52t9 52.5t8.5 43.5l125 592h318l-123 -578q-4 -16 -7.5 -34t-6 -35t-4 -31t-1.5 -22q0 -44 24 -70.5t70 -26.5q50 0 97 28t85 73t65.5 101t39.5 112l103 483h319l-147 -684q-9 -45 -17 -93.5t-14 -93.5t-10 -84.5t-6 -68.5h-320q3 29 6.5 59 t7.5 56.5t7 47.5t4 30h-4q-39 -49 -83.5 -89t-93 -68.5t-100 -44.5t-104.5 -16q-127 0 -192.5 70.5t-65.5 198.5z" />
<glyph unicode="&#x439;" d="M66 244q0 15 3 40t7.5 52t9 52.5t8.5 43.5l125 592h318l-123 -578q-4 -16 -7.5 -34t-6 -35t-4 -31t-1.5 -22q0 -44 24 -70.5t70 -26.5q50 0 97 28t85 73t65.5 101t39.5 112l103 483h319l-147 -684q-9 -45 -17 -93.5t-14 -93.5t-10 -84.5t-6 -68.5h-320q3 29 6.5 59 t7.5 56.5t7 47.5t4 30h-4q-39 -49 -83.5 -89t-93 -68.5t-100 -44.5t-104.5 -16q-127 0 -192.5 70.5t-65.5 198.5zM354 1536h240q1 -34 11.5 -66t31 -56.5t51.5 -39t73 -14.5q41 0 77.5 13.5t66 37.5t51.5 56t35 69h241q-22 -75 -67 -139t-108.5 -110t-144.5 -72t-174 -26 q-81 0 -150.5 25.5t-121 71.5t-81 110t-31.5 140z" />
<glyph unicode="&#x43a;" horiz-adv-x="1140" d="M16 0l217 1024h319l-95 -444h4l407 444h375l-479 -483l264 -541h-352l-225 532h-5l-112 -532h-318z" />
<glyph unicode="&#x43b;" horiz-adv-x="1256" d="M-90 5l43 235q11 -5 29.5 -7.5t38.5 -2.5q57 0 106 38.5t99.5 130.5t106.5 244.5t125 380.5h771l-218 -1024h-317l168 792h-204q-47 -144 -88 -260t-82 -205.5t-84.5 -153.5t-95.5 -105.5t-115.5 -61t-144.5 -19.5q-17 0 -37 1.5t-39.5 4.5t-36 6t-25.5 6z" />
<glyph unicode="&#x43c;" horiz-adv-x="1585" d="M16 0l217 1024h384l70 -584q17 -129 12 -182q15 44 89 180l316 586h454l-217 -1024h-295l169 797q-20 -54 -93 -189l-328 -608h-278l-70 608q-17 151 -13 187l-169 -795h-248z" />
<glyph unicode="&#x43d;" horiz-adv-x="1251" d="M16 0l217 1024h319l-79 -371h355l79 371h317l-217 -1024h-317l89 421h-355l-89 -421h-319z" />
<glyph unicode="&#x43e;" horiz-adv-x="1178" d="M61 408q0 74 15 150.5t46.5 147.5t80.5 133.5t117 109t155.5 73.5t196.5 27q107 0 189.5 -30.5t139 -87t86 -136t29.5 -177.5q0 -71 -14 -146t-44 -146.5t-77.5 -135.5t-115 -111.5t-156 -75.5t-201.5 -28q-114 0 -198.5 33t-139.5 91t-82 137.5t-27 171.5zM379 408 q0 -91 42.5 -141t110.5 -50q65 0 114.5 35t83 91.5t50.5 127.5t17 143q0 42 -10 77.5t-29.5 61t-47.5 40t-65 14.5q-63 0 -112.5 -36t-83.5 -93t-52 -128t-18 -142z" />
<glyph unicode="&#x43f;" d="M16 0l152 702q9 46 18 92.5t16 89t12.5 79t8.5 61.5h312q-3 -28 -6.5 -58.5t-7 -58.5t-6.5 -49.5t-5 -30.5h4q35 46 79 86.5t93.5 70.5t102.5 47.5t106 17.5q127 0 191.5 -70.5t64.5 -198.5q0 -15 -3 -40t-7.5 -52t-9.5 -52.5t-9 -43.5l-125 -592h-317l123 584 q6 32 12 66t6 52q0 48 -24.5 76.5t-73.5 28.5q-41 0 -85.5 -25.5t-83.5 -67.5t-68.5 -96.5t-41.5 -111.5l-106 -506h-322z" />
<glyph unicode="&#x440;" horiz-adv-x="1214" d="M-86 -471l246 1157q6 31 14 76.5t15 93.5t13 93t7 75h311q-1 -15 -3 -38.5t-5 -48.5t-6.5 -48.5t-5.5 -38.5h4q28 42 63 78t77.5 63t93 42.5t108.5 15.5q68 0 124.5 -25t97 -73.5t63 -119t22.5 -161.5q0 -84 -18 -168.5t-53.5 -162t-89.5 -144t-126 -115.5t-162.5 -77 t-199.5 -28q-40 0 -88 6t-82 15l-101 -467h-319zM375 215q12 -4 28.5 -7t34 -5.5t34.5 -4t30 -1.5q74 0 135.5 36.5t105.5 97t68.5 139.5t24.5 163q0 35 -6.5 66.5t-22.5 55.5t-41.5 38t-63.5 14q-56 0 -101 -32.5t-79 -84t-57.5 -115t-36.5 -126.5z" />
<glyph unicode="&#x441;" horiz-adv-x="946" d="M61 397q0 86 19.5 167.5t56.5 153.5t91.5 133t125 105t156 68.5t184.5 24.5q46 0 87 -5.5t75 -14t60 -19t42 -19.5l-57 -248q-34 26 -88 45t-117 19q-73 0 -132 -34t-100 -88t-63 -121t-22 -132q0 -103 48 -159t144 -56q30 0 62.5 6t64.5 16.5t61.5 23.5t53.5 28 l-49 -242q-68 -35 -145 -54.5t-154 -19.5q-100 0 -175.5 31t-126.5 87t-76.5 133.5t-25.5 170.5z" />
<glyph unicode="&#x442;" horiz-adv-x="1866" d="M16 0l152 702q9 46 18 92.5t16 89t12.5 79t8.5 61.5h312q-3 -28 -6.5 -58.5t-7 -58.5t-6.5 -49.5t-5 -30.5h4q37 48 80.5 88.5t91.5 70t99 46.5t102 17q120 0 181 -62t71 -172q38 52 83 95t96 74t106 48t112 17q127 0 191.5 -69.5t64.5 -199.5q0 -15 -3 -40t-7.5 -52 t-9.5 -52.5t-9 -43.5l-125 -592h-317l125 584q6 32 12 66t6 52q0 50 -24 77.5t-74 27.5q-38 0 -81 -26t-81.5 -68t-68 -96t-41.5 -111l-105 -506h-319l125 584q6 32 12 66t6 52q0 50 -24.5 77.5t-73.5 27.5q-39 0 -82 -26t-81 -68.5t-67 -96.5t-41 -110l-108 -506h-320z" />
<glyph unicode="&#x443;" horiz-adv-x="1102" d="M-160 -453l54 244q21 -15 52 -23t62 -8q59 0 110 27.5t89 89.5l82 129l-199 1018h332l72 -623q3 -34 4 -73t-2 -64h4q9 25 23 62t34 75l313 623h332l-651 -1114q-51 -89 -105.5 -161.5t-118.5 -123.5t-141.5 -78.5t-175.5 -27.5q-34 0 -81.5 6.5t-88.5 21.5z" />
<glyph unicode="&#x444;" horiz-adv-x="1752" d="M61 372q0 141 38.5 264.5t113 215t184 144t250.5 52.5q25 0 52 -3t52.5 -9t46 -13.5t31.5 -16.5l53 217q19 77 51.5 135t82.5 96.5t119.5 58t160.5 19.5q26 0 54 -2t54 -5.5t49 -8t39 -9.5l-44 -225q-27 10 -57 17t-58 7q-58 0 -93 -27.5t-55 -73t-31.5 -103.5 t-23.5 -119h4q51 31 106 47.5t129 16.5q71 0 130 -26.5t101.5 -77t66.5 -124.5t24 -169q0 -141 -38.5 -264t-113 -214.5t-184 -144.5t-250.5 -53q-25 0 -52 3t-52.5 9t-46 13.5t-31.5 16.5l-18 -81q-21 -93 -55.5 -168.5t-89 -129t-131.5 -82.5t-182 -29q-23 0 -48 2 t-49 5.5t-46 8t-38 9.5l45 220q10 -4 24 -8t29 -7.5t29.5 -5.5t26.5 -2q39 0 69 14.5t52 40t37 61.5t25 79l21 94h-5q-51 -31 -106.5 -46.5t-129.5 -15.5q-70 0 -129.5 26.5t-102 77t-66.5 124.5t-24 169zM378 405q0 -38 7 -72.5t22.5 -60.5t40 -41.5t58.5 -15.5q49 0 90 15 t75 40l115 524q-15 16 -46.5 27.5t-69.5 11.5q-69 0 -123 -38t-91.5 -99t-57.5 -137.5t-20 -153.5zM966 228q15 -16 46.5 -27.5t69.5 -11.5q69 0 123 38t91.5 99t57.5 137.5t20 153.5q0 38 -7 72.5t-22.5 60.5t-40 41.5t-58.5 15.5q-49 0 -90 -15t-75 -40z" />
<glyph unicode="&#x445;" horiz-adv-x="1122" d="M-104 0l456 518l-219 506h352l84 -270q10 -26 17 -56.5t10 -50.5h4q12 22 32 51.5t36 51.5l200 274h359l-447 -510l228 -514h-351l-92 268q-8 23 -15 49.5t-13 51.5h-5q-15 -25 -30 -51t-31 -46l-203 -272h-372z" />
<glyph unicode="&#x446;" horiz-adv-x="1284" d="M66 244q0 15 3 40t7.5 52t9 52.5t8.5 43.5l125 592h318l-123 -578q-4 -16 -7.5 -34t-6 -35t-4 -31t-1.5 -22q0 -44 24 -70.5t70 -26.5q50 0 97 28t85 73t65.5 101t39.5 112l103 483h319l-145 -675q-2 -11 -5 -30t-3 -32t3.5 -25t12.5 -21.5t25 -15.5t42 -6q11 0 25.5 1 t28.5 2l32 2l-135 -601h-264l102 366q-105 0 -158 32.5t-53 104.5q0 19 1 34.5t4 32.5h-4q-39 -49 -83.5 -89t-93.5 -68.5t-101 -44.5t-105 -16q-127 0 -192.5 70.5t-65.5 198.5z" />
<glyph unicode="&#x447;" horiz-adv-x="1194" d="M116 603q0 35 5 68t13 71l62 282h312q-10 -47 -21 -95q-9 -41 -19 -88t-19 -89q-5 -20 -8 -43.5t-3 -37.5q0 -21 5.5 -39.5t18 -32t34 -21t53.5 -7.5q54 0 106.5 16t106.5 43l4 17t10 44.5t13.5 63t15.5 72.5q18 87 42 197h320l-217 -1024h-320l88 418q-68 -33 -151 -57 t-169 -24q-70 0 -122.5 20.5t-88 56t-53.5 84t-18 105.5z" />
<glyph unicode="&#x448;" horiz-adv-x="1821" d="M66 236q0 38 8 89t17 92l127 607h320l-122 -571q-8 -36 -14.5 -71.5t-6.5 -57.5q0 -47 20.5 -75.5t65.5 -28.5q34 0 74.5 25.5t77.5 68t66.5 98t41.5 116.5l106 496h316l-121 -571q-9 -42 -14 -77t-5 -57q0 -44 19 -71t64 -27q35 0 75 24.5t76.5 66.5t66.5 98t43 119 l106 495h321l-150 -699q-9 -42 -17.5 -88t-15.5 -89.5t-13 -82t-9 -65.5h-315q2 22 6 53.5t8.5 63t8.5 58t7 38.5h-4q-40 -52 -86 -95.5t-95 -75t-100 -49.5t-101 -18q-60 0 -101.5 18t-68 51.5t-39 80.5t-15.5 104q-41 -58 -89.5 -105t-100.5 -80t-106 -51t-106 -18 q-109 0 -167.5 64.5t-58.5 196.5z" />
<glyph unicode="&#x449;" horiz-adv-x="1879" d="M66 236q0 38 8 89t17 92l127 607h320l-122 -571q-8 -36 -14.5 -71.5t-6.5 -57.5q0 -47 20.5 -75.5t65.5 -28.5q34 0 74.5 25.5t77.5 68t66.5 98t41.5 116.5l106 496h316l-121 -571q-9 -42 -14 -77t-5 -57q0 -44 19 -71t64 -27q35 0 75 24.5t76.5 66.5t66.5 98t43 119 l106 495h321l-145 -675q-2 -11 -5.5 -30t-3.5 -32t3.5 -25t12.5 -21.5t25 -15.5t42 -6q11 0 25.5 0.5t27.5 1.5t22.5 2t10.5 1q-33 -152 -67 -300.5t-68 -300.5h-264q27 93 51.5 183t50.5 183q-105 0 -158 32.5t-53 104.5q0 9 1 21.5t2 25.5t3 24.5t3 20.5h-4 q-40 -52 -87 -96.5t-97 -77t-102 -51t-102 -18.5q-60 0 -101.5 18t-68 51.5t-39 80.5t-15.5 104q-41 -58 -89.5 -105t-100.5 -80t-106 -51t-106 -18q-109 0 -167.5 64.5t-58.5 196.5z" />
<glyph unicode="&#x44a;" horiz-adv-x="1336" d="M48 792q13 60 24 115.5t25 116.5h631q-20 -96 -41 -193.5t-41 -192.5q51 14 123.5 25.5t157.5 11.5q78 0 140.5 -19t106 -55.5t67 -91t23.5 -126.5q0 -82 -34 -156.5t-100.5 -130t-165 -88.5t-228.5 -33q-114 0 -197.5 18.5t-139 61.5t-82.5 112.5t-27 171.5 q0 52 6.5 107.5t15.5 100.5l53 254l-285 -9h-32zM594 335q0 -76 34.5 -112t119.5 -36q48 0 87.5 12.5t67 34.5t42.5 52t15 65q0 63 -36.5 92.5t-103.5 29.5q-57 0 -113 -9.5t-101 -21.5q-5 -21 -8.5 -52.5t-3.5 -54.5z" />
<glyph unicode="&#x44b;" horiz-adv-x="1661" d="M87 343q0 23 2 49.5t5 53.5t7 53t8 48l97 477h319q-20 -96 -41 -193.5t-41 -192.5q48 14 116 25.5t147 11.5q73 0 131 -19t99 -55.5t63 -91t22 -126.5q0 -82 -32.5 -156.5t-96.5 -130t-158.5 -88.5t-218.5 -33q-114 0 -195 21t-132.5 65.5t-76 114t-24.5 167.5zM391 328 q0 -68 30.5 -104.5t107.5 -36.5q43 0 77.5 12.5t59 34.5t38 52t13.5 65q0 63 -32 92.5t-92 29.5q-51 0 -100.5 -9.5t-89.5 -21.5q-2 -10 -4.5 -25t-4 -31t-2.5 -31.5t-1 -26.5zM1099 0q54 257 108.5 512t108.5 512h318q-54 -257 -108.5 -512t-108.5 -512h-318z" />
<glyph unicode="&#x44c;" horiz-adv-x="1133" d="M87 339q0 23 2 50t5 54.5t7 54.5t8 49l97 477h319q-20 -96 -41 -193.5t-41 -192.5q51 14 123.5 25.5t157.5 11.5q78 0 140.5 -19t106 -55.5t67 -91t23.5 -126.5q0 -82 -34 -156.5t-100.5 -130t-165 -88.5t-228.5 -33q-117 0 -201.5 19.5t-139 63t-80 113t-25.5 168.5z M391 335q0 -79 35.5 -113.5t118.5 -34.5q48 0 87.5 12.5t67 34.5t42.5 52t15 65q0 63 -36.5 92.5t-103.5 29.5q-57 0 -113 -9.5t-101 -21.5q-5 -21 -8.5 -52.5t-3.5 -54.5z" />
<glyph unicode="&#x44d;" horiz-adv-x="966" d="M-19 31q6 27 11 58.5t10.5 64t10.5 64t11 59.5q14 -9 38.5 -20t55.5 -20t66 -15t70 -6q145 0 224 55t104 152h-428q10 47 19.5 94t19.5 94h410q1 5 1.5 11t0.5 11q0 28 -10 58.5t-36 56.5t-72.5 43t-118.5 17q-67 0 -131 -17.5t-112 -41.5q7 28 14 61.5t13.5 67.5 t13.5 67.5t14 61.5q27 9 61.5 16.5t74 13.5t81.5 9t82 3q107 0 187 -32.5t133 -89.5t79 -135.5t26 -170.5q0 -80 -16 -159.5t-49 -151t-84 -133t-121.5 -106.5t-161.5 -70.5t-203 -25.5q-47 0 -91.5 5t-82.5 13t-67.5 18t-46.5 20z" />
<glyph unicode="&#x44e;" horiz-adv-x="1695" d="M16 0l217 1024h319l-79 -371h188q26 78 71 149.5t112 126.5t157.5 87.5t207.5 32.5q108 0 187.5 -31.5t132.5 -88.5t79 -136.5t26 -176.5q0 -65 -11.5 -137.5t-38.5 -144t-71 -136.5t-108.5 -114.5t-151.5 -79t-200 -29.5q-111 0 -192 33.5t-133.5 92t-78 137 t-25.5 167.5q0 2 0.5 5t0.5 5v6h-201l-89 -421h-319zM940 409q0 -91 36.5 -142t105.5 -51q62 0 106 37.5t72.5 95.5t41.5 128.5t13 135.5q0 87 -34.5 140.5t-106.5 53.5q-40 0 -73.5 -17.5t-59.5 -47.5t-45 -70t-31.5 -84t-18.5 -90t-6 -89z" />
<glyph unicode="&#x44f;" horiz-adv-x="1188" d="M-61 0l175 268q50 77 111.5 124.5t149.5 67.5q-45 9 -83.5 31t-67 54t-44.5 71.5t-16 83.5q0 65 21.5 123.5t75.5 103t144.5 71t228.5 26.5h527l-217 -1024h-317l80 378h-82q-24 0 -48 -7t-48.5 -24.5t-49 -46t-50.5 -72.5l-135 -228h-355zM480 684q0 -31 12 -54 t33.5 -38t51 -22.5t64.5 -7.5h104l57 266h-127q-93 0 -144 -35t-51 -109z" />
<glyph unicode="&#x450;" horiz-adv-x="1065" d="M61 399q0 131 43.5 249t124 207t194 141.5t253.5 52.5q101 0 172 -24t116 -64.5t66 -92.5t21 -108q0 -79 -33.5 -145t-112 -114t-208.5 -75.5t-324 -30.5q-2 -6 -2 -10.5v-9.5q0 -31 10 -62t34.5 -56t64.5 -40.5t100 -15.5q36 0 78.5 6.5t86.5 19t87.5 30t80.5 38.5 l-49 -236q-31 -16 -71 -31t-86.5 -27t-99 -19t-107.5 -7q-116 0 -199 34t-136.5 91.5t-78.5 134.5t-25 164zM393 590q180 -2 268.5 41t88.5 125q0 37 -27.5 61.5t-77.5 24.5q-44 0 -84.5 -19t-74 -52.5t-57.5 -80t-36 -100.5zM400 1511h264l209 -325h-213z" />
<glyph unicode="&#x451;" horiz-adv-x="1065" d="M61 399q0 131 43.5 249t124 207t194 141.5t253.5 52.5q101 0 172 -24t116 -64.5t66 -92.5t21 -108q0 -79 -33.5 -145t-112 -114t-208.5 -75.5t-324 -30.5q-2 -6 -2 -10.5v-9.5q0 -31 10 -62t34.5 -56t64.5 -40.5t100 -15.5q36 0 78.5 6.5t86.5 19t87.5 30t80.5 38.5 l-49 -236q-31 -16 -71 -31t-86.5 -27t-99 -19t-107.5 -7q-116 0 -199 34t-136.5 91.5t-78.5 134.5t-25 164zM333 1325q0 30 12 55t33 42.5t49.5 27.5t61.5 10q34 0 62 -10t48.5 -28t31.5 -43t11 -54t-11 -54.5t-31 -44t-48 -29.5t-63 -11q-34 0 -63 11t-49.5 30t-32 44.5 t-11.5 53.5zM393 590q180 -2 268.5 41t88.5 125q0 37 -27.5 61.5t-77.5 24.5q-44 0 -84.5 -19t-74 -52.5t-57.5 -80t-36 -100.5zM792 1325q0 30 11.5 55t32.5 42.5t49 27.5t61 10q34 0 62 -10t48.5 -28t31.5 -43t11 -54t-10.5 -54.5t-30.5 -44t-48.5 -29.5t-63.5 -11 t-63.5 11t-48.5 30t-31 44.5t-11 53.5z" />
<glyph unicode="&#x452;" horiz-adv-x="1239" d="M17 0l249 1179h-111l35 159h111l38 178h319l-39 -178h314l-35 -159h-312l-82 -393h4q39 52 84 95.5t94.5 75t102 49.5t105.5 18q58 0 105 -22t80.5 -66t51.5 -109.5t18 -151.5q0 -111 -15 -238.5t-48 -253.5t-86 -242t-128.5 -205t-175.5 -142t-228 -53q-40 0 -83 7 t-69 18q12 58 24 116.5t25 116.5q18 -11 42 -19t50 -8q49 0 90.5 28t76 75.5t63 110t50.5 131.5t38.5 140t27 135.5t15.5 118t5 87.5q0 37 -6 70.5t-20 59t-36.5 41t-55.5 15.5q-28 0 -57.5 -13.5t-57.5 -37t-53.5 -54t-46.5 -65.5t-36 -72t-22 -72q-2 -10 -7 -36t-12.5 -61 t-16 -76.5t-16.5 -82.5q-19 -97 -43 -214h-320z" />
<glyph unicode="&#x453;" horiz-adv-x="931" d="M23 261q0 90 37 150.5t94.5 101.5t126 67.5t131.5 48.5q41 14 73 27.5t55 29t35 33.5t12 42q0 71 -118 71q-35 0 -74 -5.5t-76.5 -14.5t-71 -20t-56.5 -22q13 58 25 118t24 119q29 9 66.5 16.5t78.5 13t83.5 9t80.5 3.5q90 0 155 -20t107.5 -56t63 -86t20.5 -110 q0 -76 -27.5 -130.5t-73 -93.5t-104.5 -66t-122 -49q-53 -18 -98.5 -34.5t-78.5 -34.5t-52 -40.5t-19 -54.5q0 -37 32.5 -60.5t105.5 -23.5q39 0 81 6.5t84 18t83.5 27.5t79.5 35q-13 -61 -25.5 -124.5t-25.5 -124.5q-71 -25 -159 -39t-185 -14q-102 0 -172.5 23t-114 62 t-62.5 91t-19 110zM470 1186l315 325h289l-369 -325h-235z" />
<glyph unicode="&#x454;" horiz-adv-x="947" d="M61 397q0 86 19.5 167.5t56.5 153.5t91.5 133t125 105t156 68.5t184.5 24.5q46 0 87 -5.5t75 -14t60 -19t42 -19.5l-57 -248q-34 26 -88 45t-117 19q-48 0 -91 -14.5t-78.5 -41t-62.5 -62.5t-43 -78h388q-10 -48 -19.5 -94t-19.5 -94h-391q1 -101 49 -153.5t143 -52.5 q30 0 62.5 6t64.5 16.5t61.5 23.5t53.5 28l-49 -242q-68 -35 -145 -54.5t-154 -19.5q-100 0 -175.5 31t-126.5 87t-76.5 133.5t-25.5 170.5z" />
<glyph unicode="&#x455;" horiz-adv-x="899" d="M4 29l47 241q26 -14 60 -28t72.5 -25.5t79.5 -19t81 -7.5q75 0 111.5 26t36.5 71q0 38 -28 66.5t-97 60.5q-57 27 -100.5 56t-73.5 64t-45 78t-15 97q0 57 22.5 117.5t74.5 110t137.5 81t210.5 31.5q38 0 78 -3.5t78 -9.5t72 -14t60 -16l-49 -238q-21 11 -49 22t-59.5 20 t-64.5 15t-64 6q-73 0 -104.5 -28t-31.5 -68q0 -41 31 -67t82 -52q60 -29 105 -58t75 -64t45 -78.5t15 -100.5q0 -61 -25 -122t-81 -109.5t-147.5 -78.5t-224.5 -30q-38 0 -81 4t-85 11t-80.5 17t-68.5 22z" />
<glyph unicode="&#x456;" horiz-adv-x="650" d="M79 217q0 22 2.5 49t6.5 56.5t9.5 60t11.5 58.5q4 17 13.5 62.5t22 104.5t26.5 124.5t26.5 124.5t22 104.5t13.5 62.5h320l-122 -576q-8 -35 -17 -78.5t-9 -75.5q0 -38 24 -53t55 -15q26 0 52.5 5.5t48.5 14.5q-13 -60 -25 -118.5t-25 -118.5q-18 -5 -41.5 -10t-50 -9.5 t-55 -7t-56.5 -2.5q-67 0 -114.5 17.5t-78.5 49t-45.5 75t-14.5 95.5zM272 1337q0 39 14.5 70t40 53.5t60.5 34.5t76 12q38 0 70 -11.5t55.5 -32t37 -48.5t13.5 -61q0 -39 -15 -70t-40.5 -53.5t-60 -34.5t-74.5 -12q-38 0 -70.5 11.5t-56 32t-37 48.5t-13.5 61z" />
<glyph unicode="&#x457;" horiz-adv-x="650" d="M52 1325q0 30 12 55t33 42.5t49.5 27.5t61.5 10q34 0 62 -10t48.5 -28t31.5 -43t11 -54t-11 -54.5t-31 -44t-48 -29.5t-63 -11q-34 0 -63 11t-49.5 30t-32 44.5t-11.5 53.5zM79 217q0 22 2.5 49t6.5 56.5t9.5 60t11.5 58.5q4 17 13.5 62.5t22 104.5t26.5 124.5 t26.5 124.5t22 104.5t13.5 62.5h320l-122 -576q-8 -35 -17 -78.5t-9 -75.5q0 -38 24 -53t55 -15q26 0 52.5 5.5t48.5 14.5q-13 -60 -25 -118.5t-25 -118.5q-18 -5 -41.5 -10t-50 -9.5t-55 -7t-56.5 -2.5q-67 0 -114.5 17.5t-78.5 49t-45.5 75t-14.5 95.5zM511 1325 q0 30 11.5 55t32.5 42.5t49 27.5t61 10q34 0 62 -10t48.5 -28t31.5 -43t11 -54t-10.5 -54.5t-30.5 -44t-48.5 -29.5t-63.5 -11t-63.5 11t-48.5 30t-31 44.5t-11 53.5z" />
<glyph unicode="&#x458;" horiz-adv-x="538" d="M-344 -449l51 242q9 -6 21.5 -12t27 -10.5t29.5 -7.5t27 -3q75 0 127 61t81 199l213 1004h320l-207 -971q-23 -108 -61.5 -205t-101 -170t-152.5 -116t-215 -43q-44 0 -88 9t-72 23zM272 1337q0 39 14.5 70t40 53.5t60.5 34.5t76 12q38 0 70 -11.5t55.5 -32t37 -48.5 t13.5 -61q0 -39 -15 -70t-40.5 -53.5t-60 -34.5t-74.5 -12q-38 0 -70.5 11.5t-56 32t-37 48.5t-13.5 61z" />
<glyph unicode="&#x459;" horiz-adv-x="1796" d="M-90 5l43 235q11 -5 29.5 -7.5t38.5 -2.5q57 0 106 38.5t99.5 130.5t106.5 244.5t125 380.5h770q-20 -96 -41 -193.5t-41 -192.5q48 14 116 25.5t147 11.5q73 0 131 -19t99 -55.5t63 -91t22 -126.5q0 -82 -32.5 -156.5t-96.5 -130t-158.5 -88.5t-218.5 -33 q-114 0 -195 21t-132.5 65.5t-76 114t-24.5 167.5q0 23 2 49.5t5 53.5t7 53t8 48l50 245h-204q-47 -144 -88 -260t-82 -205.5t-84.5 -153.5t-95.5 -105.5t-115.5 -61t-144.5 -19.5q-17 0 -37 1.5t-39.5 4.5t-36 6t-25.5 6zM1094 328q0 -68 30.5 -104.5t107.5 -36.5 q43 0 77.5 12.5t59 34.5t38 52t13.5 65q0 63 -32 92.5t-92 29.5q-51 0 -100.5 -9.5t-89.5 -21.5q-2 -10 -4.5 -25t-4 -31t-2.5 -31.5t-1 -26.5z" />
<glyph unicode="&#x45a;" horiz-adv-x="1763" d="M16 0q54 257 108.5 512t108.5 512h319q-20 -97 -40 -191t-41 -190h327l78 381h319q-20 -96 -41 -193.5t-41 -192.5q48 14 116 25.5t147 11.5q73 0 131 -19t99 -55.5t63 -91t22 -126.5q0 -82 -32.5 -156.5t-96.5 -130t-158.5 -88.5t-218.5 -33q-114 0 -195 21t-132.5 65.5 t-76 114t-24.5 167.5q0 19 1 40t3 44h-336q-23 -107 -45 -213.5t-45 -213.5h-319zM1061 328q0 -68 30.5 -104.5t107.5 -36.5q43 0 77.5 12.5t59 34.5t38 52t13.5 65q0 63 -32 92.5t-92 29.5q-51 0 -100.5 -9.5t-89.5 -21.5q-2 -10 -4.5 -25t-4 -31t-2.5 -31.5t-1 -26.5z" />
<glyph unicode="&#x45b;" d="M16 0l251 1179h-112l33 159h112l38 178h319l-38 -178h328l-33 -159h-328l-76 -352h4q37 48 81.5 88.5t94 70t102 46.5t103.5 17q125 0 190.5 -69.5t65.5 -199.5q0 -15 -3 -40t-7.5 -52t-9.5 -52.5t-9 -43.5l-125 -592h-317l123 584q6 32 12 66t6 52q0 50 -25.5 77.5 t-74.5 27.5q-39 0 -82.5 -24.5t-82.5 -65.5t-70 -96t-44 -117l-106 -504h-320z" />
<glyph unicode="&#x45c;" horiz-adv-x="1140" d="M16 0l217 1024h319l-95 -444h4l407 444h375l-479 -483l264 -541h-352l-225 532h-5l-112 -532h-318zM548 1186l315 325h289l-369 -325h-235z" />
<glyph unicode="&#x45d;" d="M66 244q0 15 3 40t7.5 52t9 52.5t8.5 43.5l125 592h318l-123 -578q-4 -16 -7.5 -34t-6 -35t-4 -31t-1.5 -22q0 -44 24 -70.5t70 -26.5q50 0 97 28t85 73t65.5 101t39.5 112l103 483h319l-147 -684q-9 -45 -17 -93.5t-14 -93.5t-10 -84.5t-6 -68.5h-320q3 29 6.5 59 t7.5 56.5t7 47.5t4 30h-4q-39 -49 -83.5 -89t-93 -68.5t-100 -44.5t-104.5 -16q-127 0 -192.5 70.5t-65.5 198.5zM455 1511h264l209 -325h-213z" />
<glyph unicode="&#x45e;" horiz-adv-x="1102" d="M-160 -453l54 244q21 -15 52 -23t62 -8q59 0 110 27.5t89 89.5l82 129l-199 1018h332l72 -623q3 -34 4 -73t-2 -64h4q9 25 23 62t34 75l313 623h332l-651 -1114q-51 -89 -105.5 -161.5t-118.5 -123.5t-141.5 -78.5t-175.5 -27.5q-34 0 -81.5 6.5t-88.5 21.5zM269 1535 h240q1 -34 11.5 -66t31 -56.5t51.5 -39t73 -14.5q41 0 77.5 13.5t66 37.5t51.5 56t35 69h241q-22 -75 -67 -139t-108.5 -110t-144.5 -72t-174 -26q-81 0 -150.5 25.5t-121 71.5t-81 110t-31.5 140z" />
<glyph unicode="&#x45f;" d="M66 244q0 15 3 40t7.5 52t9 52.5t8.5 43.5l125 592h318l-123 -578q-4 -16 -7.5 -34t-6 -35t-4 -31t-1.5 -22q0 -44 24 -70.5t70 -26.5q50 0 97 28t85 73t65.5 101t39.5 112l103 483h319l-147 -684q-9 -45 -17 -93.5t-14 -93.5t-10 -84.5t-6 -68.5h-320q3 29 6.5 59 t7.5 56.5t7 47.5t4 30h-4q-39 -49 -83.5 -89t-93 -68.5t-100 -44.5t-104.5 -16q-127 0 -192.5 70.5t-65.5 198.5zM281 -471l103 389h244l-82 -389h-265z" />
<glyph unicode="&#x460;" horiz-adv-x="2432" d="M111 612q0 115 21.5 224t64.5 205.5t107.5 177t151 138.5t194.5 90t238 32q114 0 198.5 -24t148.5 -58l-50 -291q-26 18 -61 36t-74.5 31.5t-82 22t-84.5 8.5q-96 0 -175.5 -41.5t-136.5 -117.5t-88.5 -182.5t-31.5 -235.5q0 -91 25 -163t71.5 -121t112.5 -75t147 -26 q54 0 101 6.5t76 15.5l61 291h-291l55 258h900l-52 -258h-290l-57 -271q48 -14 101 -23t110 -9q122 0 219 36t164.5 107t103 177.5t35.5 247.5q0 95 -25.5 162.5t-68 110t-97.5 62.5t-115 20q-41 0 -87 -5t-90 -13.5t-82.5 -20.5t-64.5 -26q14 69 28.5 147.5t28.5 147.5 q60 22 133.5 37.5t169.5 15.5q148 0 263 -45t193.5 -126t119 -192.5t40.5 -244.5q0 -94 -17.5 -195t-58 -198.5t-106.5 -185t-163.5 -153t-228.5 -104.5t-302 -39q-54 0 -107.5 5t-102 13.5t-90 19t-73.5 22.5q-78 -26 -173.5 -43t-204.5 -17q-154 0 -275.5 46t-204.5 130 t-127 201.5t-44 259.5z" />
<glyph unicode="&#x461;" horiz-adv-x="1526" d="M87 727q0 143 29 297h295q-14 -72 -21 -141.5t-7 -138.5q0 -10 0.5 -19.5t0.5 -19.5q2 -77 15.5 -173.5t37.5 -214.5l203 318q-3 38 -5 74t-2 71q0 133 24 244h305q-18 -106 -18 -240q0 -201 42 -467l347 707h293l-555 -1024h-299l-68 369l-229 -369h-269 q-52 221 -80.5 377.5t-35.5 252.5q-3 48 -3 97z" />
<glyph unicode="&#x462;" horiz-adv-x="1438" d="M136 1090l50 237h264l23 107h324l-23 -107h267l-50 -237h-267l-50 -237h226q119 0 206 -30t144 -82.5t85 -125t28 -158.5q0 -87 -29 -169t-99.5 -146t-188.5 -103t-295 -39h-582l231 1090h-264zM542 238h194q75 0 128.5 15.5t87.5 43t50 65.5t16 83q0 83 -53 127t-159 44 h-184z" />
<glyph unicode="&#x463;" horiz-adv-x="1247" d="M138 0l251 1179h-239l32 159h239l40 178h315l-40 -178h240l-32 -159h-240l-109 -513h210q84 0 152.5 -18t116.5 -54.5t74.5 -91t26.5 -126.5q0 -88 -31.5 -157.5t-88.5 -118t-137 -74.5t-176 -26h-604zM496 201h161q89 0 137 39.5t48 116.5q0 52 -36.5 81t-102.5 29h-150 z" />
<glyph unicode="&#x464;" horiz-adv-x="1974" d="M49 0l305 1434h323l-126 -594h272q30 126 95.5 238.5t171 197t253 133.5t341.5 49q113 0 207.5 -20t162.5 -44l-61 -305q-61 36 -149 60.5t-191 24.5q-105 0 -186.5 -24t-140.5 -66.5t-96.5 -102t-55.5 -130.5h575l-54 -256h-551q-2 -6 -2 -15v-20q0 -31 7 -66t23 -69 t43.5 -65t68 -55t96.5 -38t129 -14q92 0 176.5 24t153.5 59l-62 -301q-33 -13 -69.5 -24t-79.5 -19t-93 -12.5t-110 -4.5q-158 0 -275 45t-195 126t-117.5 193t-41.5 245h-300l-124 -584h-323z" />
<glyph unicode="&#x465;" horiz-adv-x="1531" d="M24 0l217 1024h316l-88 -414l208 1q29 93 82.5 173t130 139t174 92.5t214.5 33.5q46 0 87 -5.5t75 -14t60 -19t42 -19.5l-57 -248q-34 26 -88 45t-117 19q-48 0 -91 -14.5t-78.5 -41t-62.5 -62.5t-43 -78h388q-10 -48 -19.5 -94t-19.5 -94h-391q1 -101 49 -153.5 t143 -52.5q30 0 62.5 6t64.5 16.5t61.5 23.5t53.5 28l-49 -242q-68 -35 -145 -54.5t-154 -19.5q-100 0 -175.5 31t-126.5 87t-76.5 133.5t-25.5 170.5v9h-219l-86 -406h-316z" />
<glyph unicode="&#x466;" horiz-adv-x="1465" d="M-138 0l827 1434h403l205 -1434h-310l-58 463l-131 -123l-72 -340h-254l72 340l-79 138l-258 -478h-345zM609 733l102 -174l184 174l-32 350q-2 23 -3 44t-1 41t1 37t3 34h-8q-20 -70 -63 -152z" />
<glyph unicode="&#x467;" horiz-adv-x="1157" d="M-104 0l620 1024h348l180 -1024h-279l-47 317l-87 -73l-52 -244h-213l52 244l-49 80l-183 -324h-290zM485 524l75 -112l128 112l-29 223q0 1 -0.5 7t-1.5 13t-1.5 13.5t-0.5 9.5q0 14 2.5 32t6.5 42h-9q-4 -17 -12.5 -42t-22.5 -58z" />
<glyph unicode="&#x468;" horiz-adv-x="2024" d="M49 0l305 1434h323l-125 -586h395l338 586h403l205 -1434h-310l-58 463l-131 -123l-72 -340h-254l72 340l-79 138l-258 -478h-345l338 586h-299l-125 -586h-323zM1205 733l102 -174l184 174l-32 350q-2 23 -3 44t-1 41t1 37t3 34h-8q-20 -70 -63 -152z" />
<glyph unicode="&#x469;" horiz-adv-x="1677" d="M17 0l217 1024h316l-84 -399h320l242 399h348l180 -1024h-279l-47 317l-87 -73l-52 -244h-213l52 244l-49 80l-183 -324h-290l252 416h-239l-88 -416h-316zM997 524l75 -112l128 112l-29 223q0 1 -0.5 7t-1.5 13t-1.5 13.5t-0.5 9.5q0 14 2.5 32t6.5 42h-9 q-4 -17 -12.5 -42t-22.5 -58z" />
<glyph unicode="&#x46a;" horiz-adv-x="1643" d="M-111 0q54 102 98.5 182.5t87 144.5t88 116t102 97t128.5 87.5t168 87.5l-251 719h1385l-568 -717q80 -47 135 -90.5t92.5 -89.5t60.5 -98t37.5 -116t24 -143.5t21.5 -179.5h-299q-11 71 -18 125.5t-15.5 97.5t-21.5 78t-35.5 68t-58 67t-89.5 75l-108 -511h-324l106 498 q-65 -38 -112 -70.5t-82 -64t-62.5 -66t-54 -77t-56.5 -96.5t-70 -124h-309zM729 1196l102 -332q8 -25 12 -52t6 -56h4q13 28 28 54t33 50l245 336h-430z" />
<glyph unicode="&#x46b;" horiz-adv-x="1321" d="M-102 0q132 252 239 353q106 102 281 171l-214 500h1133l-434 -498q148 -69 212 -172t91 -354h-254q-20 136 -36 188q-16 54 -56 93t-100 71l-74 -352h-275l74 348q-115 -51 -172 -112q-28 -31 -66.5 -89.5t-87.5 -146.5h-261zM577 831l66 -206q11 -38 14 -78h4 q8 17 19.5 35.5t27.5 40.5l150 208h-281z" />
<glyph unicode="&#x46c;" horiz-adv-x="2194" d="M49 0l305 1434h323l-126 -594h547l-207 594h1385l-568 -717q80 -47 135 -90.5t92.5 -89.5t60.5 -98t37.5 -116t24 -143.5t21.5 -179.5h-299q-11 71 -18 125.5t-15.5 97.5t-21.5 78t-35.5 68t-58 67t-89.5 75l-108 -511h-324l106 498q-65 -38 -112 -70.5t-82 -64 t-62.5 -66t-54 -77t-56.5 -96.5t-70 -124h-309q62 117 111.5 205t98.5 157t104.5 124t129.5 104h-416l-126 -590h-323zM1310 1196l102 -332q8 -25 12 -52t6 -56h4q13 28 28 54t33 50l245 336h-430z" />
<glyph unicode="&#x46d;" horiz-adv-x="1833" d="M16 0l217 1024h316l-83 -391h427l-167 391h1133l-434 -498q148 -69 212 -172t91 -354h-254q-20 136 -36 188q-16 54 -56 93t-100 71l-74 -352h-275l74 348q-115 -51 -172 -112q-28 -31 -66.5 -89.5t-87.5 -146.5h-261q132 252 239 353q18 17 37.5 33t41.5 32h-317 l-89 -418h-316zM1099 831l66 -206q11 -38 14 -78h4q8 17 19.5 35.5t27.5 40.5l150 208h-281z" />
<glyph unicode="&#x46e;" horiz-adv-x="1144" d="M-116 -117q0 90 29.5 157.5t82 112.5t124 67.5t155.5 22.5q10 0 35 -1t55.5 -2.5t62.5 -2.5t56 -1q71 0 118.5 17.5t76 45.5t40 63t11.5 69q0 83 -59 128t-190 45h-186l51 264h194q142 0 219.5 47t77.5 144q0 30 -11.5 55.5t-36 44t-62.5 29t-92 10.5q-40 0 -88 -7.5 t-96 -20t-91.5 -28t-76.5 -31.5l50 278q33 12 77 24.5t91.5 22t95.5 14.5l-133 264h205l115 -188l196 188h205l-260 -284q80 -26 134 -71.5t80.5 -109.5t26.5 -139q0 -63 -20.5 -123t-65.5 -110.5t-115.5 -86.5t-170.5 -50v-4q63 -13 112 -41.5t83 -70t51.5 -94.5t17.5 -115 q0 -48 -12 -99.5t-39.5 -100t-71 -92.5t-107 -76.5t-148 -52t-192.5 -19.5q-21 0 -48 1.5t-55.5 3t-55 3t-46.5 1.5q-46 0 -76 -20.5t-30 -64.5q0 -38 26 -59.5t86 -21.5q58 0 182 30q127 29 187 29q93 0 141 -50.5t48 -142.5q0 -41 -11 -94h-256q1 4 1 7.5v6.5q0 34 -56 34 q-36 0 -170 -30q-133 -30 -182 -30q-77 0 -131.5 24.5t-89.5 66.5t-51.5 97.5t-16.5 116.5z" />
<glyph unicode="&#x46f;" horiz-adv-x="963" d="M-101 -160q0 81 28 147t79.5 112.5t124.5 72t163 25.5q133 0 195 32t62 89q0 55 -62 84t-174 29h-179l39 190h182q126 0 196 33.5t70 88.5q0 49 -51 75t-138 26q-37 0 -78 -5t-81.5 -14t-79.5 -21t-73 -27l47 221q38 11 96.5 23.5t123.5 19.5l-132 261h205l115 -188 l196 188h205l-258 -274q58 -16 102 -42q104 -63 104 -191q0 -46 -15.5 -89t-51 -79t-94.5 -62t-146 -38v-3q61 -6 105.5 -26.5t73 -51t42 -68t13.5 -75.5q0 -37 -8 -75.5t-29 -75t-57 -69t-93 -56.5t-137 -38t-188 -14q-81 0 -128 -25t-47 -71q0 -30 21 -51t75 -21 q49 0 150 29q102 29 171 29q88 0 132.5 -49t44.5 -137q0 -43 -10 -89h-248q2 8 2 17q0 14 -10 23.5t-34 9.5q-14 0 -50 -7.5t-89 -22.5q-105 -30 -159 -30q-131 0 -197 69t-66 191z" />
<glyph unicode="&#x470;" horiz-adv-x="1708" d="M247 1434h278l9 -609q1 -109 38 -156q18 -23 54 -34.5t84 -11.5h27l172 811h278l-172 -811h25q265 0 326 295l110 516h285l-115 -539q-51 -243 -236 -392t-428 -149h-25l-75 -354h-278l75 354h-25q-212 0 -307 105q-94 107 -96 342z" />
<glyph unicode="&#x471;" horiz-adv-x="1621" d="M142 1024h289l22 -600q8 -203 124 -203h26l170 803h284l-170 -803h15q107 0 189 88q84 90 118 250l98 465h297l-98 -465q-58 -269 -234 -427q-175 -157 -411 -157h-27l-97 -456h-284l97 456h-19q-103 0 -170.5 28t-109 83.5t-60 137t-23.5 188.5z" />
<glyph unicode="&#x472;" horiz-adv-x="1554" d="M110 595q0 92 16.5 183.5t50 176.5t84 162t118.5 140q98 91 229.5 146t303.5 55q140 0 251.5 -44t189.5 -125t120 -195.5t42 -255.5q0 -82 -14.5 -168t-44 -169t-74.5 -159.5t-106 -140.5q-49 -51 -108 -93t-128.5 -71.5t-151 -45.5t-176.5 -16q-151 0 -264 50 t-188 134.5t-112.5 197t-37.5 238.5zM453 592q1 -78 21 -140.5t57.5 -106t91 -67t122.5 -23.5q85 0 157.5 35t126.5 99q32 40 57 87.5t43 99.5q-134 -46 -188 -46q-53 0 -162 55q-108 54 -151 54q-29 0 -175 -47zM490 837q152 48 209 48q56 0 168 -54q111 -55 145 -55 q37 0 159 44v8q0 82 -20 146.5t-58 109t-92.5 68t-122.5 23.5q-83 0 -152 -34.5t-122 -94.5q-38 -42 -66.5 -95.5t-47.5 -113.5z" />
<glyph unicode="&#x473;" horiz-adv-x="1178" d="M61 408q0 74 15 150.5t46.5 147.5t80.5 133.5t117 109t155.5 73.5t196.5 27q107 0 189.5 -30.5t139 -87t86 -136t29.5 -177.5q0 -71 -14 -146t-44 -146.5t-77.5 -135.5t-115 -111.5t-156 -75.5t-201.5 -28q-114 0 -198.5 33t-139.5 91t-82 137.5t-27 171.5zM379 408 q0 -91 42.5 -141t110.5 -50q40 0 74.5 14t62.5 38.5t50 58t38 73.5q-67 -22 -99 -22q-30 0 -93 28q-66 27 -104 27q-17 0 -82 -22v-4zM415 607q72 22 104 22q47 0 107 -28t89 -28q20 0 82 22v19q0 42 -10 77.5t-29.5 61t-47.5 40t-65 14.5q-40 0 -75 -15.5t-64 -42.5 t-52 -63.5t-39 -78.5z" />
<glyph unicode="&#x474;" horiz-adv-x="1699" d="M199 1434h328l87 -998q2 -20 3 -38t1 -35q0 -19 -1.5 -36.5t-3.5 -33.5h6q11 32 26 68.5t36 78.5l349 686q45 89 94.5 152t106 103t121 58.5t139.5 18.5q69 0 127 -18.5t99.5 -53.5t64.5 -86.5t23 -117.5q0 -46 -9 -97h-276q4 20 4 40q0 32 -15.5 50.5t-43.5 18.5 q-35 0 -63 -27t-58 -82l-595 -1085h-366z" />
<glyph unicode="&#x475;" horiz-adv-x="1445" d="M115 1024h318l43 -631q3 -45 3 -83q0 -55 -6 -99h4q10 32 28 75.5t46 100.5l160 328q44 90 92 153.5t103 103.5t118.5 58.5t137.5 18.5q72 0 130.5 -17.5t100.5 -52t64.5 -86.5t22.5 -121q0 -18 -1.5 -37t-3.5 -39h-279q3 18 3 33q0 34 -18.5 51t-47.5 17q-32 0 -61 -27 t-60 -82l-392 -688h-360z" />
<glyph unicode="&#x476;" horiz-adv-x="1699" d="M199 1434h328l87 -998q2 -20 3 -38t1 -35q0 -19 -1.5 -36.5t-3.5 -33.5h6q11 32 26 68.5t36 78.5l349 686q45 89 94.5 152t106 103t121 58.5t139.5 18.5q69 0 127 -18.5t99.5 -53.5t64.5 -86.5t23 -117.5q0 -46 -9 -97h-276q4 20 4 40q0 32 -15.5 50.5t-43.5 18.5 q-35 0 -63 -27t-58 -82l-595 -1085h-366zM425 1886h250l213 -319h-211zM804 1886h247l211 -319h-211z" />
<glyph unicode="&#x477;" horiz-adv-x="1445" d="M115 1024h318l43 -631q3 -45 3 -83q0 -55 -6 -99h4q10 32 28 75.5t46 100.5l160 328q44 90 92 153.5t103 103.5t118.5 58.5t137.5 18.5q72 0 130.5 -17.5t100.5 -52t64.5 -86.5t22.5 -121q0 -18 -1.5 -37t-3.5 -39h-279q3 18 3 33q0 34 -18.5 51t-47.5 17q-32 0 -61 -27 t-60 -82l-392 -688h-360zM253 1505h250l213 -319h-211zM632 1505h247l211 -319h-211z" />
<glyph unicode="&#x478;" horiz-adv-x="2939" d="M111 642q0 93 16 183.5t48.5 174t81 159t112.5 138.5q50 48 108 86.5t125 66.5t144 43t165 15l-13 -100q133 0 243.5 -42t189.5 -121.5t123 -194t44 -258.5q0 -86 -15 -173t-44.5 -168.5t-74 -156.5t-103.5 -137q-50 -53 -109 -96t-128.5 -73t-150.5 -46.5t-175 -16.5 l11 100q-142 0 -253 47t-187.5 129.5t-117 195.5t-40.5 245zM453 646q0 -81 20.5 -145t58.5 -107.5t91.5 -66.5t119.5 -23l-12 -100q82 0 156 36t130 107q35 42 61 94.5t43 109.5t26 116t9 114q0 81 -20.5 145t-58.5 108.5t-92.5 68t-123.5 23.5l13 100q-80 0 -152 -37 t-128 -103q-34 -40 -60 -92t-44 -110t-27.5 -118.5t-9.5 -119.5zM1335 -453l54 244q21 -15 52 -23t62 -8q59 0 110 27.5t89 89.5l82 129l-199 1018h332l72 -623q3 -34 4 -73t-2 -64h4q9 25 19.5 55t30.5 68l160 328q44 90 92 153.5t103 103.5t118.5 58.5t137.5 18.5 q72 0 130.5 -17.5t100.5 -52t64.5 -86.5t22.5 -121q0 -18 -1.5 -37t-3.5 -39h-279q3 18 3 33q0 34 -18.5 51t-47.5 17q-61 0 -125 -109l-456 -778q-52 -89 -106.5 -161t-118 -123t-141 -79t-175.5 -28q-34 0 -81.5 6.5t-88.5 21.5z" />
<glyph unicode="&#x479;" horiz-adv-x="2548" d="M61 378q0 74 15 150t46.5 147t80 133.5t116 109t155 74t195.5 27.5l8 70q107 0 189.5 -30.5t139 -87t86 -136t29.5 -177.5q0 -71 -14 -146t-44 -146.5t-77 -135t-114.5 -111.5t-156 -76t-200.5 -28l-7 -70q-114 0 -198.5 33t-139.5 91t-82 137.5t-27 171.5zM379 378 q0 -91 42 -140.5t109 -50.5l7 70q65 0 114.5 35t83 91.5t50.5 127.5t17 143q0 85 -38.5 138t-110.5 55l-8 -70q-63 0 -112.5 -36t-83.5 -93t-52 -128t-18 -142zM944 -453l54 244q21 -15 52 -23t62 -8q59 0 110 27.5t89 89.5l82 129l-199 1018h332l72 -623q3 -34 4 -73 t-2 -64h4q9 25 19.5 55t30.5 68l160 328q44 90 92 153.5t103 103.5t118.5 58.5t137.5 18.5q72 0 130.5 -17.5t100.5 -52t64.5 -86.5t22.5 -121q0 -18 -1.5 -37t-3.5 -39h-279q3 18 3 33q0 34 -18.5 51t-47.5 17q-61 0 -125 -109l-456 -778q-52 -89 -106.5 -161t-118 -123 t-141 -79t-175.5 -28q-34 0 -81.5 6.5t-88.5 21.5z" />
<glyph unicode="&#x47a;" horiz-adv-x="1753" d="M111 592q0 93 16 183.5t48.5 174t81 159t112.5 138.5q48 46 104 84t120.5 65.5t138 43.5t157.5 18q84 90 199 90q58 0 99 -28t64 -75q109 -22 194 -76t143.5 -133t89 -179.5t30.5 -214.5q0 -93 -16 -183.5t-48.5 -174t-80.5 -159t-113 -138.5q-97 -93 -226.5 -150.5 t-299.5 -60.5q-87 -85 -194 -85q-55 0 -94 26.5t-63 70.5q-110 21 -196 75t-145 133t-90 180t-31 216zM453 596q0 -131 50.5 -214.5t139.5 -112.5q84 73 183 73q51 0 88 -23t63 -60q71 8 134 43.5t114 95.5q34 41 60 92.5t44 109.5t27.5 119t9.5 119q0 132 -52 215.5 t-143 112.5q-80 -68 -178 -68q-48 0 -84 21.5t-62 55.5q-72 -6 -137 -42.5t-116 -96.5q-34 -40 -60 -92t-44 -110t-27.5 -118.5t-9.5 -119.5z" />
<glyph unicode="&#x47b;" horiz-adv-x="1401" d="M61 408q0 73 14.5 147.5t45 145t77.5 132.5t112 108.5t149.5 75t188.5 31.5q78 93 191 93q114 0 151 -97l-1 -2q89 -13 155 -51t109.5 -94t64.5 -127.5t21 -153.5q0 -73 -14.5 -148.5t-45.5 -146t-78.5 -132.5t-113.5 -108.5t-151.5 -74.5t-191.5 -30q-75 -80 -175 -80 q-103 0 -145 84q-93 12 -161 49t-113 93.5t-67 129.5t-22 156zM379 408q0 -76 29.5 -123.5t79.5 -61.5l1 2q37 34 78 53t87 19t80 -21t56 -56q55 11 98 49.5t72.5 93.5t45 121t15.5 132q0 77 -31 124.5t-82 61.5q-35 -30 -74 -46.5t-81 -16.5t-73.5 19t-54.5 48 q-58 -6 -104 -43.5t-77.5 -94t-48 -124.5t-16.5 -136z" />
<glyph unicode="&#x47c;" horiz-adv-x="2432" d="M111 612q0 115 21.5 224t64.5 205.5t107.5 177t151 138.5t194.5 90t238 32q114 0 198.5 -24t148.5 -58l-50 -291q-26 18 -61 36t-74.5 31.5t-82 22t-84.5 8.5q-96 0 -175.5 -41.5t-136.5 -117.5t-88.5 -182.5t-31.5 -235.5q0 -91 25 -163t71.5 -121t112.5 -75t147 -26 q39 0 85.5 7.5t95.5 21t98.5 31t93.5 37.5q34 -19 76.5 -35t87.5 -27.5t90.5 -18t86.5 -6.5q122 0 219 36t164.5 107t103 177.5t35.5 247.5q0 95 -25.5 162.5t-68 110t-97.5 62.5t-115 20q-41 0 -87 -5t-90 -13.5t-82.5 -20.5t-64.5 -26q14 69 28.5 147.5t28.5 147.5 q60 22 133.5 37.5t169.5 15.5q148 0 263 -45t193.5 -126t119 -192.5t40.5 -244.5q0 -94 -17.5 -195t-58 -198.5t-106.5 -185t-163.5 -153t-228.5 -104.5t-302 -39q-54 0 -108 6.5t-102.5 16.5t-89.5 22.5t-70 25.5q-77 -31 -174.5 -51t-206.5 -20q-154 0 -275.5 46 t-204.5 130t-127 201.5t-44 259.5zM1030 1675q0 26 11.5 49.5t31 41.5t46.5 28.5t57 10.5h324q21 40 50 60t72 20q42 0 70 -27.5t28 -77.5q0 -33 -13 -58t-35 -41.5t-50 -25t-57 -8.5h-320q-16 -38 -46 -58.5t-72 -20.5q-44 0 -70.5 28t-26.5 79z" />
<glyph unicode="&#x47d;" horiz-adv-x="1808" d="M61 410q0 128 41 244t121 204t198.5 139.5t272.5 51.5q37 0 70.5 -5t62.5 -13t52 -17.5t39 -18.5l-57 -232q-13 9 -34.5 17t-46 14t-51.5 9.5t-53 3.5q-82 0 -138.5 -35t-91.5 -89.5t-51 -121t-16 -129.5q0 -103 48 -159t144 -56q35 0 75.5 7.5t80 20.5t75.5 29t62 32 q45 -37 105 -63t142 -26q80 0 139 34t99 88t59.5 121t19.5 132q0 103 -48 159t-144 56q-24 0 -49.5 -3.5t-51 -9.5t-49 -14t-42.5 -17l49 242q57 21 121 32.5t128 11.5q100 0 175.5 -31t126.5 -87t76.5 -133.5t25.5 -170.5q0 -85 -18 -167t-53.5 -154t-87.5 -133 t-120.5 -105t-153 -68.5t-183.5 -24.5q-100 0 -183 20.5t-132 56.5q-136 -77 -350 -77q-100 0 -175.5 33t-126.5 91.5t-76.5 138t-25.5 172.5zM679 1326q0 26 11.5 49.5t31 41.5t46.5 28.5t57 10.5h324q21 40 50 60t72 20q42 0 70 -27.5t28 -77.5q0 -33 -13 -58t-35 -41.5 t-50 -25t-57 -8.5h-320q-16 -38 -46 -58.5t-72 -20.5q-44 0 -70.5 28t-26.5 79z" />
<glyph unicode="&#x47e;" horiz-adv-x="2432" d="M111 612q0 115 21.5 224t64.5 205.5t107.5 177t151 138.5t194.5 90t238 32q114 0 198.5 -24t148.5 -58l-50 -291q-26 18 -61 36t-74.5 31.5t-82 22t-84.5 8.5q-96 0 -175.5 -41.5t-136.5 -117.5t-88.5 -182.5t-31.5 -235.5q0 -91 25 -163t71.5 -121t112.5 -75t147 -26 q54 0 101 6.5t76 15.5l61 291h-291l55 258h900l-52 -258h-290l-57 -271q48 -14 101 -23t110 -9q122 0 219 36t164.5 107t103 177.5t35.5 247.5q0 95 -25.5 162.5t-68 110t-97.5 62.5t-115 20q-41 0 -87 -5t-90 -13.5t-82.5 -20.5t-64.5 -26q14 69 28.5 147.5t28.5 147.5 q60 22 133.5 37.5t169.5 15.5q148 0 263 -45t193.5 -126t119 -192.5t40.5 -244.5q0 -94 -17.5 -195t-58 -198.5t-106.5 -185t-163.5 -153t-228.5 -104.5t-302 -39q-54 0 -107.5 5t-102 13.5t-90 19t-73.5 22.5q-78 -26 -173.5 -43t-204.5 -17q-154 0 -275.5 46t-204.5 130 t-127 201.5t-44 259.5zM927 1796h977l-159 -235h-60l-25 101h-196l-69 -101h-60l-25 101h-196l-68 -101h-60z" />
<glyph unicode="&#x47f;" horiz-adv-x="1526" d="M87 727q0 143 29 297h295q-14 -72 -21 -141.5t-7 -138.5q0 -10 0.5 -19.5t0.5 -19.5q2 -77 15.5 -173.5t37.5 -214.5l203 318q-3 38 -5 74t-2 71q0 133 24 244h305q-18 -106 -18 -240q0 -201 42 -467l347 707h293l-555 -1024h-299l-68 369l-229 -369h-269 q-52 221 -80.5 377.5t-35.5 252.5q-3 48 -3 97zM398 1450h977l-159 -235h-60l-25 101h-196l-69 -101h-60l-25 101h-196l-68 -101h-60z" />
<glyph unicode="&#x480;" horiz-adv-x="1307" d="M111 598q0 113 24 220.5t72.5 203t122 175.5t173 138t226 90.5t279.5 32.5q58 0 112 -6t103 -15.5t90.5 -21t73.5 -22.5l-67 -306q-30 16 -64.5 32t-75.5 28.5t-88.5 20.5t-103.5 8q-130 0 -229.5 -44.5t-167.5 -119.5t-103 -174t-35 -209q0 -91 27 -161t77 -117.5 t120 -72t157 -24.5q23 0 51 2t49 4l-142 -670h-323l86 407q-85 21 -165.5 66.5t-142 118.5t-99 176t-37.5 240z" />
<glyph unicode="&#x481;" horiz-adv-x="946" d="M61 397q0 86 19.5 167.5t56.5 153.5t91.5 133t125 105t156 68.5t184.5 24.5q46 0 87 -5.5t75 -14t60 -19t42 -19.5l-57 -248q-34 26 -88 45t-117 19q-73 0 -132 -34t-100 -88t-63 -121t-22 -132q0 -103 48 -159t144 -56q35 0 73.5 3.5t73.5 8.5l-136 -639h-315l85 398 q-65 18 -118.5 51t-92 83.5t-59.5 118.5t-21 156z" />
<glyph unicode="&#x482;" horiz-adv-x="1065" d="M9 0l260 412l-241 112l102 162l241 -115l226 356l-242 113l103 162l242 -115l221 349h197l-265 -418l245 -117l-102 -160l-248 115l-226 -355l248 -117l-102 -159l-248 115l-215 -340h-196z" />
<glyph unicode="&#x483;" horiz-adv-x="830" d="M70 1326q0 26 11.5 49.5t31 41.5t46.5 28.5t57 10.5h324q21 40 50 60t72 20q42 0 70 -27.5t28 -77.5q0 -33 -13 -58t-35 -41.5t-50 -25t-57 -8.5h-320q-16 -38 -46 -58.5t-72 -20.5q-44 0 -70.5 28t-26.5 79z" />
<glyph unicode="&#x484;" horiz-adv-x="867" d="M64 1219l40 188h80q62 0 173 46t188 46q207 0 238 -280h-164q-18 122 -107 122q-47 0 -153 -61t-188 -61h-107z" />
<glyph unicode="&#x485;" horiz-adv-x="0" d="M144 1387q0 43 13 76t35.5 55t52.5 33.5t64 11.5q54 0 85.5 -29.5t31.5 -71.5q0 -28 -11 -49t-29.5 -35t-43.5 -21.5t-54 -9.5q14 -32 40 -50.5t71 -36.5l-75 -90q-88 34 -134 92.5t-46 124.5z" />
<glyph unicode="&#x486;" horiz-adv-x="0" d="M123 1244q54 23 89.5 52t57.5 64q-16 4 -31.5 11.5t-27.5 19t-19.5 27.5t-7.5 36q0 46 34 77t100 31q26 0 50 -8t42 -23.5t29 -39t11 -54.5q0 -51 -25.5 -92.5t-67 -75.5t-93.5 -59t-105 -43z" />
<glyph unicode="&#x487;" horiz-adv-x="868" d="M188 1217q14 66 38 122.5t59.5 98t82 65.5t106.5 24q57 0 117 -19t120 -42t119.5 -42t116.5 -19h39l-40 -188h-40q-61 0 -122.5 19t-118.5 42t-108 42t-90 19q-21 0 -40 -9.5t-34 -26t-25.5 -39t-15.5 -47.5h-164z" />
<glyph unicode="&#x488;" horiz-adv-x="2018" d="M41 428q9 101 65.5 158t143.5 57q91 0 147 -57.5t60 -157.5h-117q-8 102 -92 102q-77 0 -90 -102h-117zM170 -49q9 102 65.5 159.5t143.5 57.5q91 0 147 -58.5t60 -158.5h-117q-8 102 -90 102q-77 0 -90 -102h-119zM170 901q9 102 65.5 159.5t143.5 57.5q91 0 147 -58.5 t60 -158.5h-117q-8 105 -90 105q-77 0 -90 -105h-119zM784 -299q9 101 66.5 158t144.5 57q91 0 146 -57.5t59 -157.5h-115q-8 102 -92 102q-79 0 -92 -102h-117zM784 1149q9 101 66.5 158t144.5 57q91 0 146 -57.5t59 -157.5h-115q-8 102 -92 102q-79 0 -92 -102h-117z M1417 -49q9 101 66.5 159t144.5 58q90 0 145.5 -58t59.5 -159h-117q-8 102 -88 102q-79 0 -92 -102h-119zM1417 901q9 101 66.5 159t144.5 58q90 0 145.5 -58t59.5 -159h-117q-8 105 -88 105q-79 0 -92 -105h-119zM1556 428q9 101 66.5 158t144.5 57q91 0 146 -57.5 t59 -157.5h-117q-8 102 -88 102q-79 0 -92 -102h-119z" />
<glyph unicode="&#x489;" horiz-adv-x="1944" d="M63 535v153l353 -94v-203zM209 -14l315 182l144 -143l-351 -148zM350 1180l109 108l182 -315l-143 -144zM809 -410l94 353h203l-143 -353h-154zM864 1081l144 353h153l-94 -353h-203zM1303 999l350 148l108 -109l-315 -182zM1329 51l144 144l147 -351l-109 -108z M1554 430v203l353 -144v-153z" />
<glyph unicode="&#x48a;" horiz-adv-x="1730" d="M48 0l303 1434h302q-42 -201 -83.5 -398.5t-83.5 -397.5q-6 -30 -15.5 -69t-20.5 -73h4q9 12 22.5 28t28.5 33t30 33t26 28q29 31 57.5 61.5t57.5 60.5q161 174 321 347t321 347h318l-245 -1158h276l-372 -670h-320l261 394h-205l162 768q12 56 24.5 108t24.5 97h-4 q-21 -26 -52.5 -61.5t-63.5 -70.5q-29 -31 -58 -61.5t-58 -62.5q-330 -358 -663 -717h-295zM611 1909h240q1 -34 11.5 -66t31 -56.5t51.5 -39t73 -14.5q41 0 77.5 13.5t66 37.5t51.5 56t35 69h241q-22 -75 -67 -139t-108.5 -110t-144.5 -72t-174 -26q-81 0 -150.5 25.5 t-121 71.5t-81 110t-31.5 140z" />
<glyph unicode="&#x48b;" horiz-adv-x="1323" d="M66 244q0 15 3 40t7.5 52t9 52.5t8.5 43.5l125 592h318l-123 -578q-4 -16 -7.5 -34t-6 -35t-4 -31t-1.5 -22q0 -44 24 -70.5t70 -26.5q50 0 97 28t85 73t65.5 101t39.5 112l103 483h319l-147 -684q-9 -45 -17 -94q-2 -12 -4 -23h223l-312 -601h-293l242 378h-206 q3 29 6.5 59t7.5 56.5t7 47.5t4 30h-4q-39 -49 -83.5 -89t-93 -68.5t-100 -44.5t-104.5 -16q-127 0 -192.5 70.5t-65.5 198.5zM354 1536h240q1 -34 11.5 -66t31 -56.5t51.5 -39t73 -14.5q41 0 77.5 13.5t66 37.5t51.5 56t35 69h241q-22 -75 -67 -139t-108.5 -110t-144.5 -72 t-174 -26q-81 0 -150.5 25.5t-121 71.5t-81 110t-31.5 140z" />
<glyph unicode="&#x48c;" horiz-adv-x="1318" d="M49 0l231 1090h-204l50 237h204l23 107h324l-23 -107h208l-50 -237h-208l-50 -237h226q119 0 206 -30t144 -82.5t85 -125t28 -158.5q0 -87 -29 -169t-99.5 -146t-188.5 -103t-295 -39h-582zM422 238h194q75 0 128.5 15.5t87.5 43t50 65.5t16 83q0 83 -53 127t-159 44 h-184z" />
<glyph unicode="&#x48d;" horiz-adv-x="1127" d="M18 0l251 1179h-114l32 159h114l40 178h315l-40 -178h118l-32 -159h-118l-109 -513h210q84 0 152.5 -18t116.5 -54.5t74.5 -91t26.5 -126.5q0 -88 -31.5 -157.5t-88.5 -118t-137 -74.5t-176 -26h-604zM376 201h161q89 0 137 39.5t48 116.5q0 52 -36.5 81t-102.5 29h-150z " />
<glyph unicode="&#x48e;" horiz-adv-x="1290" d="M49 0l305 1434h492q122 0 211 -31.5t146.5 -86t85.5 -129t28 -161.5q0 -75 -18 -145t-55.5 -131t-95 -111t-136.5 -84l53 -113l-169 -81l-67 143q-35 -5 -72 -7.5t-77 -2.5h-201l-104 -494h-326zM532 739h148h20t19 1l-80 171l171 82l85 -184q41 37 60.5 87.5t19.5 107.5 q0 83 -56 132.5t-165 49.5h-127z" />
<glyph unicode="&#x48f;" horiz-adv-x="1214" d="M-86 -471l246 1157q6 31 14 76.5t15 93.5t13 93t7 75h311q-1 -15 -3 -38.5t-5 -48.5t-6.5 -48.5t-5.5 -38.5h4q28 42 63 78t77.5 63t93 42.5t108.5 15.5q68 0 124.5 -25t97 -73.5t63 -119t22.5 -161.5q0 -88 -19.5 -176.5t-59 -169t-98.5 -148t-139 -115.5l75 -181 l-191 -83l-79 191q-33 -6 -67 -9.5t-71 -3.5q-40 0 -88 6t-82 15l-101 -467h-319zM375 215q12 -4 28.5 -7t34 -5.5t34.5 -4t30 -1.5q14 0 26.5 1t25.5 4l-66 160l192 81l52 -127q50 62 77 144.5t27 172.5q0 35 -6.5 66.5t-22.5 55.5t-41.5 38t-63.5 14q-56 0 -101 -32.5 t-79 -84t-57.5 -115t-36.5 -126.5z" />
<glyph unicode="&#x490;" horiz-adv-x="1058" d="M47 0l305 1434h562l62 286h288l-116 -552h-527l-249 -1168h-325z" />
<glyph unicode="&#x491;" horiz-adv-x="910" d="M16 0l217 1024h450l57 271h259l-107 -503h-391l-168 -792h-317z" />
<glyph unicode="&#x492;" horiz-adv-x="1085" d="M-65 567l54 262h236l129 605h855l-57 -266h-532l-72 -339h342l-55 -262h-343l-120 -567h-323l120 567h-234z" />
<glyph unicode="&#x493;" horiz-adv-x="918" d="M-10 336l49 237h196l96 451h668l-49 -231h-352l-47 -220h231l-50 -237h-231l-71 -336h-316l71 336h-195z" />
<glyph unicode="&#x494;" horiz-adv-x="1340" d="M-31 -367l59 282q88 -35 175.5 -52t171.5 -17q109 0 200.5 32.5t158 95t103.5 154.5t37 211q0 73 -24.5 130t-69 96t-106.5 59.5t-137 20.5h-31l-137 -645h-323l305 1434h854l-57 -267h-531l-51 -243h44q130 0 242.5 -35t195 -104t129.5 -171.5t47 -237.5 q0 -192 -60 -341t-171 -251t-268 -155t-352 -53q-46 0 -100 3.5t-108 10.5t-104.5 18t-91.5 25z" />
<glyph unicode="&#x495;" horiz-adv-x="1142" d="M-58 -332l50 242q160 -88 348 -88q86 0 153 23.5t113 66.5t70.5 105t24.5 138q0 112 -68.5 172t-198.5 60h-20l-82 -387h-317l218 1024h668l-47 -231h-353l-36 -164h33q122 0 220 -30.5t167 -88.5t106 -141.5t37 -189.5q0 -141 -51.5 -250.5t-143.5 -185t-219 -114.5 t-277 -39q-54 0 -108.5 5t-105.5 14.5t-97 24t-84 34.5z" />
<glyph unicode="&#x496;" horiz-adv-x="1937" d="M-121 0l666 744l-335 690h350l250 -619q3 -10 10 -29t9 -33h4l143 681h299l-144 -675h4q3 7 9.5 17t14 20t14.5 19t11 14l500 605h363l-632 -699l219 -459h235l-143 -670h-298l84 394h-104l-266 640q-7 19 -11 37.5t-5 28.5h-4l-151 -706h-299l148 693h-5q-7 -11 -19 -30 t-27 -36l-518 -627h-372z" />
<glyph unicode="&#x497;" horiz-adv-x="1705" d="M-123 0l510 539l-247 485h326l215 -480h4l102 480h299l-103 -483h4l417 483h351l-480 -511l147 -291l1 1h203l-128 -601h-258l81 378h-119l-223 505h-4l-107 -505h-299l109 508h-4l-438 -508h-359z" />
<glyph unicode="&#x498;" horiz-adv-x="1176" d="M-6 68l57 283q36 -24 80.5 -44.5t94.5 -36.5t105.5 -25t114.5 -9q85 0 140 17.5t87 45.5t44.5 63t12.5 69q0 83 -59 128t-190 45h-186l51 264h194q142 0 219.5 47t77.5 144q0 30 -11.5 55.5t-36 44t-62.5 29t-92 10.5q-40 0 -88 -7.5t-96 -20t-91.5 -28t-76.5 -31.5 l50 278q33 12 77 24.5t94.5 22.5t106.5 16t113 6q113 0 196.5 -26t138 -72.5t81 -110.5t26.5 -139q0 -63 -20.5 -123t-65.5 -110.5t-115.5 -86.5t-170.5 -50v-4q63 -13 112 -41.5t83 -70t51.5 -94.5t17.5 -115q0 -67 -25.5 -138.5t-85.5 -133.5t-158.5 -107t-245.5 -57 q38 -48 57 -95t19 -88q0 -49 -16.5 -91t-49 -73t-81 -48.5t-113.5 -17.5q-44 0 -82.5 8.5t-63.5 19.5l33 142q8 -4 20 -8.5t25.5 -8t27 -6t24.5 -2.5q45 0 74 22.5t29 73.5q0 28 -13.5 71t-44.5 98q-233 9 -394 92z" />
<glyph unicode="&#x499;" horiz-adv-x="982" d="M-36 37l44 234q66 -32 145.5 -53t159.5 -21q133 0 195 32t62 89q0 55 -62 84t-174 29h-179l39 190h182q126 0 196 33.5t70 88.5q0 49 -51 75t-138 26q-37 0 -78 -5t-81.5 -14t-79.5 -21t-73 -27l47 221q38 11 81 20.5t89.5 16.5t95 10.5t96.5 3.5q187 0 291 -63t104 -191 q0 -46 -15.5 -89t-51 -79t-94.5 -62t-146 -38v-3q61 -6 105.5 -26.5t73 -51t42 -68t13.5 -75.5q0 -51 -18 -103.5t-64.5 -98t-128 -78.5t-208.5 -43q38 -48 57 -95.5t19 -88.5q0 -49 -16.5 -91t-49 -73t-81 -48.5t-113.5 -17.5q-44 0 -82.5 8.5t-63.5 19.5l33 142 q8 -4 20 -8.5t25.5 -8t27 -6t24.5 -2.5q45 0 74 22.5t29 73.5q0 28 -13.5 71t-44.5 98q-54 2 -103.5 8t-92.5 14.5t-78 18.5t-60 20z" />
<glyph unicode="&#x49a;" horiz-adv-x="1384" d="M49 0l305 1434h326l-141 -666h4q11 15 25.5 33t23.5 30q20 25 61.5 72.5t93 106t108.5 122.5t108.5 122.5t92 106t58.5 73.5h395q-24 -30 -75 -85.5t-115.5 -123t-136 -141t-136 -141t-115.5 -123t-75 -85.5q12 -30 38 -81t59.5 -113t72 -131t75.5 -136l1 2h236 l-142 -669h-295l84 393h-135q-9 26 -32 75t-53.5 109t-64.5 125.5t-64.5 125.5t-54 108.5t-32.5 74.5q-8 17 -15 38.5t-10 33.5h-4l-145 -690h-326z" />
<glyph unicode="&#x49b;" horiz-adv-x="1218" d="M16 0l217 1024h319l-95 -444h4l407 444h375l-479 -483l155 -318h193l-128 -601h-258l81 378h-131l-225 532h-5l-112 -532h-318z" />
<glyph unicode="&#x49c;" horiz-adv-x="1333" d="M49 0l305 1434h326l-141 -666h4q11 15 25.5 33t23.5 30q7 9 17.5 21.5t23.5 27.5l70 330h94l-40 -189q51 58 106.5 120t105 119t88.5 103t57 71h395q-24 -30 -75 -85.5t-115.5 -123t-136 -141t-136 -141t-115.5 -123t-75 -85.5q13 -33 43 -91.5t68.5 -129t82 -147 t82 -147t68.5 -129t43 -91.5h-393q-9 27 -32.5 76t-54 110t-65 127t-65.5 126l-44 -210h-94l73 344q-6 14 -11 25t-8 20q-8 17 -15 38.5t-10 33.5h-4l-145 -690h-326z" />
<glyph unicode="&#x49d;" horiz-adv-x="1151" d="M16 0l217 1024h319l-95 -444h4l79 86l49 229h84l-23 -109l218 238h375l-479 -483l264 -541h-352l-129 304l-40 -189h-84l68 321l-40 96h-5l-112 -532h-318z" />
<glyph unicode="&#x49e;" horiz-adv-x="1333" d="M49 0l238 1118h-133l44 209h133l23 107h326l-23 -107h174l-44 -209h-174l-74 -350h4q11 15 25.5 33t23.5 30q20 25 61.5 72.5t93 106t108.5 122.5t108.5 122.5t92 106t58.5 73.5h395q-24 -30 -75 -85.5t-115.5 -123t-136 -141t-136 -141t-115.5 -123t-75 -85.5 q13 -33 43 -91.5t68.5 -129t82 -147t82 -147t68.5 -129t43 -91.5h-393q-9 26 -32 75t-53.5 109t-64.5 125.5t-64.5 125.5t-54 108.5t-32.5 74.5q-8 17 -15 38.5t-10 33.5h-4l-145 -690h-326z" />
<glyph unicode="&#x49f;" horiz-adv-x="1151" d="M16 0l250 1179h-111q9 40 17.5 79.5t17.5 79.5h110l38 178h319l-38 -178h314q-9 -40 -17.5 -79.5t-17.5 -79.5h-313l-128 -599h4l407 444h375l-479 -483l264 -541h-352l-225 532h-5l-112 -532h-318z" />
<glyph unicode="&#x4a0;" horiz-adv-x="1605" d="M164 1169l56 265h732l-141 -666h4q11 15 25.5 33t23.5 30q20 25 61.5 72.5t93 106t108.5 122.5t108.5 122.5t92 106t58.5 73.5h395q-24 -30 -75 -85.5t-115.5 -123t-136 -141t-136 -141t-115.5 -123t-75 -85.5q13 -33 43 -91.5t68.5 -129t82 -147t82 -147t68.5 -129 t43 -91.5h-393q-9 26 -32 75t-53.5 109t-64.5 125.5t-64.5 125.5t-54 108.5t-32.5 74.5q-8 17 -15 38.5t-10 33.5h-4l-145 -690h-326l248 1169h-405z" />
<glyph unicode="&#x4a1;" horiz-adv-x="1332" d="M50 793l50 231h633l-95 -444h4l407 444h375l-479 -483l264 -541h-352l-225 532h-5l-112 -532h-318l168 793h-315z" />
<glyph unicode="&#x4a2;" horiz-adv-x="1661" d="M47 0l305 1434h326l-122 -571h593l122 571h327l-247 -1158h205l-143 -670h-294l84 394h-238l124 581h-593l-122 -581h-327z" />
<glyph unicode="&#x4a3;" horiz-adv-x="1294" d="M16 0l217 1024h319l-79 -371h355l79 371h317l-170 -801h164l-128 -601h-257l81 378h-224l89 421h-355l-89 -421h-319z" />
<glyph unicode="&#x4a4;" horiz-adv-x="1846" d="M47 0l305 1434h326l-122 -571h593l122 571h733l-56 -263h-407l-248 -1171h-328l124 581h-593l-122 -581h-327z" />
<glyph unicode="&#x4a5;" horiz-adv-x="1440" d="M16 0l217 1024h319l-79 -371h355l79 371h607l-48 -231h-291l-168 -793h-317l89 421h-355l-89 -421h-319z" />
<glyph unicode="&#x4a6;" horiz-adv-x="2238" d="M49 0l303 1434h1220l-108 -510h44q130 0 242.5 -35t195 -104t129.5 -171.5t47 -237.5q0 -192 -60 -341t-171 -251t-268 -155t-352 -53q-46 0 -100 3.5t-108 10.5t-104.5 18t-91.5 25l59 282q88 -35 175.5 -52t171.5 -17q109 0 200.5 32.5t158 95t103.5 154.5t37 211 q0 73 -24.5 130t-69 96t-106.5 59.5t-137 20.5h-30l-136 -645h-326l244 1152h-570l-243 -1152h-325z" />
<glyph unicode="&#x4a7;" horiz-adv-x="1817" d="M16 0l217 1024h991l-84 -395h33q122 0 220 -30.5t167 -88.5t106 -141.5t37 -189.5q0 -141 -51.5 -250.5t-143.5 -185t-219 -114.5t-277 -39q-54 0 -108.5 5t-105.5 14.5t-97 24t-84 34.5l50 242q160 -88 348 -88q86 0 153 23.5t113 66.5t70.5 105t24.5 138 q0 112 -68.5 172t-198.5 60h-20l-82 -387h-317l168 792h-355l-168 -792h-319z" />
<glyph unicode="&#x4a8;" horiz-adv-x="1587" d="M104 598q0 113 24 220.5t72.5 203t122 175.5t173 138t226 90.5t279.5 32.5q58 0 112 -6t103 -15.5t90.5 -21t73.5 -22.5l-67 -306q-30 16 -64.5 32t-75.5 28.5t-88.5 20.5t-103.5 8q-130 0 -229.5 -44.5t-167.5 -119.5t-103 -174t-35 -209q0 -97 30.5 -181.5t91.5 -135.5 q12 88 36 174t61 164t86.5 144t112.5 114.5t140 76t168 27.5q80 0 144 -25.5t108 -72t67.5 -111t23.5 -141.5q0 -124 -48 -230.5t-129.5 -190.5t-189 -143t-226.5 -88q41 -71 109 -106t179 -35q47 0 100.5 8t95.5 22l-54 -242q-32 -11 -76.5 -17.5t-101.5 -6.5 q-107 0 -203 22.5t-173.5 67t-133 111.5t-82.5 156q-114 22 -202.5 74.5t-150 130.5t-93.5 180t-32 223zM877 260q85 27 152 78q29 22 56 51t48.5 66t34.5 83.5t13 102.5q0 23 -4 43.5t-12.5 36t-21.5 24.5t-30 9q-30 0 -58.5 -22t-54.5 -59.5t-48 -87t-38 -104.5t-26 -112 t-11 -109z" />
<glyph unicode="&#x4a9;" horiz-adv-x="1227" d="M61 397q0 86 19.5 167.5t56.5 153.5t91.5 133t125 105t156 68.5t184.5 24.5q46 0 87 -5.5t75 -14t60 -19t42 -19.5l-57 -248q-34 26 -88 45t-117 19q-73 0 -132 -34t-100 -88t-63 -121t-22 -132q0 -123 55 -178q18 102 59 186t100.5 144t134.5 93.5t159 33.5 q54 0 103.5 -16t87 -49t60 -83t22.5 -117q0 -91 -38 -166t-102 -132t-146 -95.5t-171 -56.5q17 -38 57.5 -61t114.5 -23q42 0 80.5 6t76.5 17l-47 -218q-38 -11 -81.5 -17.5t-88.5 -6.5q-74 0 -138.5 18t-115.5 53.5t-87 89t-53 124.5q-87 8 -154 42.5t-112.5 89t-69.5 128 t-24 159.5zM682 210q26 9 61.5 27t68 46.5t55.5 66t23 85.5q0 27 -13 46t-39 19q-25 0 -49 -17t-45 -52t-37 -90t-25 -131z" />
<glyph unicode="&#x4aa;" horiz-adv-x="1300" d="M104 598q0 113 24 220.5t72.5 203t122 175.5t173 138t226 90.5t279.5 32.5q58 0 112 -6t103 -15.5t90.5 -21t73.5 -22.5l-67 -306q-30 16 -64.5 32t-75.5 28.5t-88.5 20.5t-103.5 8q-130 0 -229.5 -44.5t-167.5 -119.5t-103 -174t-35 -209q0 -91 27 -161t77 -117.5 t120 -72t157 -24.5q55 0 103 7.5t91 20t81.5 28.5t73.5 34l-68 -305q-63 -26 -136 -41.5t-161 -20.5q-37 -37 -62.5 -65.5t-41 -51.5t-22 -41.5t-6.5 -35.5q0 -72 76 -72q23 0 51 8t45 17l-29 -142q-20 -11 -55.5 -19.5t-79.5 -8.5q-52 0 -89 12.5t-61 35t-35 53.5t-11 67 q0 60 40 118.5t125 126.5q-130 12 -233 61.5t-173.5 130t-108 189t-37.5 238.5z" />
<glyph unicode="&#x4ab;" horiz-adv-x="946" d="M61 397q0 86 19.5 167.5t56.5 153.5t91.5 133t125 105t156 68.5t184.5 24.5q46 0 87 -5.5t75 -14t60 -19t42 -19.5l-57 -248q-34 26 -88 45t-117 19q-73 0 -132 -34t-100 -88t-63 -121t-22 -132q0 -103 48 -159t144 -56q30 0 62.5 6t64.5 16.5t61.5 23.5t53.5 28 l-49 -242q-46 -24 -96.5 -40.5t-103.5 -25.5q-39 -39 -65.5 -68.5t-42.5 -52.5t-23 -42t-7 -37q0 -72 76 -72q23 0 51 8t45 17l-29 -142q-20 -11 -55.5 -19.5t-79.5 -8.5q-52 0 -89 12.5t-61 35t-35 53.5t-11 67q0 60 40 118.5t124 126.5q-84 9 -148 44t-107 89.5t-64.5 127 t-21.5 157.5z" />
<glyph unicode="&#x4ac;" horiz-adv-x="1202" d="M164 1171l57 263h1139l-57 -263h-404l-190 -897l1 2h205l-143 -670h-295l84 394h-235l247 1171h-409z" />
<glyph unicode="&#x4ad;" horiz-adv-x="938" d="M80 793l50 231h868l-50 -231h-274l-121 -570h163l-128 -601h-257l81 378h-224l168 793h-276z" />
<glyph unicode="&#x4ae;" horiz-adv-x="1245" d="M193 1434h350l114 -545q8 -34 9.5 -63t3.5 -52h2q11 28 24.5 57t28.5 54l350 549h363l-662 -914l-108 -520h-326l109 514z" />
<glyph unicode="&#x4af;" horiz-adv-x="1102" d="M88 1024h334l59 -623q3 -27 3 -59q0 -18 -1 -37.5t-3 -40.5h4q11 29 26 63t35 72l326 625h329l-600 -1024l-100 -471h-315l100 473z" />
<glyph unicode="&#x4b0;" horiz-adv-x="1245" d="M89 293l55 262h295l-246 879h350l114 -545q8 -34 9.5 -63t3.5 -52h2q11 28 24.5 57t28.5 54l350 549h363l-637 -879h306l-55 -262h-323l-61 -293h-326l62 293h-315z" />
<glyph unicode="&#x4b1;" horiz-adv-x="1102" d="M-46 -205l44 205h286l1 2l-197 1022h334l59 -623q3 -27 3 -59q0 -18 -1 -37.5t-3 -40.5h4q11 29 26 63t35 72l326 625h329l-600 -1024h299l-44 -205h-299l-56 -266h-315l56 266h-287z" />
<glyph unicode="&#x4b2;" horiz-adv-x="1407" d="M-111 0l615 739l-277 695h377l127 -441q3 -12 5.5 -27.5t4 -31.5t2 -30t0.5 -23h5q3 8 8 20.5t12 27.5t14.5 29.5t16.5 26.5l342 449h377l-590 -725l173 -434l1 1h223l-143 -670h-295l84 394h-125l-144 455q-4 11 -6.5 26t-4 30.5t-2.5 30t-1 23.5h-4q-8 -17 -20.5 -48 t-30.5 -56l-344 -461h-400z" />
<glyph unicode="&#x4b3;" horiz-adv-x="1190" d="M-104 0l456 518l-219 506h352l84 -270q10 -26 17 -56.5t10 -50.5h4q12 22 32 51.5t36 51.5l200 274h359l-447 -510l129 -291h187l-128 -601h-257l81 378h-135l-92 268q-8 23 -15 49.5t-13 51.5h-5q-15 -25 -30 -51t-31 -46l-203 -272h-372z" />
<glyph unicode="&#x4b4;" horiz-adv-x="1943" d="M164 1171l57 263h1139l-57 -263h-404l-189 -890h599l246 1153h325l-245 -1153h208l-142 -674h-295l84 393h-1165l1 1l247 1170h-409z" />
<glyph unicode="&#x4b5;" horiz-adv-x="1436" d="M50 793l51 231h848l-51 -231h-254l-120 -570h354l171 801h317l-171 -801h164l-128 -601h-257l81 378h-896l167 793h-276z" />
<glyph unicode="&#x4b6;" horiz-adv-x="1572" d="M200 779q0 32 6 74.5t16 87.5l103 493h325l-105 -492q-5 -25 -8.5 -50t-3.5 -42q0 -28 9.5 -51.5t29.5 -41t52.5 -27t77.5 -9.5q81 0 173 22t177 68l131 623h326l-245 -1158h204l-142 -669h-295l84 393h-235l113 541q-85 -40 -191 -66t-228 -26q-102 0 -173.5 27t-116 73 t-64.5 105.5t-20 124.5z" />
<glyph unicode="&#x4b7;" horiz-adv-x="1237" d="M116 603q0 35 5 68t13 71l62 282h312q-9 -42 -16 -74t-14 -62.5t-13.5 -62.5t-15.5 -73q-5 -20 -8 -43.5t-3 -37.5q0 -21 5.5 -39.5t18 -32t34 -21t53.5 -7.5q54 0 106.5 16t106.5 43q12 54 22 102t20.5 94.5t20.5 95t22 102.5h320q-43 -201 -85.5 -400.5t-84.5 -400.5 h165l-128 -600h-258l81 377h-227l88 418q-68 -33 -151 -57t-169 -24q-70 0 -122.5 20.5t-88 56t-53.5 84t-18 105.5z" />
<glyph unicode="&#x4b8;" horiz-adv-x="1480" d="M200 779q0 32 6 74.5t16 87.5l103 493h325l-105 -492q-5 -25 -8.5 -50t-3.5 -42q0 -55 37 -91t123 -38l67 313h115l-65 -304q60 10 122 29.5t120 51.5l131 623h326l-303 -1434h-326l113 541q-52 -25 -112 -44.5t-127 -31.5l-57 -268h-115l54 254q-16 -2 -31 -2h-31 q-102 0 -173.5 27t-116 73t-64.5 105.5t-20 124.5z" />
<glyph unicode="&#x4b9;" horiz-adv-x="1194" d="M116 603q0 35 5 68t13 71l62 282h312q-9 -42 -16 -74t-14 -62.5t-13.5 -62.5t-15.5 -73q-5 -20 -8 -43.5t-3 -37.5q0 -39 18.5 -66.5t70.5 -32.5l39 182h115l-36 -170q29 8 58.5 19.5t58.5 26.5q12 54 22 102t20.5 94.5t20.5 95t22 102.5h320q-54 -257 -108.5 -512 t-108.5 -512h-320l88 418q-53 -27 -119 -48l-54 -255h-115l48 228q-39 -6 -80 -6q-70 0 -122.5 20.5t-88 56t-53.5 84t-18 105.5z" />
<glyph unicode="&#x4ba;" horiz-adv-x="1479" d="M49 0l303 1434h326l-104 -496q85 40 191 66t228 26q102 0 173.5 -27t116 -73t64.5 -105.5t20 -124.5q0 -32 -6 -74.5t-16 -87.5l-110 -538h-321l108 537q5 25 8.5 50t3.5 42q0 28 -9.5 51.5t-29.5 41t-52.5 27t-77.5 9.5q-81 0 -173 -22t-177 -68l-140 -668h-326z" />
<glyph unicode="&#x4bb;" d="M16 0l322 1516h319l-147 -689h4q37 48 81.5 88.5t94 70t102 46.5t103.5 17q125 0 190.5 -69.5t65.5 -199.5q0 -15 -3 -40t-7.5 -52t-9.5 -52.5t-9 -43.5l-125 -592h-317l123 584q6 32 12 66t6 52q0 50 -25.5 77.5t-74.5 27.5q-39 0 -82.5 -24.5t-82.5 -65.5t-70 -96 t-44 -117l-106 -504h-320z" />
<glyph unicode="&#x4bc;" horiz-adv-x="1951" d="M102 838q0 76 23 138t69 128h219q-27 -45 -45 -86t-18 -80q0 -100 126 -100h2q33 138 102 252t172.5 195.5t241 126.5t307.5 45q131 0 242 -37t192 -108t127 -175.5t46 -239.5q0 -30 -3 -68t-8 -77t-12 -75.5t-15 -62.5l-10 -32h-1061q-14 -344 374 -344 q108 0 224.5 31.5t248.5 101.5l-65 -294q-109 -58 -224 -80.5t-245 -22.5q-155 0 -277.5 40.5t-208 118t-131 190.5t-45.5 258v1h-31q-79 0 -138.5 18t-99 51t-59.5 80.5t-20 106.5zM827 838h732q2 15 3 25.5t1 26.5q0 73 -22 129.5t-61.5 95t-94.5 58.5t-121 20 q-83 0 -153 -24t-125 -70t-95 -111.5t-64 -149.5z" />
<glyph unicode="&#x4bd;" horiz-adv-x="1411" d="M70 602q0 65 22 120t59 111h180q-26 -42 -42 -83t-16 -74q0 -42 27 -61.5t82 -21.5q27 97 80 180.5t128.5 144.5t171.5 96t209 35q101 0 172 -24t116 -64.5t66 -92.5t21 -108q0 -79 -33.5 -145t-112 -114t-208.5 -75.5t-324 -30.5q-2 -6 -2 -10.5v-9.5q0 -31 10 -62 t34.5 -56t64.5 -40.5t100 -15.5q36 0 78.5 6.5t86.5 19t87.5 30t80.5 38.5l-49 -236q-31 -16 -71 -31t-86.5 -27t-99 -19t-107.5 -7q-116 0 -199 34t-136.5 91.5t-78.5 134.5t-25 164h-16q-136 0 -203 53t-67 150zM688 590q180 -2 268.5 41t88.5 125q0 37 -27.5 61.5 t-77.5 24.5q-44 0 -84.5 -19t-74 -52.5t-57.5 -80t-36 -100.5z" />
<glyph unicode="&#x4be;" horiz-adv-x="1951" d="M102 838q0 76 23 138t69 128h219q-27 -45 -45 -86t-18 -80q0 -100 126 -100h2q33 138 102 252t172.5 195.5t241 126.5t307.5 45q131 0 242 -37t192 -108t127 -175.5t46 -239.5q0 -30 -3 -68t-8 -77t-12 -75.5t-15 -62.5l-10 -32h-1061q-14 -344 374 -344 q108 0 224.5 31.5t248.5 101.5l-65 -294q-87 -46 -176.5 -69t-187.5 -30q-37 -37 -62 -65.5t-40.5 -51.5t-22.5 -42t-7 -36q0 -72 76 -72q23 0 51 8t45 17l-29 -142q-20 -11 -55.5 -19.5t-79.5 -8.5q-52 0 -89 12.5t-61 35t-35 53.5t-11 67q0 60 38.5 117.5t121.5 124.5 q-142 7 -255 50.5t-191 120.5t-119.5 186t-41.5 248v1h-31q-79 0 -138.5 18t-99 51t-59.5 80.5t-20 106.5zM827 838h732q2 15 3 25.5t1 26.5q0 73 -22 129.5t-61.5 95t-94.5 58.5t-121 20q-83 0 -153 -24t-125 -70t-95 -111.5t-64 -149.5z" />
<glyph unicode="&#x4bf;" horiz-adv-x="1411" d="M70 602q0 65 22 120t59 111h180q-26 -42 -42 -83t-16 -74q0 -42 27 -61.5t82 -21.5q27 97 80 180.5t128.5 144.5t171.5 96t209 35q101 0 172 -24t116 -64.5t66 -92.5t21 -108q0 -79 -33.5 -145t-112 -114t-208.5 -75.5t-324 -30.5q-2 -6 -2 -10.5v-9.5q0 -31 10 -62 t34.5 -56t64.5 -40.5t100 -15.5q36 0 78.5 6.5t86.5 19t87.5 30t80.5 38.5l-49 -236q-48 -25 -115 -46t-147 -31v-1q-37 -37 -62.5 -66t-41.5 -52.5t-23 -43t-7 -36.5q0 -72 76 -72q23 0 51 8t45 17l-29 -142q-20 -11 -55.5 -19.5t-79.5 -8.5q-52 0 -89 12.5t-61 35 t-35 53.5t-11 67q0 60 38.5 118.5t120.5 125.5q-100 9 -171.5 45.5t-117.5 93t-67.5 129t-21.5 153.5h-16q-136 0 -203 53t-67 150zM688 590q180 -2 268.5 41t88.5 125q0 37 -27.5 61.5t-77.5 24.5q-44 0 -84.5 -19t-74 -52.5t-57.5 -80t-36 -100.5z" />
<glyph unicode="&#x4c0;" horiz-adv-x="649" d="M49 0l303 1434h326l-303 -1434h-326z" />
<glyph unicode="&#x4c1;" horiz-adv-x="1884" d="M-121 0l666 744l-335 690h350l250 -619q3 -10 10 -29t9 -33h4l143 681h299l-144 -675h4q3 7 9.5 17t14 20t14.5 19t11 14l500 605h363l-632 -699l351 -735h-358l-266 640q-7 19 -11 37.5t-5 28.5h-4l-151 -706h-299l148 693h-5q-7 -11 -19 -30t-27 -36l-518 -627h-372z M749 1909h240q1 -34 11.5 -66t31 -56.5t51.5 -39t73 -14.5q41 0 77.5 13.5t66 37.5t51.5 56t35 69h241q-22 -75 -67 -139t-108.5 -110t-144.5 -72t-174 -26q-81 0 -150.5 25.5t-121 71.5t-81 110t-31.5 140z" />
<glyph unicode="&#x4c2;" horiz-adv-x="1660" d="M-123 0l510 539l-247 485h326l215 -480h4l102 480h299l-103 -483h4l417 483h351l-480 -511l260 -513h-333l-223 505h-4l-107 -505h-299l109 508h-4l-438 -508h-359zM566 1534h240q1 -34 11.5 -66t31 -56.5t51.5 -39t73 -14.5q41 0 77.5 13.5t66 37.5t51.5 56t35 69h241 q-22 -75 -67 -139t-108.5 -110t-144.5 -72t-174 -26q-81 0 -150.5 25.5t-121 71.5t-81 110t-31.5 140z" />
<glyph unicode="&#x4c3;" horiz-adv-x="1333" d="M-28 -367l59 282q88 -35 175.5 -52t171.5 -17q103 0 191.5 28.5t153 84t101.5 137t37 187.5q0 65 -24.5 115t-69 85t-106.5 53t-137 18h-31l-118 -554h-326l305 1434h326l-141 -658q8 7 17 16q8 8 17.5 18.5t19.5 22.5q21 26 62.5 73.5t93 105.5t108.5 121.5t107.5 121.5 t91 105.5t58.5 73.5h395q-22 -27 -66.5 -76t-101.5 -109t-122 -127.5t-127 -132t-116 -121.5t-91 -98q71 -21 129.5 -62t99.5 -99t63.5 -131t22.5 -156q0 -179 -59.5 -318t-168 -234t-260 -144.5t-336.5 -49.5q-46 0 -100 3.5t-108 10.5t-104.5 18t-91.5 25z" />
<glyph unicode="&#x4c4;" horiz-adv-x="1153" d="M-56 -332l50 242q160 -88 346 -88q71 0 134.5 16t111.5 51t76 91t28 137q0 108 -69 168.5t-194 60.5h-20l-74 -346h-316l218 1024h316l-102 -481h4l417 481h375l-480 -485q56 -19 103.5 -54t82.5 -84t54.5 -112t19.5 -139q0 -137 -48.5 -242t-136.5 -175.5t-212 -106.5 t-276 -36q-57 0 -114 5t-109.5 14.5t-99.5 24t-85 34.5z" />
<glyph unicode="&#x4c5;" horiz-adv-x="1621" d="M-86 2l56 263q15 -7 36 -11t45 -4q66 0 118.5 53t103.5 155q25 51 54.5 120t61 149.5t64.5 170t65 181t62.5 182t57.5 173.5h890l-247 -1159l1 1h276l-372 -670h-320l261 394h-230l247 1163h-300q-33 -101 -71.5 -212.5t-78 -220.5t-78.5 -207t-75 -172q-42 -90 -89 -159 t-102.5 -115.5t-122 -70.5t-147.5 -24q-46 0 -88.5 4.5t-77.5 15.5z" />
<glyph unicode="&#x4c6;" horiz-adv-x="1350" d="M-90 5l43 235q11 -5 29.5 -7.5t38.5 -2.5q57 0 106 38.5t99.5 130.5t106.5 244.5t125 380.5h771l-171 -801h222l-312 -601h-293l242 378h-223l168 792h-204q-47 -144 -88 -260t-82 -205.5t-84.5 -153.5t-95.5 -105.5t-115.5 -61t-144.5 -19.5q-17 0 -37 1.5t-39.5 4.5 t-36 6t-25.5 6z" />
<glyph unicode="&#x4c7;" horiz-adv-x="1568" d="M47 0l305 1434h326l-122 -571h593l122 571h327l-251 -1177q-35 -166 -104.5 -293t-174.5 -213.5t-246 -130.5t-320 -44q-46 0 -100 3.5t-108 11t-104.5 18t-91.5 24.5l59 282q88 -35 175 -52t172 -17q218 0 347.5 111.5t178.5 343.5l59 280h-593l-122 -581h-327z" />
<glyph unicode="&#x4c8;" horiz-adv-x="1251" d="M-46 -332l50 242q160 -88 348 -88q152 0 239.5 63t112.5 181l75 355h-355l-89 -421h-319l217 1024h319l-79 -371h355l79 371h317l-199 -947q-27 -125 -85 -216.5t-143.5 -151.5t-198 -89.5t-249.5 -29.5q-54 0 -108.5 4.5t-105.5 14.5t-97.5 24.5t-83.5 34.5z" />
<glyph unicode="&#x4c9;" horiz-adv-x="1692" d="M47 0l305 1434h326l-122 -571h593l122 571h327l-247 -1158h278l-372 -670h-320l261 394h-233l124 581h-593l-122 -581h-327z" />
<glyph unicode="&#x4ca;" horiz-adv-x="1348" d="M16 0l217 1024h319l-79 -371h355l79 371h317l-169 -801h223l-312 -601h-293l242 378h-225l89 421h-355l-89 -421h-319z" />
<glyph unicode="&#x4cb;" horiz-adv-x="1480" d="M200 779q0 32 6 74.5t16 87.5l103 493h325l-105 -492q-5 -25 -8.5 -50t-3.5 -42q0 -28 9.5 -51.5t29.5 -41t52.5 -27t77.5 -9.5q81 0 173 22t177 68l131 623h326l-303 -1434h-266l-84 -394h-295l143 670h233l56 265q-85 -40 -191 -66t-228 -26q-102 0 -173.5 27t-116 73 t-64.5 105.5t-20 124.5z" />
<glyph unicode="&#x4cc;" horiz-adv-x="1194" d="M116 603q0 35 5 68t13 71l62 282h312q-9 -42 -16 -74t-14 -62.5t-13.5 -62.5t-15.5 -73q-5 -20 -8 -43.5t-3 -37.5q0 -21 5.5 -39.5t18 -32t34 -21t53.5 -7.5q54 0 106.5 16t106.5 43q12 54 22 102t20.5 94.5t20.5 95t22 102.5h320q-54 -257 -108.5 -512t-108.5 -512 h-225l-81 -378h-258l128 601h163l41 195q-68 -33 -151 -57t-169 -24q-70 0 -122.5 20.5t-88 56t-53.5 84t-18 105.5z" />
<glyph unicode="&#x4cd;" horiz-adv-x="1904" d="M48 0l305 1434h384l147 -498q7 -24 13 -51.5t10 -55t6 -53t2 -45.5h5q11 22 23.5 49.5t26 56t28.5 55t30 46.5l366 496h416l-247 -1158h278l-372 -670h-320l261 394h-195l182 858q30 137 78 307h-8q-14 -32 -29.5 -64t-30.5 -60.5t-28 -51t-23 -36.5l-384 -523h-226 l-149 513q-5 15 -9.5 47.5t-4.5 67.5v107h-9q-14 -94 -27.5 -173t-24.5 -133l-183 -859h-291z" />
<glyph unicode="&#x4ce;" horiz-adv-x="1585" d="M16 0l217 1024h384l70 -584q17 -129 12 -182q15 44 89 180l316 586h454l-170 -801h222l-312 -601h-293l242 378h-201l169 797q-20 -54 -93 -189l-328 -608h-278l-70 608q-17 151 -13 187l-169 -795h-248z" />
<glyph unicode="&#x4cf;" horiz-adv-x="650" d="M79 217q0 22 2.5 49t6.5 56.5t9.5 60t11.5 58.5q3 13 13.5 63.5t26.5 124.5t35 164.5t39.5 185t39.5 185t35 164.5t26.5 124.5t13.5 63.5h320l-227 -1068q-8 -35 -17 -78.5t-9 -75.5q0 -38 24 -53t55 -15q26 0 52.5 5.5t48.5 14.5q-13 -60 -25 -118.5t-25 -118.5 q-18 -5 -41.5 -10t-50 -9.5t-55 -7t-56.5 -2.5q-67 0 -114.5 17.5t-78.5 49t-45.5 75t-14.5 95.5z" />
<glyph unicode="&#x4d0;" horiz-adv-x="1440" d="M-102 0l827 1434h385l205 -1434h-330l-41 319h-514l-168 -319h-364zM526 1909h240q1 -34 11.5 -66t31 -56.5t51.5 -39t73 -14.5q41 0 77.5 13.5t66 37.5t51.5 56t35 69h241q-22 -75 -67 -139t-108.5 -110t-144.5 -72t-174 -26q-81 0 -150.5 25.5t-121 71.5t-81 110 t-31.5 140zM551 567h369l-52 484q-1 16 -1.5 35.5t0 37.5t1.5 32.5t2 21.5h-6q-2 -9 -7 -23t-11.5 -30.5t-15 -34.5t-17.5 -35z" />
<glyph unicode="&#x4d1;" horiz-adv-x="1214" d="M61 371q0 47 10.5 115.5t38 144t76.5 150t125.5 134.5t185 97t255.5 37q57 0 114.5 -4.5t113 -12t107.5 -17.5t97 -20l-140 -657q-7 -31 -13.5 -75t-12 -91.5t-9 -93t-3.5 -78.5h-320q0 15 1.5 38.5t3.5 48t4.5 48t4.5 39.5h-4q-29 -39 -60 -75t-69 -63.5t-84.5 -44 t-107.5 -16.5q-75 0 -133.5 27t-98.5 78t-61 124.5t-21 166.5zM369 1534h240q1 -34 11.5 -66t31 -56.5t51.5 -39t73 -14.5q41 0 77.5 13.5t66 37.5t51.5 56t35 69h241q-22 -75 -67 -139t-108.5 -110t-144.5 -72t-174 -26q-81 0 -150.5 25.5t-121 71.5t-81 110t-31.5 140z M379 389q0 -37 7.5 -68.5t23.5 -54.5t39.5 -36t54.5 -13q57 0 101.5 33t78 84.5t56 116t36.5 127.5l53 239q-23 5 -51 7.5t-53 2.5q-69 0 -121 -23t-90.5 -60t-64.5 -84t-41.5 -95.5t-22 -94.5t-6.5 -81z" />
<glyph unicode="&#x4d2;" horiz-adv-x="1440" d="M-102 0l827 1434h385l205 -1434h-330l-41 319h-514l-168 -319h-364zM531 1672q0 30 12 55t33 42.5t49.5 27.5t61.5 10q34 0 62 -10t48.5 -28t31.5 -43t11 -54t-11 -54.5t-31 -44t-48 -29.5t-63 -11q-34 0 -63 11t-49.5 30t-32 44.5t-11.5 53.5zM551 567h369l-52 484 q-1 16 -1.5 35.5t0 37.5t1.5 32.5t2 21.5h-6q-2 -9 -7 -23t-11.5 -30.5t-15 -34.5t-17.5 -35zM990 1672q0 30 11.5 55t32.5 42.5t49 27.5t61 10q34 0 62 -10t48.5 -28t31.5 -43t11 -54t-10.5 -54.5t-30.5 -44t-48.5 -29.5t-63.5 -11t-63.5 11t-48.5 30t-31 44.5t-11 53.5z " />
<glyph unicode="&#x4d3;" horiz-adv-x="1214" d="M61 371q0 47 10.5 115.5t38 144t76.5 150t125.5 134.5t185 97t255.5 37q57 0 114.5 -4.5t113 -12t107.5 -17.5t97 -20l-140 -657q-7 -31 -13.5 -75t-12 -91.5t-9 -93t-3.5 -78.5h-320q0 15 1.5 38.5t3.5 48t4.5 48t4.5 39.5h-4q-29 -39 -60 -75t-69 -63.5t-84.5 -44 t-107.5 -16.5q-75 0 -133.5 27t-98.5 78t-61 124.5t-21 166.5zM379 389q0 -37 7.5 -68.5t23.5 -54.5t39.5 -36t54.5 -13q57 0 101.5 33t78 84.5t56 116t36.5 127.5l53 239q-23 5 -51 7.5t-53 2.5q-69 0 -121 -23t-90.5 -60t-64.5 -84t-41.5 -95.5t-22 -94.5t-6.5 -81z M394 1325q0 30 12 55t33 42.5t49.5 27.5t61.5 10q34 0 62 -10t48.5 -28t31.5 -43t11 -54t-11 -54.5t-31 -44t-48 -29.5t-63 -11q-34 0 -63 11t-49.5 30t-32 44.5t-11.5 53.5zM853 1325q0 30 11.5 55t32.5 42.5t49 27.5t61 10q34 0 62 -10t48.5 -28t31.5 -43t11 -54 t-10.5 -54.5t-30.5 -44t-48.5 -29.5t-63.5 -11t-63.5 11t-48.5 30t-31 44.5t-11 53.5z" />
<glyph unicode="&#x4d4;" horiz-adv-x="1933" d="M-143 0l1083 1434h1065l-55 -263h-504l-68 -323h467l-55 -264h-467l-70 -322h535l-55 -262h-859l68 319h-477l-229 -319h-379zM653 586h344l125 588h-51z" />
<glyph unicode="&#x4d5;" horiz-adv-x="1761" d="M61 360q0 52 12.5 123.5t43.5 148t82 151.5t128.5 134t183 95.5t245.5 36.5q108 0 196.5 -21t147.5 -43q60 32 130.5 48t147.5 16q91 0 160 -22t115.5 -61t70 -91.5t23.5 -114.5q0 -79 -33.5 -145t-112.5 -114t-209.5 -75.5t-324.5 -30.5v-18q0 -31 10 -62.5t34 -57 t64 -41t101 -15.5q36 0 78.5 6.5t86.5 19t87.5 30t81.5 38.5l-49 -236q-31 -16 -71.5 -31t-87.5 -27t-99 -19t-107 -7q-145 0 -247 60.5t-144 179.5h-4q-33 -45 -74 -88.5t-91 -77t-111 -54t-134 -20.5q-74 0 -135 26.5t-104.5 76t-67 121t-23.5 161.5zM379 381 q0 -75 28 -119.5t80 -44.5q40 0 77.5 24t72 67t66.5 102t61 129q4 11 15.5 46t26.5 77t32 82.5t32 62.5q-20 8 -51.5 14t-60.5 6q-72 0 -128.5 -23t-98.5 -61t-71 -86t-47 -97.5t-26 -96.5t-8 -82zM1090 590q180 -2 267 41.5t87 124.5q0 37 -27.5 61.5t-75.5 24.5 q-43 0 -82.5 -18t-73 -51t-58 -79.5t-37.5 -103.5z" />
<glyph unicode="&#x4d6;" horiz-adv-x="1085" d="M49 0l305 1434h826l-56 -263h-501l-68 -323h467l-57 -264h-465l-70 -322h535l-56 -262h-860zM408 1909h240q1 -34 11.5 -66t31 -56.5t51.5 -39t73 -14.5q41 0 77.5 13.5t66 37.5t51.5 56t35 69h241q-22 -75 -67 -139t-108.5 -110t-144.5 -72t-174 -26q-81 0 -150.5 25.5 t-121 71.5t-81 110t-31.5 140z" />
<glyph unicode="&#x4d7;" horiz-adv-x="1065" d="M61 399q0 131 43.5 249t124 207t194 141.5t253.5 52.5q101 0 172 -24t116 -64.5t66 -92.5t21 -108q0 -79 -33.5 -145t-112 -114t-208.5 -75.5t-324 -30.5q-2 -6 -2 -10.5v-9.5q0 -31 10 -62t34.5 -56t64.5 -40.5t100 -15.5q36 0 78.5 6.5t86.5 19t87.5 30t80.5 38.5 l-49 -236q-31 -16 -71 -31t-86.5 -27t-99 -19t-107.5 -7q-116 0 -199 34t-136.5 91.5t-78.5 134.5t-25 164zM289 1538h240q1 -34 11.5 -66t31 -56.5t51.5 -39t73 -14.5q41 0 77.5 13.5t66 37.5t51.5 56t35 69h241q-22 -75 -67 -139t-108.5 -110t-144.5 -72t-174 -26 q-81 0 -150.5 25.5t-121 71.5t-81 110t-31.5 140zM393 590q180 -2 268.5 41t88.5 125q0 37 -27.5 61.5t-77.5 24.5q-44 0 -84.5 -19t-74 -52.5t-57.5 -80t-36 -100.5z" />
<glyph unicode="&#x4d8;" horiz-adv-x="1586" d="M85 535q0 30 3 68t8 77t12 75.5t15 62.5l10 32h1061q14 344 -374 344q-108 0 -224.5 -31.5t-248.5 -101.5l65 294q109 58 224 80.5t245 22.5q155 0 277.5 -40.5t208 -118t131 -190.5t45.5 -258q0 -189 -55.5 -349.5t-163 -277.5t-266.5 -183t-366 -66q-131 0 -242 37 t-192 108t-127 175.5t-46 239.5zM430 542q0 -73 22 -129.5t61.5 -95t94.5 -58.5t121 -20q83 0 153 24t125 70t95 111.5t64 149.5h-84h-648q-2 -15 -3 -25.5t-1 -26.5z" />
<glyph unicode="&#x4d9;" horiz-adv-x="1065" d="M14 264q0 79 33.5 145t112 114t209 75.5t323.5 30.5q2 6 2 10.5v9.5q0 31 -10 62t-34.5 56t-64.5 40.5t-100 15.5q-36 0 -78.5 -6.5t-86.5 -19t-87 -30t-81 -38.5l49 236q31 16 71 31t86.5 27t99 19t107.5 7q116 0 199.5 -34t136.5 -91.5t78 -134.5t25 -164 q0 -131 -43.5 -249t-124 -207t-194 -141.5t-253.5 -52.5q-100 0 -171.5 24t-116.5 64.5t-66 92.5t-21 108zM315 268q0 -37 27.5 -61.5t77.5 -24.5q44 0 84.5 19t74 52.5t57.5 80t36 100.5q-180 2 -268.5 -41t-88.5 -125z" />
<glyph unicode="&#x4da;" horiz-adv-x="1586" d="M85 535q0 30 3 68t8 77t12 75.5t15 62.5l10 32h1061q14 344 -374 344q-108 0 -224.5 -31.5t-248.5 -101.5l65 294q109 58 224 80.5t245 22.5q155 0 277.5 -40.5t208 -118t131 -190.5t45.5 -258q0 -189 -55.5 -349.5t-163 -277.5t-266.5 -183t-366 -66q-131 0 -242 37 t-192 108t-127 175.5t-46 239.5zM430 542q0 -73 22 -129.5t61.5 -95t94.5 -58.5t121 -20q83 0 153 24t125 70t95 111.5t64 149.5h-84h-648q-2 -15 -3 -25.5t-1 -26.5zM573 1706q0 30 12 55t33 42.5t49.5 27.5t61.5 10q34 0 62 -10t48.5 -28t31.5 -43t11 -54t-11 -54.5 t-31 -44t-48 -29.5t-63 -11q-34 0 -63 11t-49.5 30t-32 44.5t-11.5 53.5zM1032 1706q0 30 11.5 55t32.5 42.5t49 27.5t61 10q34 0 62 -10t48.5 -28t31.5 -43t11 -54t-10.5 -54.5t-30.5 -44t-48.5 -29.5t-63.5 -11t-63.5 11t-48.5 30t-31 44.5t-11 53.5z" />
<glyph unicode="&#x4db;" horiz-adv-x="1065" d="M14 264q0 79 33.5 145t112 114t209 75.5t323.5 30.5q2 6 2 10.5v9.5q0 31 -10 62t-34.5 56t-64.5 40.5t-100 15.5q-36 0 -78.5 -6.5t-86.5 -19t-87 -30t-81 -38.5l49 236q31 16 71 31t86.5 27t99 19t107.5 7q116 0 199.5 -34t136.5 -91.5t78 -134.5t25 -164 q0 -131 -43.5 -249t-124 -207t-194 -141.5t-253.5 -52.5q-100 0 -171.5 24t-116.5 64.5t-66 92.5t-21 108zM257 1325q0 30 12 55t33 42.5t49.5 27.5t61.5 10q34 0 62 -10t48.5 -28t31.5 -43t11 -54t-11 -54.5t-31 -44t-48 -29.5t-63 -11q-34 0 -63 11t-49.5 30t-32 44.5 t-11.5 53.5zM315 268q0 -37 27.5 -61.5t77.5 -24.5q44 0 84.5 19t74 52.5t57.5 80t36 100.5q-180 2 -268.5 -41t-88.5 -125zM716 1325q0 30 11.5 55t32.5 42.5t49 27.5t61 10q34 0 62 -10t48.5 -28t31.5 -43t11 -54t-10.5 -54.5t-30.5 -44t-48.5 -29.5t-63.5 -11t-63.5 11 t-48.5 30t-31 44.5t-11 53.5z" />
<glyph unicode="&#x4dc;" horiz-adv-x="1884" d="M-121 0l666 744l-335 690h350l250 -619q3 -10 10 -29t9 -33h4l143 681h299l-144 -675h4q3 7 9.5 17t14 20t14.5 19t11 14l500 605h363l-632 -699l351 -735h-358l-266 640q-7 19 -11 37.5t-5 28.5h-4l-151 -706h-299l148 693h-5q-7 -11 -19 -30t-27 -36l-518 -627h-372z M772 1706q0 30 12 55t33 42.5t49.5 27.5t61.5 10q34 0 62 -10t48.5 -28t31.5 -43t11 -54t-11 -54.5t-31 -44t-48 -29.5t-63 -11q-34 0 -63 11t-49.5 30t-32 44.5t-11.5 53.5zM1231 1706q0 30 11.5 55t32.5 42.5t49 27.5t61 10q34 0 62 -10t48.5 -28t31.5 -43t11 -54 t-10.5 -54.5t-30.5 -44t-48.5 -29.5t-63.5 -11t-63.5 11t-48.5 30t-31 44.5t-11 53.5z" />
<glyph unicode="&#x4dd;" horiz-adv-x="1660" d="M-123 0l510 539l-247 485h326l215 -480h4l102 480h299l-103 -483h4l417 483h351l-480 -511l260 -513h-333l-223 505h-4l-107 -505h-299l109 508h-4l-438 -508h-359zM582 1325q0 30 12 55t33 42.5t49.5 27.5t61.5 10q34 0 62 -10t48.5 -28t31.5 -43t11 -54t-11 -54.5 t-31 -44t-48 -29.5t-63 -11q-34 0 -63 11t-49.5 30t-32 44.5t-11.5 53.5zM1041 1325q0 30 11.5 55t32.5 42.5t49 27.5t61 10q34 0 62 -10t48.5 -28t31.5 -43t11 -54t-10.5 -54.5t-30.5 -44t-48.5 -29.5t-63.5 -11t-63.5 11t-48.5 30t-31 44.5t-11 53.5z" />
<glyph unicode="&#x4de;" horiz-adv-x="1176" d="M-6 68l57 283q36 -24 80.5 -44.5t94.5 -36.5t105.5 -25t114.5 -9q85 0 140 17.5t87 45.5t44.5 63t12.5 69q0 83 -59 128t-190 45h-186l51 264h194q142 0 219.5 47t77.5 144q0 30 -11.5 55.5t-36 44t-62.5 29t-92 10.5q-40 0 -88 -7.5t-96 -20t-91.5 -28t-76.5 -31.5 l50 278q33 12 77 24.5t94.5 22.5t106.5 16t113 6q113 0 196.5 -26t138 -72.5t81 -110.5t26.5 -139q0 -63 -20.5 -123t-65.5 -110.5t-115.5 -86.5t-170.5 -50v-4q63 -13 112 -41.5t83 -70t51.5 -94.5t17.5 -115q0 -48 -13 -99.5t-42 -100t-76.5 -92.5t-116 -76.5t-160 -52 t-209.5 -19.5q-134 0 -245.5 23.5t-201.5 69.5zM397 1706q0 30 12 55t33 42.5t49.5 27.5t61.5 10q34 0 62 -10t48.5 -28t31.5 -43t11 -54t-11 -54.5t-31 -44t-48 -29.5t-63 -11q-34 0 -63 11t-49.5 30t-32 44.5t-11.5 53.5zM856 1706q0 30 11.5 55t32.5 42.5t49 27.5t61 10 q34 0 62 -10t48.5 -28t31.5 -43t11 -54t-10.5 -54.5t-30.5 -44t-48.5 -29.5t-63.5 -11t-63.5 11t-48.5 30t-31 44.5t-11 53.5z" />
<glyph unicode="&#x4df;" horiz-adv-x="982" d="M-36 37l44 234q66 -32 145.5 -53t159.5 -21q133 0 195 32t62 89q0 55 -62 84t-174 29h-179l39 190h182q126 0 196 33.5t70 88.5q0 49 -51 75t-138 26q-37 0 -78 -5t-81.5 -14t-79.5 -21t-73 -27l47 221q38 11 81 20.5t89.5 16.5t95 10.5t96.5 3.5q187 0 291 -63t104 -191 q0 -46 -15.5 -89t-51 -79t-94.5 -62t-146 -38v-3q61 -6 105.5 -26.5t73 -51t42 -68t13.5 -75.5q0 -37 -9 -75.5t-32 -75t-61.5 -69t-97.5 -56.5t-140 -38t-189 -14q-125 0 -223.5 19.5t-155.5 42.5zM241 1325q0 30 12 55t33 42.5t49.5 27.5t61.5 10q34 0 62 -10t48.5 -28 t31.5 -43t11 -54t-11 -54.5t-31 -44t-48 -29.5t-63 -11q-34 0 -63 11t-49.5 30t-32 44.5t-11.5 53.5zM700 1325q0 30 11.5 55t32.5 42.5t49 27.5t61 10q34 0 62 -10t48.5 -28t31.5 -43t11 -54t-10.5 -54.5t-30.5 -44t-48.5 -29.5t-63.5 -11t-63.5 11t-48.5 30t-31 44.5 t-11 53.5z" />
<glyph unicode="&#x4e0;" horiz-adv-x="1137" d="M-31 53l61 265q74 -39 168 -68t200 -29q74 0 132.5 14t99.5 43t63 74t22 106q0 41 -17 75.5t-51.5 60.5t-86.5 40.5t-121 14.5h-129l28 135l396 387h-506l55 263h916l-38 -181l-437 -405q74 -13 135.5 -44t105.5 -77.5t68 -107t24 -131.5q0 -133 -48.5 -230t-134.5 -160 t-205 -93t-260 -30q-63 0 -126 4.5t-120.5 14t-107 24.5t-86.5 35z" />
<glyph unicode="&#x4e1;" horiz-adv-x="1016" d="M-190 -389l58 264q29 -21 72 -41.5t92.5 -37t103 -26.5t102.5 -10q95 0 163.5 20t112.5 55.5t65 84.5t21 108q0 106 -79.5 165t-237.5 59h-118l28 131l429 408h-529l49 233h914l-31 -151l-443 -423q70 -13 132 -44.5t108.5 -80.5t74 -114t27.5 -145q0 -140 -52.5 -242.5 t-145.5 -170.5t-219.5 -101t-274.5 -33q-131 0 -235.5 25t-186.5 67z" />
<glyph unicode="&#x4e2;" horiz-adv-x="1607" d="M48 0l303 1434h302q-42 -201 -83.5 -398.5t-83.5 -397.5q-6 -30 -15.5 -69t-20.5 -73h4q9 12 22.5 28t28.5 33t30 33t26 28q29 31 57.5 61.5t57.5 60.5q161 174 321 347t321 347h318l-303 -1434h-302l162 768q12 56 24.5 108t24.5 97h-4q-21 -26 -52.5 -61.5t-63.5 -70.5 q-29 -31 -58 -61.5t-58 -62.5q-330 -358 -663 -717h-295zM723 1567l37 172h586l-37 -172h-586z" />
<glyph unicode="&#x4e3;" d="M66 244q0 15 3 40t7.5 52t9 52.5t8.5 43.5l125 592h318l-123 -578q-4 -16 -7.5 -34t-6 -35t-4 -31t-1.5 -22q0 -44 24 -70.5t70 -26.5q50 0 97 28t85 73t65.5 101t39.5 112l103 483h319l-147 -684q-9 -45 -17 -93.5t-14 -93.5t-10 -84.5t-6 -68.5h-320q3 29 6.5 59 t7.5 56.5t7 47.5t4 30h-4q-39 -49 -83.5 -89t-93 -68.5t-100 -44.5t-104.5 -16q-127 0 -192.5 70.5t-65.5 198.5zM432 1186l37 172h586l-37 -172h-586z" />
<glyph unicode="&#x4e4;" horiz-adv-x="1607" d="M48 0l303 1434h302q-42 -201 -83.5 -398.5t-83.5 -397.5q-6 -30 -15.5 -69t-20.5 -73h4q9 12 22.5 28t28.5 33t30 33t26 28q29 31 57.5 61.5t57.5 60.5q161 174 321 347t321 347h318l-303 -1434h-302l162 768q12 56 24.5 108t24.5 97h-4q-21 -26 -52.5 -61.5t-63.5 -70.5 q-29 -31 -58 -61.5t-58 -62.5q-330 -358 -663 -717h-295zM645 1706q0 30 12 55t33 42.5t49.5 27.5t61.5 10q34 0 62 -10t48.5 -28t31.5 -43t11 -54t-11 -54.5t-31 -44t-48 -29.5t-63 -11q-34 0 -63 11t-49.5 30t-32 44.5t-11.5 53.5zM1104 1706q0 30 11.5 55t32.5 42.5 t49 27.5t61 10q34 0 62 -10t48.5 -28t31.5 -43t11 -54t-10.5 -54.5t-30.5 -44t-48.5 -29.5t-63.5 -11t-63.5 11t-48.5 30t-31 44.5t-11 53.5z" />
<glyph unicode="&#x4e5;" d="M66 244q0 15 3 40t7.5 52t9 52.5t8.5 43.5l125 592h318l-123 -578q-4 -16 -7.5 -34t-6 -35t-4 -31t-1.5 -22q0 -44 24 -70.5t70 -26.5q50 0 97 28t85 73t65.5 101t39.5 112l103 483h319l-147 -684q-9 -45 -17 -93.5t-14 -93.5t-10 -84.5t-6 -68.5h-320q3 29 6.5 59 t7.5 56.5t7 47.5t4 30h-4q-39 -49 -83.5 -89t-93 -68.5t-100 -44.5t-104.5 -16q-127 0 -192.5 70.5t-65.5 198.5zM367 1325q0 30 12 55t33 42.5t49.5 27.5t61.5 10q34 0 62 -10t48.5 -28t31.5 -43t11 -54t-11 -54.5t-31 -44t-48 -29.5t-63 -11q-34 0 -63 11t-49.5 30 t-32 44.5t-11.5 53.5zM826 1325q0 30 11.5 55t32.5 42.5t49 27.5t61 10q34 0 62 -10t48.5 -28t31.5 -43t11 -54t-10.5 -54.5t-30.5 -44t-48.5 -29.5t-63.5 -11t-63.5 11t-48.5 30t-31 44.5t-11 53.5z" />
<glyph unicode="&#x4e6;" horiz-adv-x="1554" d="M111 592q0 93 16 183.5t48.5 174t81 159t112.5 138.5q50 48 108 86.5t125 66.5t144 43t165 15q133 0 243.5 -42t189.5 -121.5t123 -194t44 -258.5q0 -86 -15 -173t-44.5 -168.5t-74 -156.5t-103.5 -137q-50 -53 -109 -96t-128.5 -73t-150.5 -46.5t-175 -16.5 q-142 0 -253.5 47t-188.5 129.5t-117.5 195.5t-40.5 245zM453 596q0 -81 20.5 -145t58.5 -107.5t91.5 -66.5t119.5 -23q82 0 156.5 36t130.5 107q35 42 61 94.5t43 109.5t26 116t9 114q0 81 -20.5 145t-58.5 108.5t-92.5 68t-123.5 23.5q-80 0 -152 -37t-128 -103 q-34 -40 -60 -92t-44 -110t-27.5 -118.5t-9.5 -119.5zM573 1706q0 30 12 55t33 42.5t49.5 27.5t61.5 10q34 0 62 -10t48.5 -28t31.5 -43t11 -54t-11 -54.5t-31 -44t-48 -29.5t-63 -11q-34 0 -63 11t-49.5 30t-32 44.5t-11.5 53.5zM1032 1706q0 30 11.5 55t32.5 42.5t49 27.5 t61 10q34 0 62 -10t48.5 -28t31.5 -43t11 -54t-10.5 -54.5t-30.5 -44t-48.5 -29.5t-63.5 -11t-63.5 11t-48.5 30t-31 44.5t-11 53.5z" />
<glyph unicode="&#x4e7;" horiz-adv-x="1178" d="M61 408q0 74 15 150.5t46.5 147.5t80.5 133.5t117 109t155.5 73.5t196.5 27q107 0 189.5 -30.5t139 -87t86 -136t29.5 -177.5q0 -71 -14 -146t-44 -146.5t-77.5 -135.5t-115 -111.5t-156 -75.5t-201.5 -28q-114 0 -198.5 33t-139.5 91t-82 137.5t-27 171.5zM359 1325 q0 30 12 55t33 42.5t49.5 27.5t61.5 10q34 0 62 -10t48.5 -28t31.5 -43t11 -54t-11 -54.5t-31 -44t-48 -29.5t-63 -11q-34 0 -63 11t-49.5 30t-32 44.5t-11.5 53.5zM379 408q0 -91 42.5 -141t110.5 -50q65 0 114.5 35t83 91.5t50.5 127.5t17 143q0 42 -10 77.5t-29.5 61 t-47.5 40t-65 14.5q-63 0 -112.5 -36t-83.5 -93t-52 -128t-18 -142zM818 1325q0 30 11.5 55t32.5 42.5t49 27.5t61 10q34 0 62 -10t48.5 -28t31.5 -43t11 -54t-10.5 -54.5t-30.5 -44t-48.5 -29.5t-63.5 -11t-63.5 11t-48.5 30t-31 44.5t-11 53.5z" />
<glyph unicode="&#x4e8;" horiz-adv-x="1554" d="M111 592q0 93 16 183.5t48.5 174t81 159t112.5 138.5q50 48 108 86.5t125 66.5t144 43t165 15q133 0 243.5 -42t189.5 -121.5t123 -194t44 -258.5q0 -86 -15 -173t-44.5 -168.5t-74 -156.5t-103.5 -137q-50 -53 -109 -96t-128.5 -73t-150.5 -46.5t-175 -16.5 q-142 0 -253.5 47t-188.5 129.5t-117.5 195.5t-40.5 245zM453 584q2 -79 23 -140.5t58.5 -103.5t90.5 -64t118 -22q82 0 156.5 36t130.5 107q32 39 56.5 86.5t41.5 100.5h-675zM492 840l677 2q-1 78 -22 140t-59.5 105t-92 66t-121.5 23q-80 0 -152 -37t-128 -103 q-33 -40 -58.5 -90t-43.5 -106z" />
<glyph unicode="&#x4e9;" horiz-adv-x="1178" d="M61 408q0 74 15 150.5t46.5 147.5t80.5 133.5t117 109t155.5 73.5t196.5 27q107 0 189.5 -30.5t139 -87t86 -136t29.5 -177.5q0 -71 -14 -146t-44 -146.5t-77.5 -135.5t-115 -111.5t-156 -75.5t-201.5 -28q-114 0 -198.5 33t-139.5 91t-82 137.5t-27 171.5zM379 408 q0 -91 42.5 -141t110.5 -50q42 0 77 15t64 41.5t51.5 62.5t37.5 78h-383v-6zM412 600h385v14q0 42 -10 77.5t-29.5 61t-47.5 40t-65 14.5q-42 0 -77.5 -16t-65 -44t-52 -65.5t-38.5 -81.5z" />
<glyph unicode="&#x4ea;" horiz-adv-x="1554" d="M111 592q0 93 16 183.5t48.5 174t81 159t112.5 138.5q50 48 108 86.5t125 66.5t144 43t165 15q133 0 243.5 -42t189.5 -121.5t123 -194t44 -258.5q0 -86 -15 -173t-44.5 -168.5t-74 -156.5t-103.5 -137q-50 -53 -109 -96t-128.5 -73t-150.5 -46.5t-175 -16.5 q-142 0 -253.5 47t-188.5 129.5t-117.5 195.5t-40.5 245zM453 596q0 -81 20.5 -145t58.5 -107.5t91.5 -66.5t119.5 -23q82 0 156.5 36t130.5 107q34 42 59.5 92.5t42.5 107.5h-679v-1zM490 836h679q-1 80 -21.5 143t-59 107t-92.5 67t-122 23q-80 0 -152 -37t-128 -103 q-34 -41 -60 -92t-44 -108zM565 1706q0 30 12 55t33 42.5t49.5 27.5t61.5 10q34 0 62 -10t48.5 -28t31.5 -43t11 -54t-11 -54.5t-31 -44t-48 -29.5t-63 -11q-34 0 -63 11t-49.5 30t-32 44.5t-11.5 53.5zM1024 1706q0 30 11.5 55t32.5 42.5t49 27.5t61 10q34 0 62 -10 t48.5 -28t31.5 -43t11 -54t-10.5 -54.5t-30.5 -44t-48.5 -29.5t-63.5 -11t-63.5 11t-48.5 30t-31 44.5t-11 53.5z" />
<glyph unicode="&#x4eb;" horiz-adv-x="1178" d="M61 408q0 74 15 150.5t46.5 147.5t80.5 133.5t117 109t155.5 73.5t196.5 27q107 0 189.5 -30.5t139 -87t86 -136t29.5 -177.5q0 -71 -14 -146t-44 -146.5t-77.5 -135.5t-115 -111.5t-156 -75.5t-201.5 -28q-114 0 -198.5 33t-139.5 91t-82 137.5t-27 171.5zM344 1325 q0 30 12 55t33 42.5t49.5 27.5t61.5 10q34 0 62 -10t48.5 -28t31.5 -43t11 -54t-11 -54.5t-31 -44t-48 -29.5t-63 -11q-34 0 -63 11t-49.5 30t-32 44.5t-11.5 53.5zM379 408q0 -91 42.5 -141t110.5 -50q42 0 77.5 15t64.5 42t51.5 63.5t37.5 78.5h-384v-8zM416 610h381v4 q0 42 -10 77.5t-29.5 61t-47.5 40t-65 14.5q-40 0 -75 -15t-63.5 -41.5t-51.5 -62.5t-39 -78zM803 1325q0 30 11.5 55t32.5 42.5t49 27.5t61 10q34 0 62 -10t48.5 -28t31.5 -43t11 -54t-10.5 -54.5t-30.5 -44t-48.5 -29.5t-63.5 -11t-63.5 11t-48.5 30t-31 44.5t-11 53.5z " />
<glyph unicode="&#x4ec;" horiz-adv-x="1315" d="M11 40q15 70 30 145.5t31 146.5q30 -15 67 -29.5t79.5 -25.5t89.5 -18t96 -7q104 0 186 24t143 68.5t101 108t59 142.5h-577q14 64 27 128t27 128h552q2 10 2 16.5v17.5q0 57 -19.5 109.5t-62 92.5t-110.5 64t-166 24q-94 0 -180 -18.5t-146 -46.5q14 69 28.5 147.5 t28.5 147.5q65 22 150.5 37.5t189.5 15.5q159 0 278 -45t198.5 -126t119 -192.5t39.5 -244.5q0 -94 -17.5 -195t-58 -198.5t-106.5 -185t-163.5 -153t-228.5 -104.5t-302 -39q-57 0 -112.5 5.5t-106 15t-93 21t-73.5 23.5zM395 1706q0 30 12 55t33 42.5t49.5 27.5t61.5 10 q34 0 62 -10t48.5 -28t31.5 -43t11 -54t-11 -54.5t-31 -44t-48 -29.5t-63 -11q-34 0 -63 11t-49.5 30t-32 44.5t-11.5 53.5zM854 1706q0 30 11.5 55t32.5 42.5t49 27.5t61 10q34 0 62 -10t48.5 -28t31.5 -43t11 -54t-10.5 -54.5t-30.5 -44t-48.5 -29.5t-63.5 -11t-63.5 11 t-48.5 30t-31 44.5t-11 53.5z" />
<glyph unicode="&#x4ed;" horiz-adv-x="966" d="M-19 31q6 27 11 58.5t10.5 64t10.5 64t11 59.5q14 -9 38.5 -20t55.5 -20t66 -15t70 -6q145 0 224 55t104 152h-428q10 47 19.5 94t19.5 94h410q1 5 1.5 11t0.5 11q0 28 -10 58.5t-36 56.5t-72.5 43t-118.5 17q-67 0 -131 -17.5t-112 -41.5q7 28 14 61.5t13.5 67.5 t13.5 67.5t14 61.5q27 9 61.5 16.5t74 13.5t81.5 9t82 3q107 0 187 -32.5t133 -89.5t79 -135.5t26 -170.5q0 -80 -16 -159.5t-49 -151t-84 -133t-121.5 -106.5t-161.5 -70.5t-203 -25.5q-47 0 -91.5 5t-82.5 13t-67.5 18t-46.5 20zM186 1325q0 30 12 55t33 42.5t49.5 27.5 t61.5 10q34 0 62 -10t48.5 -28t31.5 -43t11 -54t-11 -54.5t-31 -44t-48 -29.5t-63 -11q-34 0 -63 11t-49.5 30t-32 44.5t-11.5 53.5zM645 1325q0 30 11.5 55t32.5 42.5t49 27.5t61 10q34 0 62 -10t48.5 -28t31.5 -43t11 -54t-10.5 -54.5t-30.5 -44t-48.5 -29.5t-63.5 -11 t-63.5 11t-48.5 30t-31 44.5t-11 53.5z" />
<glyph unicode="&#x4ee;" horiz-adv-x="1255" d="M-6 17l57 272q29 -17 68 -27.5t79 -10.5q67 0 130.5 45.5t133.5 150.5l-263 987h353l113 -555q7 -39 11 -80t6 -67h4q17 39 33.5 75t32.5 62l334 565h361l-653 -1014q-70 -109 -134.5 -192t-134 -139.5t-149 -85t-180.5 -28.5q-28 0 -57.5 3.5t-56.5 9t-50 13t-38 16.5z M533 1567l37 172h586l-37 -172h-586z" />
<glyph unicode="&#x4ef;" horiz-adv-x="1102" d="M-160 -453l54 244q21 -15 52 -23t62 -8q59 0 110 27.5t89 89.5l82 129l-199 1018h332l72 -623q3 -34 4 -73t-2 -64h4q9 25 23 62t34 75l313 623h332l-651 -1114q-51 -89 -105.5 -161.5t-118.5 -123.5t-141.5 -78.5t-175.5 -27.5q-34 0 -81.5 6.5t-88.5 21.5zM368 1186 l37 172h586l-37 -172h-586z" />
<glyph unicode="&#x4f0;" horiz-adv-x="1255" d="M-6 17l57 272q29 -17 68 -27.5t79 -10.5q67 0 130.5 45.5t133.5 150.5l-263 987h353l113 -555q7 -39 11 -80t6 -67h4q17 39 33.5 75t32.5 62l334 565h361l-653 -1014q-70 -109 -134.5 -192t-134 -139.5t-149 -85t-180.5 -28.5q-28 0 -57.5 3.5t-56.5 9t-50 13t-38 16.5z M462 1706q0 30 12 55t33 42.5t49.5 27.5t61.5 10q34 0 62 -10t48.5 -28t31.5 -43t11 -54t-11 -54.5t-31 -44t-48 -29.5t-63 -11q-34 0 -63 11t-49.5 30t-32 44.5t-11.5 53.5zM921 1706q0 30 11.5 55t32.5 42.5t49 27.5t61 10q34 0 62 -10t48.5 -28t31.5 -43t11 -54 t-10.5 -54.5t-30.5 -44t-48.5 -29.5t-63.5 -11t-63.5 11t-48.5 30t-31 44.5t-11 53.5z" />
<glyph unicode="&#x4f1;" horiz-adv-x="1102" d="M-160 -453l54 244q21 -15 52 -23t62 -8q59 0 110 27.5t89 89.5l82 129l-199 1018h332l72 -623q3 -34 4 -73t-2 -64h4q9 25 23 62t34 75l313 623h332l-651 -1114q-51 -89 -105.5 -161.5t-118.5 -123.5t-141.5 -78.5t-175.5 -27.5q-34 0 -81.5 6.5t-88.5 21.5zM297 1325 q0 30 12 55t33 42.5t49.5 27.5t61.5 10q34 0 62 -10t48.5 -28t31.5 -43t11 -54t-11 -54.5t-31 -44t-48 -29.5t-63 -11q-34 0 -63 11t-49.5 30t-32 44.5t-11.5 53.5zM756 1325q0 30 11.5 55t32.5 42.5t49 27.5t61 10q34 0 62 -10t48.5 -28t31.5 -43t11 -54t-10.5 -54.5 t-30.5 -44t-48.5 -29.5t-63.5 -11t-63.5 11t-48.5 30t-31 44.5t-11 53.5z" />
<glyph unicode="&#x4f2;" horiz-adv-x="1255" d="M-6 17l57 272q29 -17 68 -27.5t79 -10.5q67 0 130.5 45.5t133.5 150.5l-263 987h353l113 -555q7 -39 11 -80t6 -67h4q17 39 33.5 75t32.5 62l334 565h361l-653 -1014q-70 -109 -134.5 -192t-134 -139.5t-149 -85t-180.5 -28.5q-28 0 -57.5 3.5t-56.5 9t-50 13t-38 16.5z M455 1567l240 325h252l-277 -325h-215zM838 1567l240 325h256l-281 -325h-215z" />
<glyph unicode="&#x4f3;" horiz-adv-x="1102" d="M-160 -453l54 244q21 -15 52 -23t62 -8q59 0 110 27.5t89 89.5l82 129l-199 1018h332l72 -623q3 -34 4 -73t-2 -64h4q9 25 23 62t34 75l313 623h332l-651 -1114q-51 -89 -105.5 -161.5t-118.5 -123.5t-141.5 -78.5t-175.5 -27.5q-34 0 -81.5 6.5t-88.5 21.5zM322 1186 l240 325h252l-277 -325h-215zM705 1186l240 325h256l-281 -325h-215z" />
<glyph unicode="&#x4f4;" horiz-adv-x="1476" d="M200 779q0 32 6 74.5t16 87.5l103 493h325l-105 -492q-5 -25 -8.5 -50t-3.5 -42q0 -28 9.5 -51.5t29.5 -41t52.5 -27t77.5 -9.5q81 0 173 22t177 68l131 623h326l-303 -1434h-326l113 541q-85 -40 -191 -66t-228 -26q-102 0 -173.5 27t-116 73t-64.5 105.5t-20 124.5z M563 1706q0 30 12 55t33 42.5t49.5 27.5t61.5 10q34 0 62 -10t48.5 -28t31.5 -43t11 -54t-11 -54.5t-31 -44t-48 -29.5t-63 -11q-34 0 -63 11t-49.5 30t-32 44.5t-11.5 53.5zM1022 1706q0 30 11.5 55t32.5 42.5t49 27.5t61 10q34 0 62 -10t48.5 -28t31.5 -43t11 -54 t-10.5 -54.5t-30.5 -44t-48.5 -29.5t-63.5 -11t-63.5 11t-48.5 30t-31 44.5t-11 53.5z" />
<glyph unicode="&#x4f5;" horiz-adv-x="1194" d="M116 603q0 35 5 68t13 71l62 282h312q-10 -47 -21 -95q-9 -41 -19 -88t-19 -89q-5 -20 -8 -43.5t-3 -37.5q0 -21 5.5 -39.5t18 -32t34 -21t53.5 -7.5q54 0 106.5 16t106.5 43l4 17t10 44.5t13.5 63t15.5 72.5q18 87 42 197h320l-217 -1024h-320l88 418q-68 -33 -151 -57 t-169 -24q-70 0 -122.5 20.5t-88 56t-53.5 84t-18 105.5zM335 1325q0 30 12 55t33 42.5t49.5 27.5t61.5 10q34 0 62 -10t48.5 -28t31.5 -43t11 -54t-11 -54.5t-31 -44t-48 -29.5t-63 -11q-34 0 -63 11t-49.5 30t-32 44.5t-11.5 53.5zM794 1325q0 30 11.5 55t32.5 42.5 t49 27.5t61 10q34 0 62 -10t48.5 -28t31.5 -43t11 -54t-10.5 -54.5t-30.5 -44t-48.5 -29.5t-63.5 -11t-63.5 11t-48.5 30t-31 44.5t-11 53.5z" />
<glyph unicode="&#x4f6;" horiz-adv-x="1085" d="M49 0l305 1434h855l-57 -266h-532l-188 -886h218l-144 -675h-295l83 393h-245z" />
<glyph unicode="&#x4f7;" horiz-adv-x="840" d="M16 0l217 1024h668l-51 -240h-352l-119 -561h164l-127 -596h-257l80 373h-223z" />
<glyph unicode="&#x4f8;" horiz-adv-x="1839" d="M49 0l304 1434h324l-123 -581h166q119 0 206 -30t144 -82.5t85 -125t28 -158.5q0 -87 -29 -169t-99.5 -146t-188.5 -103t-295 -39h-522zM422 238h134q75 0 128.5 15.5t87.5 43t50 65.5t16 83q0 83 -53 127t-159 44h-124zM729 1706q0 30 12 55t33 42.5t49.5 27.5t61.5 10 q34 0 62 -10t48.5 -28t31.5 -43t11 -54t-11 -54.5t-31 -44t-48 -29.5t-63 -11q-34 0 -63 11t-49.5 30t-32 44.5t-11.5 53.5zM1188 1706q0 30 11.5 55t32.5 42.5t49 27.5t61 10q34 0 62 -10t48.5 -28t31.5 -43t11 -54t-10.5 -54.5t-30.5 -44t-48.5 -29.5t-63.5 -11t-63.5 11 t-48.5 30t-31 44.5t-11 53.5zM1239 0l303 1434h326l-303 -1434h-326z" />
<glyph unicode="&#x4f9;" horiz-adv-x="1661" d="M87 343q0 23 2 49.5t5 53.5t7 53t8 48l97 477h319q-20 -96 -41 -193.5t-41 -192.5q48 14 116 25.5t147 11.5q73 0 131 -19t99 -55.5t63 -91t22 -126.5q0 -82 -32.5 -156.5t-96.5 -130t-158.5 -88.5t-218.5 -33q-114 0 -195 21t-132.5 65.5t-76 114t-24.5 167.5zM391 328 q0 -68 30.5 -104.5t107.5 -36.5q43 0 77.5 12.5t59 34.5t38 52t13.5 65q0 63 -32 92.5t-92 29.5q-51 0 -100.5 -9.5t-89.5 -21.5q-2 -10 -4.5 -25t-4 -31t-2.5 -31.5t-1 -26.5zM577 1325q0 30 12 55t33 42.5t49.5 27.5t61.5 10q34 0 62 -10t48.5 -28t31.5 -43t11 -54 t-11 -54.5t-31 -44t-48 -29.5t-63 -11q-34 0 -63 11t-49.5 30t-32 44.5t-11.5 53.5zM1036 1325q0 30 11.5 55t32.5 42.5t49 27.5t61 10q34 0 62 -10t48.5 -28t31.5 -43t11 -54t-10.5 -54.5t-30.5 -44t-48.5 -29.5t-63.5 -11t-63.5 11t-48.5 30t-31 44.5t-11 53.5zM1099 0 q54 257 108.5 512t108.5 512h318q-54 -257 -108.5 -512t-108.5 -512h-318z" />
<glyph unicode="&#x4fa;" horiz-adv-x="1085" d="M-65 567l54 262h236l129 605h855l-57 -266h-532l-72 -339h342l-55 -262h-343l-120 -567h-323l120 567h-234zM21 -391l53 248q58 -37 109 -37q149 0 199 233l39 190h316l-38 -180q-103 -485 -512 -485q-88 0 -166 31z" />
<glyph unicode="&#x4fb;" horiz-adv-x="918" d="M-10 336l49 237h196l96 451h668l-49 -231h-352l-47 -220h231l-50 -237h-231l-71 -336h-316l71 336h-195zM81 -391l53 248q58 -37 109 -37q149 0 199 233l18 90h316l-17 -80q-103 -485 -512 -485q-88 0 -166 31z" />
<glyph unicode="&#x4fc;" horiz-adv-x="1460" d="M-111 0l615 739l-277 695h377l127 -441q3 -12 5.5 -27.5t4 -31.5t2 -30t0.5 -23h5q3 8 8 20.5t12 27.5t14.5 29.5t16.5 26.5l342 449h377l-590 -725l284 -709h-366l-144 455q-4 11 -6.5 26t-4 30.5t-2.5 30t-1 23.5h-4q-8 -17 -20.5 -48t-30.5 -56l-344 -461h-400z M661 -391l53 248q58 -37 109 -37q149 0 199 233l39 190h316l-38 -180q-103 -485 -512 -485q-88 0 -166 31z" />
<glyph unicode="&#x4fd;" horiz-adv-x="1205" d="M-104 0l456 518l-219 506h352l84 -270q10 -26 17 -56.5t10 -50.5h4q12 22 32 51.5t36 51.5l200 274h359l-447 -510l228 -514h-351l-92 268q-8 23 -15 49.5t-13 51.5h-5q-15 -25 -30 -51t-31 -46l-203 -272h-372zM471 -391l53 248q58 -37 109 -37q149 0 199 233l18 90h316 l-17 -80q-103 -485 -512 -485q-88 0 -166 31z" />
<glyph unicode="&#x4fe;" horiz-adv-x="1341" d="M-111 0l527 634h-358l43 205h363l-237 595h377l127 -441q3 -12 5.5 -27.5t4 -31.5t2 -30t0.5 -23h5q3 8 8 20.5t12 27.5t14.5 29.5t16.5 26.5l342 449h377l-484 -595h349l-43 -205h-382l254 -634h-366l-144 455q-4 11 -6.5 26t-4 30.5t-2.5 30t-1 23.5h-4 q-8 -17 -20.5 -48t-30.5 -56l-344 -461h-400z" />
<glyph unicode="&#x4ff;" horiz-adv-x="1122" d="M-104 0l375 426h-251l34 159h269l-190 439h352l84 -270q10 -26 17 -56.5t10 -50.5h4q12 22 32 51.5t36 51.5l200 274h359l-385 -439h285l-34 -159h-274l189 -426h-351l-92 268q-8 23 -15 49.5t-13 51.5h-5q-15 -25 -30 -51t-31 -46l-203 -272h-372z" />
<glyph unicode="&#x2000;" horiz-adv-x="954" />
<glyph unicode="&#x2001;" horiz-adv-x="1909" />
<glyph unicode="&#x2002;" horiz-adv-x="954" />
<glyph unicode="&#x2003;" horiz-adv-x="1909" />
<glyph unicode="&#x2004;" horiz-adv-x="636" />
<glyph unicode="&#x2005;" horiz-adv-x="477" />
<glyph unicode="&#x2006;" horiz-adv-x="318" />
<glyph unicode="&#x2007;" horiz-adv-x="318" />
<glyph unicode="&#x2008;" horiz-adv-x="238" />
<glyph unicode="&#x2009;" horiz-adv-x="381" />
<glyph unicode="&#x200a;" horiz-adv-x="106" />
<glyph unicode="&#x2010;" horiz-adv-x="827" d="M119 436l47 221h547l-47 -221h-547z" />
<glyph unicode="&#x2011;" horiz-adv-x="827" d="M119 436l47 221h547l-47 -221h-547z" />
<glyph unicode="&#x2012;" horiz-adv-x="827" d="M119 436l47 221h547l-47 -221h-547z" />
<glyph unicode="&#x2013;" horiz-adv-x="1024" d="M-20 436l47 221h1024l-47 -221h-1024z" />
<glyph unicode="&#x2014;" horiz-adv-x="2048" d="M-20 436l47 221h2048l-47 -221h-2048z" />
<glyph unicode="&#x2018;" horiz-adv-x="596" d="M217 1008l213 444h199l-158 -444h-254z" />
<glyph unicode="&#x2019;" horiz-adv-x="596" d="M248 1008l158 444h251l-215 -444h-194z" />
<glyph unicode="&#x201a;" horiz-adv-x="596" d="M-16 -225l157 444h250l-213 -444h-194z" />
<glyph unicode="&#x201c;" horiz-adv-x="1010" d="M217 1008l213 444h197l-156 -444h-254zM633 1008l213 444h196l-157 -444h-252z" />
<glyph unicode="&#x201d;" horiz-adv-x="1010" d="M248 1008l158 444h251l-215 -444h-194zM662 1008l157 444h252l-215 -444h-194z" />
<glyph unicode="&#x201e;" horiz-adv-x="1010" d="M-16 -227l157 444h250l-213 -444h-194zM397 -227l158 444h252l-215 -444h-195z" />
<glyph unicode="&#x2026;" horiz-adv-x="1872" d="M53 133q0 39 15 71.5t41 55t61 35t76 12.5q38 0 70.5 -12t56 -33t36.5 -49.5t13 -62.5q0 -39 -14.5 -70.5t-40 -54.5t-60.5 -35.5t-76 -12.5q-37 0 -69.5 12t-56.5 33t-38 49.5t-14 61.5zM676 133q0 39 15 71.5t40.5 55t61 35t75.5 12.5q39 0 71 -12t55.5 -33t36.5 -49.5 t13 -62.5q0 -39 -14.5 -70.5t-40 -54.5t-60.5 -35.5t-75 -12.5q-38 0 -70.5 12t-56.5 33t-37.5 49.5t-13.5 61.5zM1298 133q0 39 15 71.5t41 55t61 35t76 12.5q38 0 70 -12t55.5 -33t37 -49.5t13.5 -62.5q0 -39 -15 -70.5t-40.5 -54.5t-60 -35.5t-74.5 -12.5q-39 0 -71.5 12 t-56.5 33t-37.5 49.5t-13.5 61.5z" />
<glyph unicode="&#x202f;" horiz-adv-x="381" />
<glyph unicode="&#x2039;" horiz-adv-x="705" d="M57 537l373 340h285l-387 -357l247 -323h-262z" />
<glyph unicode="&#x203a;" horiz-adv-x="705" d="M-8 201l387 356l-248 324h262l256 -340l-373 -340h-284z" />
<glyph unicode="&#x205f;" horiz-adv-x="477" />
<glyph unicode="&#x20ac;" horiz-adv-x="1180" d="M43 455l35 170h112q4 38 8 78.5t13 80.5h-98l34 168h111q42 113 109.5 206t159.5 160t206.5 103.5t249.5 36.5q46 0 89.5 -5t81 -13t67.5 -18.5t49 -22.5l-53 -271q-23 19 -48.5 36.5t-55.5 31t-64.5 21.5t-75.5 8q-75 0 -138 -19.5t-113.5 -55t-89 -86t-65.5 -112.5h475 l-36 -168h-502q-9 -40 -14.5 -79.5t-8.5 -79.5h490l-35 -170h-449q10 -64 35 -111t61 -77.5t82.5 -45t100.5 -14.5q74 0 141.5 21t139.5 63l-46 -256q-71 -31 -139.5 -45.5t-146.5 -14.5q-117 0 -209 34.5t-158 97.5t-104 151.5t-47 196.5h-154z" />
<glyph unicode="&#x2122;" horiz-adv-x="1579" d="M162 1311v123h506v-123h-176v-539h-156v539h-174zM735 772v662h215l158 -453h4l168 453h203v-662h-150v445h-6l-158 -445h-135l-147 445h-4v-445h-148z" />
<glyph unicode="&#x25fc;" horiz-adv-x="1025" d="M0 0v1025h1025v-1025h-1025z" />
</font>
</defs>
</svg>
